G04 #@! TF.GenerationSoftware,KiCad,Pcbnew,(6.0.0)*
G04 #@! TF.CreationDate,2022-01-01T18:26:05+09:00*
G04 #@! TF.ProjectId,TwENkey,5477454e-6b65-4792-9e6b-696361645f70,rev?*
G04 #@! TF.SameCoordinates,Original*
G04 #@! TF.FileFunction,Profile,NP*
%FSLAX46Y46*%
G04 Gerber Fmt 4.6, Leading zero omitted, Abs format (unit mm)*
G04 Created by KiCad (PCBNEW (6.0.0)) date 2022-01-01 18:26:05*
%MOMM*%
%LPD*%
G01*
G04 APERTURE LIST*
G04 #@! TA.AperFunction,Profile*
%ADD10C,0.100000*%
G04 #@! TD*
G04 #@! TA.AperFunction,Profile*
%ADD11C,0.150000*%
G04 #@! TD*
G04 #@! TA.AperFunction,Profile*
%ADD12C,0.010000*%
G04 #@! TD*
G04 #@! TA.AperFunction,Profile*
%ADD13C,0.120000*%
G04 #@! TD*
G04 APERTURE END LIST*
D10*
X328625000Y-20250000D02*
G75*
G03*
X325625000Y-17250000I-3000001J-1D01*
G01*
X17275000Y-17250000D02*
G75*
G03*
X14275000Y-20250000I1J-3000001D01*
G01*
X14275000Y-113050000D02*
G75*
G03*
X17275000Y-116050000I3000001J1D01*
G01*
X328625000Y-113050000D02*
X328625000Y-20250000D01*
X14275000Y-20250000D02*
X14275000Y-113050000D01*
X17275000Y-116050000D02*
X325625000Y-116050000D01*
X325625000Y-17250000D02*
X17275000Y-17250000D01*
X325625000Y-116050000D02*
G75*
G03*
X328625000Y-113050000I-1J3000001D01*
G01*
D11*
X54675000Y-54675000D02*
X40575000Y-54675000D01*
X40575000Y-54675000D02*
X40575000Y-40575000D01*
X40575000Y-40575000D02*
X54675000Y-40575000D01*
X54675000Y-40575000D02*
X54675000Y-54675000D01*
X54675000Y-97725000D02*
X54675000Y-111825000D01*
X40575000Y-111825000D02*
X40575000Y-97725000D01*
X40575000Y-97725000D02*
X54675000Y-97725000D01*
X54675000Y-111825000D02*
X40575000Y-111825000D01*
X40575000Y-35625000D02*
X40575000Y-21525000D01*
X54675000Y-35625000D02*
X40575000Y-35625000D01*
X54675000Y-21525000D02*
X54675000Y-35625000D01*
X40575000Y-21525000D02*
X54675000Y-21525000D01*
X35625000Y-21525000D02*
X35625000Y-35625000D01*
X21525000Y-21525000D02*
X35625000Y-21525000D01*
X21525000Y-35625000D02*
X21525000Y-21525000D01*
X35625000Y-35625000D02*
X21525000Y-35625000D01*
X54675000Y-92775000D02*
X40575000Y-92775000D01*
X40575000Y-78675000D02*
X54675000Y-78675000D01*
X54675000Y-78675000D02*
X54675000Y-92775000D01*
X40575000Y-92775000D02*
X40575000Y-78675000D01*
X54675000Y-59625000D02*
X54675000Y-73725000D01*
X54675000Y-73725000D02*
X40575000Y-73725000D01*
X40575000Y-73725000D02*
X40575000Y-59625000D01*
X40575000Y-59625000D02*
X54675000Y-59625000D01*
X73725000Y-40575000D02*
X73725000Y-54675000D01*
X59625000Y-54675000D02*
X59625000Y-40575000D01*
X59625000Y-40575000D02*
X73725000Y-40575000D01*
X73725000Y-54675000D02*
X59625000Y-54675000D01*
X59625000Y-21525000D02*
X73725000Y-21525000D01*
X73725000Y-35625000D02*
X59625000Y-35625000D01*
X73725000Y-21525000D02*
X73725000Y-35625000D01*
X59625000Y-35625000D02*
X59625000Y-21525000D01*
X59625000Y-73725000D02*
X59625000Y-59625000D01*
X73725000Y-73725000D02*
X59625000Y-73725000D01*
X73725000Y-59625000D02*
X73725000Y-73725000D01*
X59625000Y-59625000D02*
X73725000Y-59625000D01*
X73725000Y-92775000D02*
X59625000Y-92775000D01*
X73725000Y-78675000D02*
X73725000Y-92775000D01*
X59625000Y-92775000D02*
X59625000Y-78675000D01*
X59625000Y-78675000D02*
X73725000Y-78675000D01*
X78675000Y-40575000D02*
X92775000Y-40575000D01*
X92775000Y-54675000D02*
X78675000Y-54675000D01*
X78675000Y-54675000D02*
X78675000Y-40575000D01*
X92775000Y-40575000D02*
X92775000Y-54675000D01*
X92775000Y-35625000D02*
X78675000Y-35625000D01*
X78675000Y-35625000D02*
X78675000Y-21525000D01*
X78675000Y-21525000D02*
X92775000Y-21525000D01*
X92775000Y-21525000D02*
X92775000Y-35625000D01*
X92775000Y-59625000D02*
X92775000Y-73725000D01*
X92775000Y-73725000D02*
X78675000Y-73725000D01*
X78675000Y-59625000D02*
X92775000Y-59625000D01*
X78675000Y-73725000D02*
X78675000Y-59625000D01*
X59625000Y-97725000D02*
X73725000Y-97725000D01*
X73725000Y-97725000D02*
X73725000Y-111825000D01*
X59625000Y-111825000D02*
X59625000Y-97725000D01*
X73725000Y-111825000D02*
X59625000Y-111825000D01*
X102487500Y-54675000D02*
X102487500Y-40575000D01*
X116587500Y-40575000D02*
X116587500Y-54675000D01*
X116587500Y-54675000D02*
X102487500Y-54675000D01*
X102487500Y-40575000D02*
X116587500Y-40575000D01*
X169162500Y-92775000D02*
X169162500Y-78675000D01*
X169162500Y-78675000D02*
X183262500Y-78675000D01*
X183262500Y-78675000D02*
X183262500Y-92775000D01*
X183262500Y-92775000D02*
X169162500Y-92775000D01*
X102487500Y-59625000D02*
X116587500Y-59625000D01*
X102487500Y-73725000D02*
X102487500Y-59625000D01*
X116587500Y-59625000D02*
X116587500Y-73725000D01*
X116587500Y-73725000D02*
X102487500Y-73725000D01*
X150112500Y-92775000D02*
X150112500Y-78675000D01*
X164212500Y-92775000D02*
X150112500Y-92775000D01*
X150112500Y-78675000D02*
X164212500Y-78675000D01*
X164212500Y-78675000D02*
X164212500Y-92775000D01*
X159450000Y-54675000D02*
X145350000Y-54675000D01*
X159450000Y-40575000D02*
X159450000Y-54675000D01*
X145350000Y-54675000D02*
X145350000Y-40575000D01*
X145350000Y-40575000D02*
X159450000Y-40575000D01*
X159450000Y-73725000D02*
X145350000Y-73725000D01*
X145350000Y-73725000D02*
X145350000Y-59625000D01*
X159450000Y-59625000D02*
X159450000Y-73725000D01*
X145350000Y-59625000D02*
X159450000Y-59625000D01*
X102487500Y-21525000D02*
X116587500Y-21525000D01*
X116587500Y-21525000D02*
X116587500Y-35625000D01*
X102487500Y-35625000D02*
X102487500Y-21525000D01*
X116587500Y-35625000D02*
X102487500Y-35625000D01*
X135637500Y-21525000D02*
X135637500Y-35625000D01*
X121537500Y-21525000D02*
X135637500Y-21525000D01*
X135637500Y-35625000D02*
X121537500Y-35625000D01*
X121537500Y-35625000D02*
X121537500Y-21525000D01*
X183450000Y-59625000D02*
X197550000Y-59625000D01*
X197550000Y-59625000D02*
X197550000Y-73725000D01*
X197550000Y-73725000D02*
X183450000Y-73725000D01*
X183450000Y-73725000D02*
X183450000Y-59625000D01*
X188212500Y-92775000D02*
X188212500Y-78675000D01*
X188212500Y-78675000D02*
X202312500Y-78675000D01*
X202312500Y-92775000D02*
X188212500Y-92775000D01*
X202312500Y-78675000D02*
X202312500Y-92775000D01*
X192787500Y-21525000D02*
X192787500Y-35625000D01*
X178687500Y-35625000D02*
X178687500Y-21525000D01*
X192787500Y-35625000D02*
X178687500Y-35625000D01*
X178687500Y-21525000D02*
X192787500Y-21525000D01*
X202500000Y-40575000D02*
X216600000Y-40575000D01*
X216600000Y-54675000D02*
X202500000Y-54675000D01*
X202500000Y-54675000D02*
X202500000Y-40575000D01*
X216600000Y-40575000D02*
X216600000Y-54675000D01*
X173737500Y-35625000D02*
X159637500Y-35625000D01*
X159637500Y-35625000D02*
X159637500Y-21525000D01*
X159637500Y-21525000D02*
X173737500Y-21525000D01*
X173737500Y-21525000D02*
X173737500Y-35625000D01*
X164400000Y-59625000D02*
X178500000Y-59625000D01*
X164400000Y-73725000D02*
X164400000Y-59625000D01*
X178500000Y-59625000D02*
X178500000Y-73725000D01*
X178500000Y-73725000D02*
X164400000Y-73725000D01*
X154687500Y-21525000D02*
X154687500Y-35625000D01*
X140587500Y-21525000D02*
X154687500Y-21525000D01*
X140587500Y-35625000D02*
X140587500Y-21525000D01*
X154687500Y-35625000D02*
X140587500Y-35625000D01*
X207262500Y-78675000D02*
X221362500Y-78675000D01*
X207262500Y-92775000D02*
X207262500Y-78675000D01*
X221362500Y-92775000D02*
X207262500Y-92775000D01*
X221362500Y-78675000D02*
X221362500Y-92775000D01*
X178500000Y-40575000D02*
X178500000Y-54675000D01*
X164400000Y-54675000D02*
X164400000Y-40575000D01*
X178500000Y-54675000D02*
X164400000Y-54675000D01*
X164400000Y-40575000D02*
X178500000Y-40575000D01*
X216600000Y-59625000D02*
X216600000Y-73725000D01*
X202500000Y-59625000D02*
X216600000Y-59625000D01*
X216600000Y-73725000D02*
X202500000Y-73725000D01*
X202500000Y-73725000D02*
X202500000Y-59625000D01*
X183450000Y-54675000D02*
X183450000Y-40575000D01*
X197550000Y-54675000D02*
X183450000Y-54675000D01*
X183450000Y-40575000D02*
X197550000Y-40575000D01*
X197550000Y-40575000D02*
X197550000Y-54675000D01*
X197737500Y-21525000D02*
X211837500Y-21525000D01*
X211837500Y-35625000D02*
X197737500Y-35625000D01*
X211837500Y-21525000D02*
X211837500Y-35625000D01*
X197737500Y-35625000D02*
X197737500Y-21525000D01*
X307275000Y-21525000D02*
X321375000Y-21525000D01*
X321375000Y-35625000D02*
X307275000Y-35625000D01*
X307275000Y-35625000D02*
X307275000Y-21525000D01*
X321375000Y-21525000D02*
X321375000Y-35625000D01*
X321375000Y-40575000D02*
X321375000Y-54675000D01*
X307275000Y-54675000D02*
X307275000Y-40575000D01*
X307275000Y-40575000D02*
X321375000Y-40575000D01*
X321375000Y-54675000D02*
X307275000Y-54675000D01*
X307275000Y-59625000D02*
X321375000Y-59625000D01*
X321375000Y-73725000D02*
X307275000Y-73725000D01*
X321375000Y-59625000D02*
X321375000Y-73725000D01*
X307275000Y-73725000D02*
X307275000Y-59625000D01*
X302325000Y-78675000D02*
X302325000Y-92775000D01*
X302325000Y-92775000D02*
X288225000Y-92775000D01*
X288225000Y-92775000D02*
X288225000Y-78675000D01*
X288225000Y-78675000D02*
X302325000Y-78675000D01*
X288225000Y-35625000D02*
X288225000Y-21525000D01*
X302325000Y-21525000D02*
X302325000Y-35625000D01*
X302325000Y-35625000D02*
X288225000Y-35625000D01*
X288225000Y-21525000D02*
X302325000Y-21525000D01*
X283275000Y-111825000D02*
X269175000Y-111825000D01*
X283275000Y-97725000D02*
X283275000Y-111825000D01*
X269175000Y-97725000D02*
X283275000Y-97725000D01*
X269175000Y-111825000D02*
X269175000Y-97725000D01*
X302325000Y-97725000D02*
X302325000Y-111825000D01*
X288225000Y-111825000D02*
X288225000Y-97725000D01*
X288225000Y-97725000D02*
X302325000Y-97725000D01*
X302325000Y-111825000D02*
X288225000Y-111825000D01*
X140587500Y-111825000D02*
X140587500Y-97725000D01*
X154687500Y-111825000D02*
X140587500Y-111825000D01*
X154687500Y-97725000D02*
X154687500Y-111825000D01*
X140587500Y-97725000D02*
X154687500Y-97725000D01*
X162018750Y-111825000D02*
X162018750Y-97725000D01*
X176118750Y-97725000D02*
X176118750Y-111825000D01*
X176118750Y-111825000D02*
X162018750Y-111825000D01*
X162018750Y-97725000D02*
X176118750Y-97725000D01*
X185831250Y-111825000D02*
X185831250Y-97725000D01*
X185831250Y-97725000D02*
X199931250Y-97725000D01*
X199931250Y-111825000D02*
X185831250Y-111825000D01*
X199931250Y-97725000D02*
X199931250Y-111825000D01*
X221362500Y-97725000D02*
X221362500Y-111825000D01*
X221362500Y-111825000D02*
X207262500Y-111825000D01*
X207262500Y-111825000D02*
X207262500Y-97725000D01*
X207262500Y-97725000D02*
X221362500Y-97725000D01*
D12*
X17175000Y-21550000D02*
G75*
G03*
X17175000Y-21550000I-1100000J0D01*
G01*
X17175000Y-66650000D02*
G75*
G03*
X17175000Y-66650000I-1100000J0D01*
G01*
X17175000Y-111750000D02*
G75*
G03*
X17175000Y-111750000I-1100000J0D01*
G01*
X327925000Y-21550000D02*
G75*
G03*
X327925000Y-21550000I-1100000J0D01*
G01*
X327925000Y-66650000D02*
G75*
G03*
X327925000Y-66650000I-1100000J0D01*
G01*
X327925000Y-111750000D02*
G75*
G03*
X327925000Y-111750000I-1100000J0D01*
G01*
D11*
X21525000Y-97725000D02*
X35625000Y-97725000D01*
X35625000Y-97725000D02*
X35625000Y-111825000D01*
X35625000Y-111825000D02*
X21525000Y-111825000D01*
X21525000Y-111825000D02*
X21525000Y-97725000D01*
X226312500Y-97725000D02*
X240412500Y-97725000D01*
X240412500Y-97725000D02*
X240412500Y-111825000D01*
X226312500Y-111825000D02*
X226312500Y-97725000D01*
X240412500Y-111825000D02*
X226312500Y-111825000D01*
X269175000Y-54675000D02*
X269175000Y-40575000D01*
X283275000Y-54675000D02*
X269175000Y-54675000D01*
X269175000Y-40575000D02*
X283275000Y-40575000D01*
X283275000Y-40575000D02*
X283275000Y-54675000D01*
X21525000Y-78675000D02*
X35625000Y-78675000D01*
X35625000Y-78675000D02*
X35625000Y-92775000D01*
X35625000Y-92775000D02*
X21525000Y-92775000D01*
X21525000Y-92775000D02*
X21525000Y-78675000D01*
X35625000Y-59625000D02*
X35625000Y-73725000D01*
X21525000Y-73725000D02*
X21525000Y-59625000D01*
X21525000Y-59625000D02*
X35625000Y-59625000D01*
X35625000Y-73725000D02*
X21525000Y-73725000D01*
X221550000Y-73725000D02*
X221550000Y-59625000D01*
X221550000Y-59625000D02*
X235650000Y-59625000D01*
X235650000Y-73725000D02*
X221550000Y-73725000D01*
X235650000Y-59625000D02*
X235650000Y-73725000D01*
X123918750Y-59625000D02*
X138018750Y-59625000D01*
X138018750Y-59625000D02*
X138018750Y-73725000D01*
X138018750Y-73725000D02*
X123918750Y-73725000D01*
X123918750Y-73725000D02*
X123918750Y-59625000D01*
X35625000Y-54675000D02*
X21525000Y-54675000D01*
X21525000Y-40575000D02*
X35625000Y-40575000D01*
X35625000Y-40575000D02*
X35625000Y-54675000D01*
X21525000Y-54675000D02*
X21525000Y-40575000D01*
X250125000Y-35625000D02*
X250125000Y-21525000D01*
X264225000Y-21525000D02*
X264225000Y-35625000D01*
X264225000Y-35625000D02*
X250125000Y-35625000D01*
X250125000Y-21525000D02*
X264225000Y-21525000D01*
X283275000Y-92775000D02*
X269175000Y-92775000D01*
X269175000Y-78675000D02*
X283275000Y-78675000D01*
X269175000Y-92775000D02*
X269175000Y-78675000D01*
X283275000Y-78675000D02*
X283275000Y-92775000D01*
D13*
X320325000Y-86850000D02*
X305525000Y-86850000D01*
X320325000Y-79850000D02*
X320325000Y-86850000D01*
D11*
X307275000Y-88200000D02*
X321375000Y-88200000D01*
D13*
X320325000Y-110650000D02*
X320325000Y-103650000D01*
X305525000Y-79850000D02*
X320325000Y-79850000D01*
D11*
X321375000Y-88200000D02*
X321375000Y-102300000D01*
D13*
X305525000Y-103650000D02*
X305525000Y-110650000D01*
D11*
X321375000Y-102300000D02*
X307275000Y-102300000D01*
X307275000Y-102300000D02*
X307275000Y-88200000D01*
D13*
X305525000Y-110650000D02*
X320325000Y-110650000D01*
X305525000Y-86850000D02*
X305525000Y-79850000D01*
X320325000Y-103650000D02*
X305525000Y-103650000D01*
D11*
X138018750Y-40575000D02*
X138018750Y-54675000D01*
X123918750Y-54675000D02*
X123918750Y-40575000D01*
X138018750Y-54675000D02*
X123918750Y-54675000D01*
X123918750Y-40575000D02*
X138018750Y-40575000D01*
X250125000Y-73725000D02*
X250125000Y-59625000D01*
X264225000Y-59625000D02*
X264225000Y-73725000D01*
X250125000Y-59625000D02*
X264225000Y-59625000D01*
X264225000Y-73725000D02*
X250125000Y-73725000D01*
D13*
X241137704Y-47439101D02*
X241137704Y-44239101D01*
X244637704Y-44239101D02*
X244637704Y-47439101D01*
X244637704Y-47439101D02*
X241137704Y-47439101D01*
X241137704Y-44239101D02*
X244637704Y-44239101D01*
X241137704Y-42676597D02*
X241137704Y-39476597D01*
X241137704Y-39476597D02*
X244637704Y-39476597D01*
X244637704Y-39476597D02*
X244637704Y-42676597D01*
X244637704Y-42676597D02*
X241137704Y-42676597D01*
X244637704Y-34714093D02*
X244637704Y-37914093D01*
X241137704Y-37914093D02*
X241137704Y-34714093D01*
X241137704Y-34714093D02*
X244637704Y-34714093D01*
X244637704Y-37914093D02*
X241137704Y-37914093D01*
D11*
X250125000Y-97725000D02*
X264225000Y-97725000D01*
X250125000Y-111825000D02*
X250125000Y-97725000D01*
X264225000Y-111825000D02*
X250125000Y-111825000D01*
X264225000Y-97725000D02*
X264225000Y-111825000D01*
X135637500Y-92775000D02*
X121537500Y-92775000D01*
D13*
X143987500Y-94525000D02*
X143987500Y-79725000D01*
X136987500Y-79725000D02*
X136987500Y-94525000D01*
X113187500Y-94525000D02*
X113187500Y-79725000D01*
X136987500Y-94525000D02*
X143987500Y-94525000D01*
X143987500Y-79725000D02*
X136987500Y-79725000D01*
D11*
X121537500Y-78675000D02*
X135637500Y-78675000D01*
D13*
X113187500Y-79725000D02*
X120187500Y-79725000D01*
D11*
X135637500Y-78675000D02*
X135637500Y-92775000D01*
D13*
X120187500Y-94525000D02*
X113187500Y-94525000D01*
D11*
X121537500Y-92775000D02*
X121537500Y-78675000D01*
D13*
X120187500Y-79725000D02*
X120187500Y-94525000D01*
D11*
X216787500Y-35625000D02*
X216787500Y-21525000D01*
X230887500Y-21525000D02*
X230887500Y-35625000D01*
X216787500Y-21525000D02*
X230887500Y-21525000D01*
X230887500Y-35625000D02*
X216787500Y-35625000D01*
X302325000Y-54675000D02*
X288225000Y-54675000D01*
X288225000Y-40575000D02*
X302325000Y-40575000D01*
X302325000Y-40575000D02*
X302325000Y-54675000D01*
X288225000Y-54675000D02*
X288225000Y-40575000D01*
D13*
X244637704Y-52201605D02*
X241137704Y-52201605D01*
X244637704Y-49001605D02*
X244637704Y-52201605D01*
X241137704Y-49001605D02*
X244637704Y-49001605D01*
X241137704Y-52201605D02*
X241137704Y-49001605D01*
D11*
X269175000Y-73725000D02*
X269175000Y-59625000D01*
X269175000Y-59625000D02*
X283275000Y-59625000D01*
X283275000Y-59625000D02*
X283275000Y-73725000D01*
X283275000Y-73725000D02*
X269175000Y-73725000D01*
X264225000Y-54675000D02*
X250125000Y-54675000D01*
X250125000Y-54675000D02*
X250125000Y-40575000D01*
X250125000Y-40575000D02*
X264225000Y-40575000D01*
X264225000Y-40575000D02*
X264225000Y-54675000D01*
X226312500Y-78675000D02*
X240412500Y-78675000D01*
X226312500Y-92775000D02*
X226312500Y-78675000D01*
X240412500Y-92775000D02*
X226312500Y-92775000D01*
X240412500Y-78675000D02*
X240412500Y-92775000D01*
D13*
X76925000Y-86850000D02*
X76925000Y-79850000D01*
X91725000Y-103650000D02*
X76925000Y-103650000D01*
X76925000Y-110650000D02*
X91725000Y-110650000D01*
D11*
X92775000Y-88200000D02*
X92775000Y-102300000D01*
X78675000Y-88200000D02*
X92775000Y-88200000D01*
D13*
X91725000Y-86850000D02*
X76925000Y-86850000D01*
X91725000Y-79850000D02*
X91725000Y-86850000D01*
X76925000Y-79850000D02*
X91725000Y-79850000D01*
X76925000Y-103650000D02*
X76925000Y-110650000D01*
X91725000Y-110650000D02*
X91725000Y-103650000D01*
D11*
X92775000Y-102300000D02*
X78675000Y-102300000D01*
X78675000Y-102300000D02*
X78675000Y-88200000D01*
X221550000Y-40575000D02*
X235650000Y-40575000D01*
X235650000Y-40575000D02*
X235650000Y-54675000D01*
X221550000Y-54675000D02*
X221550000Y-40575000D01*
X235650000Y-54675000D02*
X221550000Y-54675000D01*
X250125000Y-92775000D02*
X250125000Y-78675000D01*
X264225000Y-92775000D02*
X250125000Y-92775000D01*
X250125000Y-78675000D02*
X264225000Y-78675000D01*
X264225000Y-78675000D02*
X264225000Y-92775000D01*
X269175000Y-35625000D02*
X269175000Y-21525000D01*
X269175000Y-21525000D02*
X283275000Y-21525000D01*
X283275000Y-35625000D02*
X269175000Y-35625000D01*
X283275000Y-21525000D02*
X283275000Y-35625000D01*
X116775000Y-111825000D02*
X116775000Y-97725000D01*
X130875000Y-97725000D02*
X130875000Y-111825000D01*
X116775000Y-97725000D02*
X130875000Y-97725000D01*
X130875000Y-111825000D02*
X116775000Y-111825000D01*
X302325000Y-59625000D02*
X302325000Y-73725000D01*
X288225000Y-73725000D02*
X288225000Y-59625000D01*
X288225000Y-59625000D02*
X302325000Y-59625000D01*
X302325000Y-73725000D02*
X288225000Y-73725000D01*
M02*
