M48
; DRILL file {KiCad (6.0.0)} date Sun Jan  2 17:56:43 2022
; FORMAT={-:-/ absolute / inch / decimal}
; #@! TF.CreationDate,2022-01-02T17:56:43+09:00
; #@! TF.GenerationSoftware,Kicad,Pcbnew,(6.0.0)
; #@! TF.FileFunction,NonPlated,1,2,NPTH
FMAT,2
INCH
; #@! TA.AperFunction,NonPlated,NPTH,ComponentDrill
T1C0.0709
; #@! TA.AperFunction,NonPlated,NPTH,ComponentDrill
T2C0.0787
; #@! TA.AperFunction,NonPlated,NPTH,ComponentDrill
T3C0.1181
; #@! TA.AperFunction,NonPlated,NPTH,ComponentDrill
T4C0.1201
; #@! TA.AperFunction,NonPlated,NPTH,ComponentDrill
T5C0.1575
%
G90
G05
T1
X3.375Y-3.55
X3.375Y-3.95
X4.8625Y-3.375
X5.2625Y-3.375
X12.375Y-3.55
X12.375Y-3.95
T2
X0.925Y-1.875
X0.925Y-2.625
X0.925Y-3.375
X0.925Y-4.125
X1.325Y-1.875
X1.325Y-2.625
X1.325Y-3.375
X1.325Y-4.125
X1.675Y-1.125
X1.675Y-1.875
X1.675Y-2.625
X1.675Y-3.375
X1.675Y-4.125
X2.075Y-1.125
X2.075Y-1.875
X2.075Y-2.625
X2.075Y-3.375
X2.075Y-4.125
X2.425Y-1.125
X2.425Y-1.875
X2.425Y-2.625
X2.425Y-3.375
X2.425Y-4.125
X2.825Y-1.125
X2.825Y-1.875
X2.825Y-2.625
X2.825Y-3.375
X2.825Y-4.125
X3.175Y-1.875
X3.175Y-2.625
X3.175Y-1.125
X3.575Y-1.875
X3.575Y-2.625
X3.575Y-1.125
X4.1125Y-1.125
X4.1125Y-1.875
X4.1125Y-2.625
X4.5125Y-1.125
X4.5125Y-1.875
X4.5125Y-2.625
X4.675Y-4.125
X4.8625Y-1.125
X4.9562Y-1.875
X4.9562Y-2.625
X5.075Y-4.125
X5.2625Y-1.125
X5.3563Y-1.875
X5.3563Y-2.625
X5.6125Y-1.125
X5.6125Y-4.125
X5.8Y-1.875
X5.8Y-2.625
X5.9875Y-3.375
X6.0125Y-1.125
X6.0125Y-4.125
X6.2Y-1.875
X6.2Y-2.625
X6.3625Y-1.125
X6.3875Y-3.375
X6.4562Y-4.125
X6.55Y-1.875
X6.55Y-2.625
X6.7375Y-3.375
X6.7625Y-1.125
X6.8563Y-4.125
X6.95Y-1.875
X6.95Y-2.625
X7.1125Y-1.125
X7.1375Y-3.375
X7.3Y-1.875
X7.3Y-2.625
X7.3937Y-4.125
X7.4875Y-3.375
X7.5125Y-1.125
X7.7Y-1.875
X7.7Y-2.625
X7.7938Y-4.125
X7.8625Y-1.125
X7.8875Y-3.375
X8.05Y-1.875
X8.05Y-2.625
X8.2375Y-3.375
X8.2375Y-4.125
X8.2625Y-1.125
X8.45Y-1.875
X8.45Y-2.625
X8.6125Y-1.125
X8.6375Y-3.375
X8.6375Y-4.125
X8.8Y-1.875
X8.8Y-2.625
X8.9875Y-3.375
X8.9875Y-4.125
X9.0125Y-1.125
X9.2Y-1.875
X9.2Y-2.625
X9.3875Y-3.375
X9.3875Y-4.125
X9.925Y-1.125
X9.925Y-1.875
X9.925Y-2.625
X9.925Y-3.375
X9.925Y-4.125
X10.325Y-1.125
X10.325Y-1.875
X10.325Y-2.625
X10.325Y-3.375
X10.325Y-4.125
X10.675Y-1.125
X10.675Y-1.875
X10.675Y-2.625
X10.675Y-3.375
X10.675Y-4.125
X11.075Y-1.125
X11.075Y-1.875
X11.075Y-2.625
X11.075Y-3.375
X11.075Y-4.125
X11.425Y-1.125
X11.425Y-1.875
X11.425Y-2.625
X11.425Y-3.375
X11.425Y-4.125
X11.825Y-1.125
X11.825Y-1.875
X11.825Y-2.625
X11.825Y-3.375
X11.825Y-4.125
X12.175Y-1.125
X12.175Y-1.875
X12.175Y-2.625
X12.575Y-1.125
X12.575Y-1.875
X12.575Y-2.625
T3
X0.975Y-1.775
X0.975Y-2.525
X0.975Y-3.275
X0.975Y-4.025
X1.225Y-1.675
X1.225Y-2.425
X1.225Y-3.175
X1.225Y-3.925
X1.725Y-1.025
X1.725Y-1.775
X1.725Y-2.525
X1.725Y-3.275
X1.725Y-4.025
X1.975Y-0.925
X1.975Y-1.675
X1.975Y-2.425
X1.975Y-3.175
X1.975Y-3.925
X2.475Y-1.025
X2.475Y-1.775
X2.475Y-2.525
X2.475Y-3.275
X2.475Y-4.025
X2.725Y-0.925
X2.725Y-1.675
X2.725Y-2.425
X2.725Y-3.175
X2.725Y-3.925
X3.225Y-1.775
X3.225Y-2.525
X3.225Y-1.025
X3.475Y-1.675
X3.475Y-2.425
X3.475Y-3.6
X3.475Y-0.925
X3.575Y-3.85
X4.1625Y-1.025
X4.1625Y-1.775
X4.1625Y-2.525
X4.4125Y-0.925
X4.4125Y-1.675
X4.4125Y-2.425
X4.725Y-4.025
X4.9125Y-1.025
X4.9125Y-3.275
X4.975Y-3.925
X5.0062Y-1.775
X5.0062Y-2.525
X5.1625Y-0.925
X5.1625Y-3.175
X5.2562Y-1.675
X5.2562Y-2.425
X5.6625Y-1.025
X5.6625Y-4.025
X5.85Y-1.775
X5.85Y-2.525
X5.9125Y-0.925
X5.9125Y-3.925
X6.0375Y-3.275
X6.1Y-1.675
X6.1Y-2.425
X6.2875Y-3.175
X6.4125Y-1.025
X6.5062Y-4.025
X6.6Y-1.775
X6.6Y-2.525
X6.6625Y-0.925
X6.7562Y-3.925
X6.7875Y-3.275
X6.85Y-1.675
X6.85Y-2.425
X7.0375Y-3.175
X7.1625Y-1.025
X7.35Y-1.775
X7.35Y-2.525
X7.4125Y-0.925
X7.4437Y-4.025
X7.5375Y-3.275
X7.6Y-1.675
X7.6Y-2.425
X7.6937Y-3.925
X7.7875Y-3.175
X7.9125Y-1.025
X8.1Y-1.775
X8.1Y-2.525
X8.1625Y-0.925
X8.2875Y-3.275
X8.2875Y-4.025
X8.35Y-1.675
X8.35Y-2.425
X8.5375Y-3.175
X8.5375Y-3.925
X8.6625Y-1.025
X8.85Y-1.775
X8.85Y-2.525
X8.9125Y-0.925
X9.0375Y-3.275
X9.0375Y-4.025
X9.1Y-1.675
X9.1Y-2.425
X9.2875Y-3.175
X9.2875Y-3.925
X9.975Y-1.025
X9.975Y-1.775
X9.975Y-2.525
X9.975Y-3.275
X9.975Y-4.025
X10.225Y-0.925
X10.225Y-1.675
X10.225Y-2.425
X10.225Y-3.175
X10.225Y-3.925
X10.725Y-1.025
X10.725Y-1.775
X10.725Y-2.525
X10.725Y-3.275
X10.725Y-4.025
X10.975Y-0.925
X10.975Y-1.675
X10.975Y-2.425
X10.975Y-3.175
X10.975Y-3.925
X11.475Y-1.025
X11.475Y-1.775
X11.475Y-2.525
X11.475Y-3.275
X11.475Y-4.025
X11.725Y-0.925
X11.725Y-1.675
X11.725Y-2.425
X11.725Y-3.175
X11.725Y-3.925
X12.225Y-1.025
X12.225Y-1.775
X12.225Y-2.525
X12.475Y-0.925
X12.475Y-1.675
X12.475Y-2.425
X12.475Y-3.6
X12.575Y-3.85
T4
X3.6506Y-3.2815
X3.6506Y-4.2185
X4.594Y-3.0994
X5.531Y-3.0994
X12.6506Y-3.2815
X12.6506Y-4.2185
T5
X1.125Y-1.875
X1.125Y-2.625
X1.125Y-3.375
X1.125Y-4.125
X1.875Y-1.125
X1.875Y-1.875
X1.875Y-2.625
X1.875Y-3.375
X1.875Y-4.125
X2.625Y-1.125
X2.625Y-1.875
X2.625Y-2.625
X2.625Y-3.375
X2.625Y-4.125
X3.0506Y-3.2815
X3.0506Y-4.2185
X3.375Y-1.875
X3.375Y-2.625
X3.375Y-3.75
X3.375Y-1.125
X4.3125Y-1.125
X4.3125Y-1.875
X4.3125Y-2.625
X4.594Y-3.6994
X4.875Y-4.125
X5.0625Y-1.125
X5.0625Y-3.375
X5.1562Y-1.875
X5.1562Y-2.625
X5.531Y-3.6994
X5.8125Y-1.125
X5.8125Y-4.125
X6.0Y-1.875
X6.0Y-2.625
X6.1875Y-3.375
X6.5625Y-1.125
X6.6562Y-4.125
X6.75Y-1.875
X6.75Y-2.625
X6.9375Y-3.375
X7.3125Y-1.125
X7.5Y-1.875
X7.5Y-2.625
X7.5938Y-4.125
X7.6875Y-3.375
X8.0625Y-1.125
X8.25Y-1.875
X8.25Y-2.625
X8.4375Y-3.375
X8.4375Y-4.125
X8.8125Y-1.125
X9.0Y-1.875
X9.0Y-2.625
X9.1875Y-3.375
X9.1875Y-4.125
X10.125Y-1.125
X10.125Y-1.875
X10.125Y-2.625
X10.125Y-3.375
X10.125Y-4.125
X10.875Y-1.125
X10.875Y-1.875
X10.875Y-2.625
X10.875Y-3.375
X10.875Y-4.125
X11.625Y-1.125
X11.625Y-1.875
X11.625Y-2.625
X11.625Y-3.375
X11.625Y-4.125
X12.0506Y-3.2815
X12.0506Y-4.2185
X12.375Y-1.125
X12.375Y-1.875
X12.375Y-2.625
X12.375Y-3.75
T0
M30
