G04 #@! TF.GenerationSoftware,KiCad,Pcbnew,(6.0.0)*
G04 #@! TF.CreationDate,2022-01-02T20:35:14+09:00*
G04 #@! TF.ProjectId,TwENkey,5477454e-6b65-4792-9e6b-696361645f70,rev?*
G04 #@! TF.SameCoordinates,Original*
G04 #@! TF.FileFunction,Soldermask,Bot*
G04 #@! TF.FilePolarity,Negative*
%FSLAX46Y46*%
G04 Gerber Fmt 4.6, Leading zero omitted, Abs format (unit mm)*
G04 Created by KiCad (PCBNEW (6.0.0)) date 2022-01-02 20:35:14*
%MOMM*%
%LPD*%
G01*
G04 APERTURE LIST*
%ADD10O,1.300000X2.200000*%
%ADD11C,1.210000*%
%ADD12C,2.000000*%
%ADD13R,3.200000X2.500000*%
%ADD14C,3.000000*%
%ADD15C,4.000000*%
%ADD16R,3.300000X3.000000*%
%ADD17R,1.397000X1.397000*%
%ADD18R,0.950000X1.300000*%
%ADD19C,1.397000*%
%ADD20R,2.500000X0.820000*%
%ADD21R,3.000000X3.300000*%
%ADD22C,1.800000*%
%ADD23C,3.050000*%
%ADD24C,1.524000*%
%ADD25O,1.500000X1.500000*%
G04 APERTURE END LIST*
D10*
X234636520Y-23814824D03*
X234636520Y-20814824D03*
X238636520Y-29314824D03*
X234636520Y-27814824D03*
D11*
X236636520Y-19014824D03*
X236636520Y-26014824D03*
D12*
X21075000Y-26075000D03*
X21075000Y-31075000D03*
X21075000Y-28575000D03*
D13*
X28575000Y-22975000D03*
X28575000Y-34175000D03*
D12*
X35575000Y-31075000D03*
X35575000Y-26075000D03*
X33655000Y-104775000D03*
D14*
X31115000Y-99695000D03*
D12*
X23495000Y-104775000D03*
D14*
X24765000Y-102235000D03*
D15*
X28575000Y-104775000D03*
D16*
X21125000Y-102195000D03*
X34725000Y-99655000D03*
X53775000Y-42505000D03*
X40175000Y-45045000D03*
D12*
X52705000Y-47625000D03*
D14*
X50165000Y-42545000D03*
D12*
X42545000Y-47625000D03*
D14*
X43815000Y-45085000D03*
D15*
X47625000Y-47625000D03*
D16*
X53775000Y-99655000D03*
X40175000Y-102195000D03*
D12*
X42545000Y-104775000D03*
D14*
X50165000Y-99695000D03*
D15*
X47625000Y-104775000D03*
D12*
X52705000Y-104775000D03*
D14*
X43815000Y-102235000D03*
D16*
X53775000Y-23455000D03*
X40175000Y-25995000D03*
D12*
X52705000Y-28575000D03*
D14*
X50165000Y-23495000D03*
X43815000Y-26035000D03*
D12*
X42545000Y-28575000D03*
D15*
X47625000Y-28575000D03*
D16*
X53775000Y-80605000D03*
X40175000Y-83145000D03*
D15*
X47625000Y-85725000D03*
D12*
X52705000Y-85725000D03*
D14*
X43815000Y-83185000D03*
X50165000Y-80645000D03*
D12*
X42545000Y-85725000D03*
D16*
X53775000Y-61555000D03*
X40175000Y-64095000D03*
D15*
X47625000Y-66675000D03*
D12*
X42545000Y-66675000D03*
X52705000Y-66675000D03*
D14*
X50165000Y-61595000D03*
X43815000Y-64135000D03*
D16*
X72825000Y-42505000D03*
X59225000Y-45045000D03*
D14*
X62865000Y-45085000D03*
D12*
X61595000Y-47625000D03*
X71755000Y-47625000D03*
D14*
X69215000Y-42545000D03*
D15*
X66675000Y-47625000D03*
D16*
X72825000Y-23455000D03*
X59225000Y-25995000D03*
D14*
X62865000Y-26035000D03*
D12*
X61595000Y-28575000D03*
D14*
X69215000Y-23495000D03*
D15*
X66675000Y-28575000D03*
D12*
X71755000Y-28575000D03*
D16*
X72825000Y-61555000D03*
X59225000Y-64095000D03*
D12*
X61595000Y-66675000D03*
D14*
X69215000Y-61595000D03*
X62865000Y-64135000D03*
D12*
X71755000Y-66675000D03*
D15*
X66675000Y-66675000D03*
D16*
X72825000Y-80605000D03*
X59225000Y-83145000D03*
D12*
X71755000Y-85725000D03*
D14*
X62865000Y-83185000D03*
X69215000Y-80645000D03*
D15*
X66675000Y-85725000D03*
D12*
X61595000Y-85725000D03*
D16*
X91875000Y-42505000D03*
X78275000Y-45045000D03*
D12*
X90805000Y-47625000D03*
X80645000Y-47625000D03*
D14*
X81915000Y-45085000D03*
D15*
X85725000Y-47625000D03*
D14*
X88265000Y-42545000D03*
D16*
X91875000Y-61555000D03*
X78275000Y-64095000D03*
D14*
X81915000Y-64135000D03*
X88265000Y-61595000D03*
D15*
X85725000Y-66675000D03*
D12*
X80645000Y-66675000D03*
X90805000Y-66675000D03*
D16*
X72825000Y-99655000D03*
X59225000Y-102195000D03*
D12*
X71755000Y-104775000D03*
D14*
X62865000Y-102235000D03*
D12*
X61595000Y-104775000D03*
D15*
X66675000Y-104775000D03*
D14*
X69215000Y-99695000D03*
D16*
X115687500Y-42505000D03*
X102087500Y-45045000D03*
D14*
X112077500Y-42545000D03*
D12*
X104457500Y-47625000D03*
X114617500Y-47625000D03*
D15*
X109537500Y-47625000D03*
D14*
X105727500Y-45085000D03*
D16*
X182362500Y-80605000D03*
X168762500Y-83145000D03*
D12*
X171132500Y-85725000D03*
D15*
X176212500Y-85725000D03*
D14*
X172402500Y-83185000D03*
D12*
X181292500Y-85725000D03*
D14*
X178752500Y-80645000D03*
D16*
X115687500Y-61555000D03*
X102087500Y-64095000D03*
D12*
X114617500Y-66675000D03*
D14*
X105727500Y-64135000D03*
D15*
X109537500Y-66675000D03*
D12*
X104457500Y-66675000D03*
D14*
X112077500Y-61595000D03*
D16*
X163312500Y-80605000D03*
X149712500Y-83145000D03*
D14*
X159702500Y-80645000D03*
D15*
X157162500Y-85725000D03*
D12*
X152082500Y-85725000D03*
X162242500Y-85725000D03*
D14*
X153352500Y-83185000D03*
D16*
X158550000Y-42505000D03*
X144950000Y-45045000D03*
D15*
X152400000Y-47625000D03*
D12*
X147320000Y-47625000D03*
D14*
X148590000Y-45085000D03*
D12*
X157480000Y-47625000D03*
D14*
X154940000Y-42545000D03*
D16*
X158550000Y-61555000D03*
X144950000Y-64095000D03*
D14*
X148590000Y-64135000D03*
X154940000Y-61595000D03*
D12*
X157480000Y-66675000D03*
X147320000Y-66675000D03*
D15*
X152400000Y-66675000D03*
D16*
X115687500Y-23455000D03*
X102087500Y-25995000D03*
D12*
X114617500Y-28575000D03*
D14*
X105727500Y-26035000D03*
D12*
X104457500Y-28575000D03*
D14*
X112077500Y-23495000D03*
D15*
X109537500Y-28575000D03*
D16*
X134737500Y-23455000D03*
X121137500Y-25995000D03*
D14*
X131127500Y-23495000D03*
D12*
X133667500Y-28575000D03*
D14*
X124777500Y-26035000D03*
D15*
X128587500Y-28575000D03*
D12*
X123507500Y-28575000D03*
D16*
X196650000Y-61555000D03*
X183050000Y-64095000D03*
D14*
X193040000Y-61595000D03*
D12*
X185420000Y-66675000D03*
D15*
X190500000Y-66675000D03*
D14*
X186690000Y-64135000D03*
D12*
X195580000Y-66675000D03*
D16*
X201412500Y-80605000D03*
X187812500Y-83145000D03*
D14*
X191452500Y-83185000D03*
D12*
X200342500Y-85725000D03*
D14*
X197802500Y-80645000D03*
D15*
X195262500Y-85725000D03*
D12*
X190182500Y-85725000D03*
D16*
X191887500Y-23455000D03*
X178287500Y-25995000D03*
D14*
X188277500Y-23495000D03*
X181927500Y-26035000D03*
D12*
X180657500Y-28575000D03*
X190817500Y-28575000D03*
D15*
X185737500Y-28575000D03*
D16*
X215700000Y-42505000D03*
X202100000Y-45045000D03*
D12*
X214630000Y-47625000D03*
X204470000Y-47625000D03*
D14*
X205740000Y-45085000D03*
X212090000Y-42545000D03*
D15*
X209550000Y-47625000D03*
D16*
X172837500Y-23455000D03*
X159237500Y-25995000D03*
D12*
X171767500Y-28575000D03*
D15*
X166687500Y-28575000D03*
D14*
X169227500Y-23495000D03*
D12*
X161607500Y-28575000D03*
D14*
X162877500Y-26035000D03*
D16*
X177600000Y-61555000D03*
X164000000Y-64095000D03*
D15*
X171450000Y-66675000D03*
D14*
X167640000Y-64135000D03*
D12*
X166370000Y-66675000D03*
X176530000Y-66675000D03*
D14*
X173990000Y-61595000D03*
D16*
X153787500Y-23455000D03*
X140187500Y-25995000D03*
D12*
X142557500Y-28575000D03*
D14*
X150177500Y-23495000D03*
D15*
X147637500Y-28575000D03*
D12*
X152717500Y-28575000D03*
D14*
X143827500Y-26035000D03*
D16*
X220462500Y-80605000D03*
X206862500Y-83145000D03*
D12*
X219392500Y-85725000D03*
D14*
X216852500Y-80645000D03*
D15*
X214312500Y-85725000D03*
D12*
X209232500Y-85725000D03*
D14*
X210502500Y-83185000D03*
D16*
X177600000Y-42505000D03*
X164000000Y-45045000D03*
D12*
X166370000Y-47625000D03*
D14*
X173990000Y-42545000D03*
D12*
X176530000Y-47625000D03*
D15*
X171450000Y-47625000D03*
D14*
X167640000Y-45085000D03*
D16*
X215700000Y-61555000D03*
X202100000Y-64095000D03*
D12*
X214630000Y-66675000D03*
D15*
X209550000Y-66675000D03*
D14*
X205740000Y-64135000D03*
X212090000Y-61595000D03*
D12*
X204470000Y-66675000D03*
D16*
X196650000Y-42505000D03*
X183050000Y-45045000D03*
D14*
X186690000Y-45085000D03*
D12*
X185420000Y-47625000D03*
X195580000Y-47625000D03*
D14*
X193040000Y-42545000D03*
D15*
X190500000Y-47625000D03*
D16*
X210937500Y-23455000D03*
X197337500Y-25995000D03*
D12*
X209867500Y-28575000D03*
D14*
X200977500Y-26035000D03*
D12*
X199707500Y-28575000D03*
D14*
X207327500Y-23495000D03*
D15*
X204787500Y-28575000D03*
D16*
X320475000Y-23455000D03*
X306875000Y-25995000D03*
D15*
X314325000Y-28575000D03*
D14*
X310515000Y-26035000D03*
D12*
X309245000Y-28575000D03*
D14*
X316865000Y-23495000D03*
D12*
X319405000Y-28575000D03*
D16*
X320475000Y-42505000D03*
X306875000Y-45045000D03*
D15*
X314325000Y-47625000D03*
D12*
X319405000Y-47625000D03*
D14*
X316865000Y-42545000D03*
X310515000Y-45085000D03*
D12*
X309245000Y-47625000D03*
D16*
X320475000Y-61555000D03*
X306875000Y-64095000D03*
D12*
X319405000Y-66675000D03*
D14*
X310515000Y-64135000D03*
D15*
X314325000Y-66675000D03*
D14*
X316865000Y-61595000D03*
D12*
X309245000Y-66675000D03*
D16*
X301425000Y-80605000D03*
X287825000Y-83145000D03*
D15*
X295275000Y-85725000D03*
D14*
X291465000Y-83185000D03*
D12*
X300355000Y-85725000D03*
X290195000Y-85725000D03*
D14*
X297815000Y-80645000D03*
D16*
X301425000Y-23455000D03*
X287825000Y-25995000D03*
D14*
X291465000Y-26035000D03*
X297815000Y-23495000D03*
D12*
X290195000Y-28575000D03*
D15*
X295275000Y-28575000D03*
D12*
X300355000Y-28575000D03*
D16*
X282375000Y-99655000D03*
X268775000Y-102195000D03*
D14*
X278765000Y-99695000D03*
X272415000Y-102235000D03*
D12*
X281305000Y-104775000D03*
D15*
X276225000Y-104775000D03*
D12*
X271145000Y-104775000D03*
D16*
X301425000Y-99655000D03*
X287825000Y-102195000D03*
D15*
X295275000Y-104775000D03*
D12*
X290195000Y-104775000D03*
X300355000Y-104775000D03*
D14*
X291465000Y-102235000D03*
X297815000Y-99695000D03*
D16*
X153787500Y-99655000D03*
X140187500Y-102195000D03*
D14*
X150177500Y-99695000D03*
D15*
X147637500Y-104775000D03*
D12*
X142557500Y-104775000D03*
D14*
X143827500Y-102235000D03*
D12*
X152717500Y-104775000D03*
D16*
X175218750Y-99655000D03*
X161618750Y-102195000D03*
D15*
X169068750Y-104775000D03*
D14*
X171608750Y-99695000D03*
D12*
X163988750Y-104775000D03*
X174148750Y-104775000D03*
D14*
X165258750Y-102235000D03*
D16*
X199031250Y-99655000D03*
X185431250Y-102195000D03*
D14*
X195421250Y-99695000D03*
D15*
X192881250Y-104775000D03*
D14*
X189071250Y-102235000D03*
D12*
X187801250Y-104775000D03*
X197961250Y-104775000D03*
D16*
X220462500Y-99655000D03*
X206862500Y-102195000D03*
D12*
X209232500Y-104775000D03*
D15*
X214312500Y-104775000D03*
D12*
X219392500Y-104775000D03*
D14*
X210502500Y-102235000D03*
X216852500Y-99695000D03*
D17*
X308967447Y-93106950D03*
D18*
X308967447Y-91071950D03*
D19*
X308967447Y-85486950D03*
D18*
X308967447Y-87521950D03*
X183951717Y-91071950D03*
D17*
X183951717Y-93106950D03*
D18*
X183951717Y-87521950D03*
D19*
X183951717Y-85486950D03*
D17*
X200620481Y-112156966D03*
D18*
X200620481Y-110121966D03*
D19*
X200620481Y-104536966D03*
D18*
X200620481Y-106571966D03*
X138707929Y-72021934D03*
D17*
X138707929Y-74056934D03*
D18*
X138707929Y-68471934D03*
D19*
X138707929Y-66436934D03*
D18*
X222051749Y-110121966D03*
D17*
X222051749Y-112156966D03*
D19*
X222051749Y-104536966D03*
D18*
X222051749Y-106571966D03*
D16*
X239512500Y-99655000D03*
X225912500Y-102195000D03*
D12*
X238442500Y-104775000D03*
D14*
X229552500Y-102235000D03*
X235902500Y-99695000D03*
D12*
X228282500Y-104775000D03*
D15*
X233362500Y-104775000D03*
D12*
X270593980Y-37504719D03*
X277093980Y-37504719D03*
D16*
X91875072Y-23455024D03*
X78275072Y-25995024D03*
D15*
X85725072Y-28575024D03*
D14*
X81915072Y-26035024D03*
D12*
X80645072Y-28575024D03*
X90805072Y-28575024D03*
D14*
X88265072Y-23495024D03*
D17*
X303014317Y-93106950D03*
D18*
X303014317Y-91071950D03*
X303014317Y-87521950D03*
D19*
X303014317Y-85486950D03*
D16*
X282375000Y-42505000D03*
X268775000Y-45045000D03*
D15*
X276225000Y-47625000D03*
D14*
X272415000Y-45085000D03*
X278765000Y-42545000D03*
D12*
X271145000Y-47625000D03*
X281305000Y-47625000D03*
D17*
X303014317Y-74056934D03*
D18*
X303014317Y-72021934D03*
D19*
X303014317Y-66436934D03*
D18*
X303014317Y-68471934D03*
D16*
X34725000Y-80605000D03*
X21125000Y-83145000D03*
D14*
X31115000Y-80645000D03*
D15*
X28575000Y-85725000D03*
D12*
X33655000Y-85725000D03*
X23495000Y-85725000D03*
D14*
X24765000Y-83185000D03*
D18*
X193476725Y-33921902D03*
D17*
X193476725Y-35956902D03*
D19*
X193476725Y-28336902D03*
D18*
X193476725Y-30371902D03*
D17*
X236339261Y-74056934D03*
D18*
X236339261Y-72021934D03*
X236339261Y-68471934D03*
D19*
X236339261Y-66436934D03*
D16*
X34725000Y-61555000D03*
X21125000Y-64095000D03*
D12*
X23495000Y-66675000D03*
D14*
X24765000Y-64135000D03*
X31115000Y-61595000D03*
D12*
X33655000Y-66675000D03*
D15*
X28575000Y-66675000D03*
D18*
X93464141Y-72021934D03*
D17*
X93464141Y-74056934D03*
D19*
X93464141Y-66436934D03*
D18*
X93464141Y-68471934D03*
D17*
X264914285Y-74056934D03*
D18*
X264914285Y-72021934D03*
X264914285Y-68471934D03*
D19*
X264914285Y-66436934D03*
D18*
X74414125Y-52971918D03*
D17*
X74414125Y-55006918D03*
D18*
X74414125Y-49421918D03*
D19*
X74414125Y-47386918D03*
D17*
X264914285Y-112156966D03*
D18*
X264914285Y-110121966D03*
D19*
X264914285Y-104536966D03*
D18*
X264914285Y-106571966D03*
D20*
X240037704Y-51351605D03*
X245737704Y-51351605D03*
X245737704Y-49851605D03*
X240037704Y-49851605D03*
D17*
X93464141Y-55006918D03*
D18*
X93464141Y-52971918D03*
D19*
X93464141Y-47386918D03*
D18*
X93464141Y-49421918D03*
D16*
X234750000Y-61555000D03*
X221150000Y-64095000D03*
D12*
X223520000Y-66675000D03*
D15*
X228600000Y-66675000D03*
D12*
X233680000Y-66675000D03*
D14*
X231140000Y-61595000D03*
X224790000Y-64135000D03*
D18*
X55364109Y-91071950D03*
D17*
X55364109Y-93106950D03*
D19*
X55364109Y-85486950D03*
D18*
X55364109Y-87521950D03*
X179189213Y-72021934D03*
D17*
X179189213Y-74056934D03*
D18*
X179189213Y-68471934D03*
D19*
X179189213Y-66436934D03*
D18*
X283964301Y-33921902D03*
D17*
X283964301Y-35956902D03*
D18*
X283964301Y-30371902D03*
D19*
X283964301Y-28336902D03*
D16*
X137118750Y-61555000D03*
X123518750Y-64095000D03*
D15*
X130968750Y-66675000D03*
D14*
X127158750Y-64135000D03*
X133508750Y-61595000D03*
D12*
X136048750Y-66675000D03*
X125888750Y-66675000D03*
D16*
X34725000Y-42505000D03*
X21125000Y-45045000D03*
D14*
X31115000Y-42545000D03*
X24765000Y-45085000D03*
D12*
X23495000Y-47625000D03*
D15*
X28575000Y-47625000D03*
D12*
X33655000Y-47625000D03*
D17*
X231576757Y-35956902D03*
D18*
X231576757Y-33921902D03*
X231576757Y-30371902D03*
D19*
X231576757Y-28336902D03*
D20*
X240037704Y-46589101D03*
X245737704Y-46589101D03*
X245737704Y-45089101D03*
X240037704Y-45089101D03*
D18*
X198239229Y-72021934D03*
D17*
X198239229Y-74056934D03*
D19*
X198239229Y-66436934D03*
D18*
X198239229Y-68471934D03*
D16*
X263325000Y-23455000D03*
X249725000Y-25995000D03*
D15*
X257175000Y-28575000D03*
D14*
X259715000Y-23495000D03*
D12*
X252095000Y-28575000D03*
D14*
X253365000Y-26035000D03*
D12*
X262255000Y-28575000D03*
D18*
X303014317Y-52971918D03*
D17*
X303014317Y-55006918D03*
D19*
X303014317Y-47386918D03*
D18*
X303014317Y-49421918D03*
D16*
X282375000Y-80605000D03*
X268775000Y-83145000D03*
D15*
X276225000Y-85725000D03*
D12*
X271145000Y-85725000D03*
D14*
X278765000Y-80645000D03*
D12*
X281305000Y-85725000D03*
D14*
X272415000Y-83185000D03*
D17*
X212526741Y-35956902D03*
D18*
X212526741Y-33921902D03*
D19*
X212526741Y-28336902D03*
D18*
X212526741Y-30371902D03*
D21*
X319405000Y-101350000D03*
X316865000Y-87850000D03*
D14*
X316865000Y-91440000D03*
D15*
X306085000Y-83350000D03*
D22*
X314325000Y-100330000D03*
D15*
X314325000Y-95250000D03*
D23*
X321325000Y-107150000D03*
D14*
X319405000Y-97790000D03*
D22*
X314325000Y-90170000D03*
D15*
X306085000Y-107150000D03*
D23*
X321325000Y-83350000D03*
D17*
X160139197Y-74056934D03*
D18*
X160139197Y-72021934D03*
X160139197Y-68471934D03*
D19*
X160139197Y-66436934D03*
D16*
X137118750Y-42505000D03*
X123518750Y-45045000D03*
D12*
X136048750Y-47625000D03*
D14*
X133508750Y-42545000D03*
D15*
X130968750Y-47625000D03*
D14*
X127158750Y-45085000D03*
D12*
X125888750Y-47625000D03*
D18*
X236339261Y-52971918D03*
D17*
X236339261Y-55006918D03*
D19*
X236339261Y-47386918D03*
D18*
X236339261Y-49421918D03*
D16*
X263325000Y-61555000D03*
X249725000Y-64095000D03*
D14*
X259715000Y-61595000D03*
D15*
X257175000Y-66675000D03*
D14*
X253365000Y-64135000D03*
D12*
X252095000Y-66675000D03*
X262255000Y-66675000D03*
D18*
X55364109Y-72021934D03*
D17*
X55364109Y-74056934D03*
D19*
X55364109Y-66436934D03*
D18*
X55364109Y-68471934D03*
X80367255Y-91071950D03*
D17*
X80367255Y-93106950D03*
D19*
X80367255Y-85486950D03*
D18*
X80367255Y-87521950D03*
X136326677Y-91071950D03*
D17*
X136326677Y-93106950D03*
D18*
X136326677Y-87521950D03*
D19*
X136326677Y-85486950D03*
D24*
X288750630Y-35636111D03*
X288750630Y-20416111D03*
X291290630Y-20416111D03*
X293830630Y-20416111D03*
X296370630Y-20416111D03*
X298910630Y-20416111D03*
X301450630Y-20416111D03*
X303990630Y-20416111D03*
X306530630Y-20416111D03*
X309070630Y-20416111D03*
X311610630Y-20416111D03*
X314150630Y-20416111D03*
X316690630Y-20416111D03*
X319230630Y-20416111D03*
X319230630Y-35636111D03*
X316690630Y-35636111D03*
X314150630Y-35636111D03*
X311610630Y-35636111D03*
X309070630Y-35636111D03*
X306530630Y-35636111D03*
X303990630Y-35636111D03*
X301450630Y-35636111D03*
X298910630Y-35636111D03*
X296370630Y-35636111D03*
X293830630Y-35636111D03*
X291290630Y-35636111D03*
D20*
X240037704Y-41826597D03*
X245737704Y-41826597D03*
X245737704Y-40326597D03*
X240037704Y-40326597D03*
D18*
X304204943Y-30945337D03*
D17*
X304204943Y-32980337D03*
D18*
X304204943Y-27395337D03*
D19*
X304204943Y-25360337D03*
D17*
X74414125Y-35956902D03*
D18*
X74414125Y-33921902D03*
D19*
X74414125Y-28336902D03*
D18*
X74414125Y-30371902D03*
D17*
X241101765Y-112156966D03*
D18*
X241101765Y-110121966D03*
D19*
X241101765Y-104536966D03*
D18*
X241101765Y-106571966D03*
X303014317Y-110121966D03*
D17*
X303014317Y-112156966D03*
D19*
X303014317Y-104536966D03*
D18*
X303014317Y-106571966D03*
X36314093Y-49421918D03*
D19*
X36314093Y-47386918D03*
D17*
X36314093Y-55006918D03*
D18*
X36314093Y-52971918D03*
D17*
X264914285Y-55006918D03*
D18*
X264914285Y-52971918D03*
D19*
X264914285Y-47386918D03*
D18*
X264914285Y-49421918D03*
D16*
X263325000Y-99655000D03*
X249725000Y-102195000D03*
D12*
X262255000Y-104775000D03*
D15*
X257175000Y-104775000D03*
D12*
X252095000Y-104775000D03*
D14*
X259715000Y-99695000D03*
X253365000Y-102235000D03*
D18*
X322064333Y-33921902D03*
D17*
X322064333Y-35956902D03*
D19*
X322064333Y-28336902D03*
D18*
X322064333Y-30371902D03*
D16*
X134687500Y-80645000D03*
X121187500Y-83185000D03*
D22*
X133667500Y-85725000D03*
D15*
X116687500Y-93965000D03*
D14*
X124777500Y-83185000D03*
D15*
X140487500Y-93965000D03*
X128587500Y-85725000D03*
D14*
X131127500Y-80645000D03*
D23*
X140487500Y-78725000D03*
D22*
X123507500Y-85725000D03*
D23*
X116687500Y-78725000D03*
D18*
X322064333Y-52971918D03*
D17*
X322064333Y-55006918D03*
D19*
X322064333Y-47386918D03*
D18*
X322064333Y-49421918D03*
D17*
X283964301Y-74056934D03*
D18*
X283964301Y-72021934D03*
X283964301Y-68471934D03*
D19*
X283964301Y-66436934D03*
D18*
X138707929Y-52971918D03*
D17*
X138707929Y-55006918D03*
D19*
X138707929Y-47386918D03*
D18*
X138707929Y-49421918D03*
D17*
X155376693Y-35956902D03*
D18*
X155376693Y-33921902D03*
X155376693Y-30371902D03*
D19*
X155376693Y-28336902D03*
D17*
X117276661Y-74056934D03*
D18*
X117276661Y-72021934D03*
X117276661Y-68471934D03*
D19*
X117276661Y-66436934D03*
D18*
X217289245Y-52971918D03*
D17*
X217289245Y-55006918D03*
D19*
X217289245Y-47386918D03*
D18*
X217289245Y-49421918D03*
X164901701Y-91071950D03*
D17*
X164901701Y-93106950D03*
D19*
X164901701Y-85486950D03*
D18*
X164901701Y-87521950D03*
D16*
X229987500Y-23455000D03*
X216387500Y-25995000D03*
D14*
X226377500Y-23495000D03*
D12*
X218757500Y-28575000D03*
D15*
X223837500Y-28575000D03*
D14*
X220027500Y-26035000D03*
D12*
X228917500Y-28575000D03*
D17*
X264914285Y-93106950D03*
D18*
X264914285Y-91071950D03*
D19*
X264914285Y-85486950D03*
D18*
X264914285Y-87521950D03*
D16*
X301425000Y-42505000D03*
X287825000Y-45045000D03*
D14*
X291465000Y-45085000D03*
D12*
X300355000Y-47625000D03*
D14*
X297815000Y-42545000D03*
D15*
X295275000Y-47625000D03*
D12*
X290195000Y-47625000D03*
D18*
X117276661Y-33921902D03*
D17*
X117276661Y-35956902D03*
D19*
X117276661Y-28336902D03*
D18*
X117276661Y-30371902D03*
D17*
X74414125Y-74056934D03*
D18*
X74414125Y-72021934D03*
D19*
X74414125Y-66436934D03*
D18*
X74414125Y-68471934D03*
D19*
X38100032Y-28336902D03*
D18*
X38100032Y-30371902D03*
X38100032Y-33921902D03*
D17*
X38100032Y-35956902D03*
D16*
X282375000Y-61555000D03*
X268775000Y-64095000D03*
D12*
X281305000Y-66675000D03*
D14*
X278765000Y-61595000D03*
D15*
X276225000Y-66675000D03*
D12*
X271145000Y-66675000D03*
D14*
X272415000Y-64135000D03*
D19*
X36314093Y-66436934D03*
D18*
X36314093Y-68471934D03*
D17*
X36314093Y-74056934D03*
D18*
X36314093Y-72021934D03*
D17*
X217289245Y-74056934D03*
D18*
X217289245Y-72021934D03*
X217289245Y-68471934D03*
D19*
X217289245Y-66436934D03*
D16*
X263325000Y-42505000D03*
X249725000Y-45045000D03*
D14*
X259715000Y-42545000D03*
D12*
X252095000Y-47625000D03*
D15*
X257175000Y-47625000D03*
D12*
X262255000Y-47625000D03*
D14*
X253365000Y-45085000D03*
D17*
X283964301Y-112156966D03*
D18*
X283964301Y-110121966D03*
D19*
X283964301Y-104536966D03*
D18*
X283964301Y-106571966D03*
X283964301Y-52971918D03*
D17*
X283964301Y-55006918D03*
D19*
X283964301Y-47386918D03*
D18*
X283964301Y-49421918D03*
X74414125Y-110121966D03*
D17*
X74414125Y-112156966D03*
D18*
X74414125Y-106571966D03*
D19*
X74414125Y-104536966D03*
D17*
X160139197Y-55006918D03*
D18*
X160139197Y-52971918D03*
D19*
X160139197Y-47386918D03*
D18*
X160139197Y-49421918D03*
X55364109Y-110121966D03*
D17*
X55364109Y-112156966D03*
D19*
X55364109Y-104536966D03*
D18*
X55364109Y-106571966D03*
D17*
X241101765Y-93106950D03*
D18*
X241101765Y-91071950D03*
X241101765Y-87521950D03*
D19*
X241101765Y-85486950D03*
D18*
X203001733Y-91071950D03*
D17*
X203001733Y-93106950D03*
D18*
X203001733Y-87521950D03*
D19*
X203001733Y-85486950D03*
D17*
X322064333Y-74056934D03*
D18*
X322064333Y-72021934D03*
D19*
X322064333Y-66436934D03*
D18*
X322064333Y-68471934D03*
X93464141Y-33921902D03*
D17*
X93464141Y-35956902D03*
D19*
X93464141Y-28336902D03*
D18*
X93464141Y-30371902D03*
D16*
X239512500Y-80605000D03*
X225912500Y-83145000D03*
D12*
X238442500Y-85725000D03*
D15*
X233362500Y-85725000D03*
D14*
X235902500Y-80645000D03*
X229552500Y-83185000D03*
D12*
X228282500Y-85725000D03*
D18*
X198239229Y-52971918D03*
D17*
X198239229Y-55006918D03*
D19*
X198239229Y-47386918D03*
D18*
X198239229Y-49421918D03*
D17*
X174426709Y-35956902D03*
D18*
X174426709Y-33921902D03*
X174426709Y-30371902D03*
D19*
X174426709Y-28336902D03*
D18*
X55364109Y-52971918D03*
D17*
X55364109Y-55006918D03*
D18*
X55364109Y-49421918D03*
D19*
X55364109Y-47386918D03*
D18*
X179189213Y-52971918D03*
D17*
X179189213Y-55006918D03*
D18*
X179189213Y-49421918D03*
D19*
X179189213Y-47386918D03*
D21*
X90805000Y-101350000D03*
X88265000Y-87850000D03*
D15*
X77485000Y-107150000D03*
D23*
X92725000Y-83350000D03*
D22*
X85725000Y-100330000D03*
X85725000Y-90170000D03*
D15*
X85725000Y-95250000D03*
D14*
X90805000Y-97790000D03*
D15*
X77485000Y-83350000D03*
D14*
X88265000Y-91440000D03*
D23*
X92725000Y-107150000D03*
D17*
X74414125Y-93106950D03*
D18*
X74414125Y-91071950D03*
D19*
X74414125Y-85486950D03*
D18*
X74414125Y-87521950D03*
D25*
X180975152Y-20290642D03*
X183475152Y-20290642D03*
X178475152Y-20290642D03*
D17*
X136326677Y-35956902D03*
D18*
X136326677Y-33921902D03*
X136326677Y-30371902D03*
D19*
X136326677Y-28336902D03*
D18*
X55364109Y-33921902D03*
D17*
X55364109Y-35956902D03*
D19*
X55364109Y-28336902D03*
D18*
X55364109Y-30371902D03*
D17*
X264914285Y-35956902D03*
D18*
X264914285Y-33921902D03*
D19*
X264914285Y-28336902D03*
D18*
X264914285Y-30371902D03*
D16*
X234750000Y-42505000D03*
X221150000Y-45045000D03*
D12*
X233680000Y-47625000D03*
X223520000Y-47625000D03*
D14*
X231140000Y-42545000D03*
X224790000Y-45085000D03*
D15*
X228600000Y-47625000D03*
D20*
X240037704Y-37064093D03*
X245737704Y-37064093D03*
X245737704Y-35564093D03*
X240037704Y-35564093D03*
D18*
X131564173Y-110121966D03*
D17*
X131564173Y-112156966D03*
D19*
X131564173Y-104536966D03*
D18*
X131564173Y-106571966D03*
D16*
X263325000Y-80605000D03*
X249725000Y-83145000D03*
D14*
X259715000Y-80645000D03*
D12*
X262255000Y-85725000D03*
D14*
X253365000Y-83185000D03*
D12*
X252095000Y-85725000D03*
D15*
X257175000Y-85725000D03*
D16*
X282375000Y-23455000D03*
X268775000Y-25995000D03*
D12*
X271145000Y-28575000D03*
D14*
X278765000Y-23495000D03*
D15*
X276225000Y-28575000D03*
D14*
X272415000Y-26035000D03*
D12*
X281305000Y-28575000D03*
D19*
X36314093Y-85486950D03*
D18*
X36314093Y-87521950D03*
D17*
X36314093Y-93106950D03*
D18*
X36314093Y-91071950D03*
X222051749Y-91071950D03*
D17*
X222051749Y-93106950D03*
D18*
X222051749Y-87521950D03*
D19*
X222051749Y-85486950D03*
D18*
X283964301Y-91071950D03*
D17*
X283964301Y-93106950D03*
D18*
X283964301Y-87521950D03*
D19*
X283964301Y-85486950D03*
D16*
X129975000Y-99655000D03*
X116375000Y-102195000D03*
D14*
X126365000Y-99695000D03*
X120015000Y-102235000D03*
D12*
X128905000Y-104775000D03*
D15*
X123825000Y-104775000D03*
D12*
X118745000Y-104775000D03*
D18*
X36314093Y-106571966D03*
D19*
X36314093Y-104536966D03*
D17*
X36314093Y-112156966D03*
D18*
X36314093Y-110121966D03*
X117276661Y-52971918D03*
D17*
X117276661Y-55006918D03*
D19*
X117276661Y-47386918D03*
D18*
X117276661Y-49421918D03*
X176807961Y-110121966D03*
D17*
X176807961Y-112156966D03*
D18*
X176807961Y-106571966D03*
D19*
X176807961Y-104536966D03*
D17*
X155376693Y-112156966D03*
D18*
X155376693Y-110121966D03*
X155376693Y-106571966D03*
D19*
X155376693Y-104536966D03*
D16*
X301425000Y-61555000D03*
X287825000Y-64095000D03*
D15*
X295275000Y-66675000D03*
D12*
X300355000Y-66675000D03*
D14*
X291465000Y-64135000D03*
X297815000Y-61595000D03*
D12*
X290195000Y-66675000D03*
M02*
