G04 #@! TF.GenerationSoftware,KiCad,Pcbnew,(6.0.0)*
G04 #@! TF.CreationDate,2022-01-01T17:52:16+09:00*
G04 #@! TF.ProjectId,TwENkey,5477454e-6b65-4792-9e6b-696361645f70,rev?*
G04 #@! TF.SameCoordinates,Original*
G04 #@! TF.FileFunction,Copper,L1,Top*
G04 #@! TF.FilePolarity,Positive*
%FSLAX46Y46*%
G04 Gerber Fmt 4.6, Leading zero omitted, Abs format (unit mm)*
G04 Created by KiCad (PCBNEW (6.0.0)) date 2022-01-01 17:52:16*
%MOMM*%
%LPD*%
G01*
G04 APERTURE LIST*
G04 #@! TA.AperFunction,ComponentPad*
%ADD10C,2.000000*%
G04 #@! TD*
G04 #@! TA.AperFunction,ComponentPad*
%ADD11R,3.200000X2.500000*%
G04 #@! TD*
G04 #@! TA.AperFunction,ComponentPad*
%ADD12R,1.397000X1.397000*%
G04 #@! TD*
G04 #@! TA.AperFunction,ComponentPad*
%ADD13C,1.397000*%
G04 #@! TD*
G04 #@! TA.AperFunction,ComponentPad*
%ADD14C,1.524000*%
G04 #@! TD*
G04 #@! TA.AperFunction,ComponentPad*
%ADD15O,1.500000X1.500000*%
G04 #@! TD*
G04 #@! TA.AperFunction,ViaPad*
%ADD16C,0.800000*%
G04 #@! TD*
G04 #@! TA.AperFunction,Conductor*
%ADD17C,0.500000*%
G04 #@! TD*
G04 APERTURE END LIST*
D10*
X21075000Y-26075000D03*
X21075000Y-31075000D03*
X21075000Y-28575000D03*
D11*
X28575000Y-22975000D03*
X28575000Y-34175000D03*
D10*
X35575000Y-31075000D03*
X35575000Y-26075000D03*
D12*
X308967447Y-93106950D03*
D13*
X308967447Y-85486950D03*
D12*
X183951717Y-93106950D03*
D13*
X183951717Y-85486950D03*
D12*
X200620481Y-112156966D03*
D13*
X200620481Y-104536966D03*
D12*
X138707929Y-74056934D03*
D13*
X138707929Y-66436934D03*
D12*
X222051749Y-112156966D03*
D13*
X222051749Y-104536966D03*
D10*
X270593980Y-37504719D03*
X277093980Y-37504719D03*
D12*
X303014317Y-93106950D03*
D13*
X303014317Y-85486950D03*
D12*
X303014317Y-74056934D03*
D13*
X303014317Y-66436934D03*
D12*
X193476725Y-35956902D03*
D13*
X193476725Y-28336902D03*
D12*
X236339261Y-74056934D03*
D13*
X236339261Y-66436934D03*
D12*
X93464141Y-74056934D03*
D13*
X93464141Y-66436934D03*
D12*
X264914285Y-74056934D03*
D13*
X264914285Y-66436934D03*
D12*
X74414125Y-55006918D03*
D13*
X74414125Y-47386918D03*
D12*
X264914285Y-112156966D03*
D13*
X264914285Y-104536966D03*
D12*
X93464141Y-55006918D03*
D13*
X93464141Y-47386918D03*
D12*
X55364109Y-93106950D03*
D13*
X55364109Y-85486950D03*
D12*
X179189213Y-74056934D03*
D13*
X179189213Y-66436934D03*
D12*
X283964301Y-35956902D03*
D13*
X283964301Y-28336902D03*
D12*
X231576757Y-35956902D03*
D13*
X231576757Y-28336902D03*
D12*
X198239229Y-74056934D03*
D13*
X198239229Y-66436934D03*
D12*
X303014317Y-55006918D03*
D13*
X303014317Y-47386918D03*
D12*
X212526741Y-35956902D03*
D13*
X212526741Y-28336902D03*
D12*
X160139197Y-74056934D03*
D13*
X160139197Y-66436934D03*
D12*
X236339261Y-55006918D03*
D13*
X236339261Y-47386918D03*
D12*
X55364109Y-74056934D03*
D13*
X55364109Y-66436934D03*
D12*
X80367255Y-93106950D03*
D13*
X80367255Y-85486950D03*
D12*
X136326677Y-93106950D03*
D13*
X136326677Y-85486950D03*
D14*
X291290630Y-35636111D03*
X293830630Y-35636111D03*
X296370630Y-35636111D03*
X298910630Y-35636111D03*
X301450630Y-35636111D03*
X303990630Y-35636111D03*
X306530630Y-35636111D03*
X309070630Y-35636111D03*
X311610630Y-35636111D03*
X314150630Y-35636111D03*
X316690630Y-35636111D03*
X319230630Y-35636111D03*
X319230630Y-20416111D03*
X316690630Y-20416111D03*
X314150630Y-20416111D03*
X311610630Y-20416111D03*
X309070630Y-20416111D03*
X306530630Y-20416111D03*
X303990630Y-20416111D03*
X301450630Y-20416111D03*
X298910630Y-20416111D03*
X296370630Y-20416111D03*
X293830630Y-20416111D03*
X291290630Y-20416111D03*
X288750630Y-20416111D03*
X288750630Y-35636111D03*
D12*
X304204943Y-32980337D03*
D13*
X304204943Y-25360337D03*
D12*
X74414125Y-35956902D03*
D13*
X74414125Y-28336902D03*
D12*
X241101765Y-112156966D03*
D13*
X241101765Y-104536966D03*
D12*
X303014317Y-112156966D03*
D13*
X303014317Y-104536966D03*
D12*
X36314093Y-55006918D03*
D13*
X36314093Y-47386918D03*
D12*
X264914285Y-55006918D03*
D13*
X264914285Y-47386918D03*
D12*
X322064333Y-35956902D03*
D13*
X322064333Y-28336902D03*
D12*
X322064333Y-55006918D03*
D13*
X322064333Y-47386918D03*
D12*
X283964301Y-74056934D03*
D13*
X283964301Y-66436934D03*
D12*
X138707929Y-55006918D03*
D13*
X138707929Y-47386918D03*
D12*
X155376693Y-35956902D03*
D13*
X155376693Y-28336902D03*
D12*
X117276661Y-74056934D03*
D13*
X117276661Y-66436934D03*
D12*
X217289245Y-55006918D03*
D13*
X217289245Y-47386918D03*
D12*
X164901701Y-93106950D03*
D13*
X164901701Y-85486950D03*
D12*
X264914285Y-93106950D03*
D13*
X264914285Y-85486950D03*
D12*
X117276661Y-35956902D03*
D13*
X117276661Y-28336902D03*
D12*
X74414125Y-74056934D03*
D13*
X74414125Y-66436934D03*
D12*
X38100032Y-35956902D03*
D13*
X38100032Y-28336902D03*
D12*
X36314093Y-74056934D03*
D13*
X36314093Y-66436934D03*
D12*
X217289245Y-74056934D03*
D13*
X217289245Y-66436934D03*
D12*
X283964301Y-112156966D03*
D13*
X283964301Y-104536966D03*
D12*
X283964301Y-55006918D03*
D13*
X283964301Y-47386918D03*
D12*
X74414125Y-112156966D03*
D13*
X74414125Y-104536966D03*
D12*
X160139197Y-55006918D03*
D13*
X160139197Y-47386918D03*
D12*
X55364109Y-112156966D03*
D13*
X55364109Y-104536966D03*
D12*
X241101765Y-93106950D03*
D13*
X241101765Y-85486950D03*
D12*
X203001733Y-93106950D03*
D13*
X203001733Y-85486950D03*
D12*
X322064333Y-74056934D03*
D13*
X322064333Y-66436934D03*
D12*
X93464141Y-35956902D03*
D13*
X93464141Y-28336902D03*
D12*
X198239229Y-55006918D03*
D13*
X198239229Y-47386918D03*
D12*
X174426709Y-35956902D03*
D13*
X174426709Y-28336902D03*
D12*
X55364109Y-55006918D03*
D13*
X55364109Y-47386918D03*
D12*
X179189213Y-55006918D03*
D13*
X179189213Y-47386918D03*
D12*
X74414125Y-93106950D03*
D13*
X74414125Y-85486950D03*
D15*
X180975152Y-20290642D03*
X183475152Y-20290642D03*
X178475152Y-20290642D03*
D12*
X136326677Y-35956902D03*
D13*
X136326677Y-28336902D03*
D12*
X55364109Y-35956902D03*
D13*
X55364109Y-28336902D03*
D12*
X264914285Y-35956902D03*
D13*
X264914285Y-28336902D03*
D12*
X131564173Y-112156966D03*
D13*
X131564173Y-104536966D03*
D12*
X36314093Y-93106950D03*
D13*
X36314093Y-85486950D03*
D12*
X222051749Y-93106950D03*
D13*
X222051749Y-85486950D03*
D12*
X283964301Y-93106950D03*
D13*
X283964301Y-85486950D03*
D12*
X36314093Y-112156966D03*
D13*
X36314093Y-104536966D03*
D12*
X117276661Y-55006918D03*
D13*
X117276661Y-47386918D03*
D12*
X176807961Y-112156966D03*
D13*
X176807961Y-104536966D03*
D12*
X155376693Y-112156966D03*
D13*
X155376693Y-104536966D03*
D16*
X234553322Y-32146902D03*
X247054895Y-30360963D03*
X305990882Y-42267223D03*
X305990882Y-51792231D03*
X307181508Y-60126613D03*
X307776821Y-51792231D03*
X308372134Y-42267223D03*
X307181508Y-72032873D03*
X317047642Y-71437560D03*
X83939133Y-101798523D03*
X193476725Y-26193772D03*
X195262664Y-31551589D03*
X193476725Y-52982857D03*
X193476725Y-45839101D03*
X193476725Y-72032873D03*
X193476725Y-65484430D03*
X198239229Y-84534446D03*
X198239229Y-91082889D03*
X195857977Y-110132905D03*
X195857977Y-103584462D03*
X213717367Y-26789085D03*
X213717367Y-32742215D03*
X212526741Y-45839101D03*
X212526741Y-52982857D03*
X212526741Y-72032873D03*
X212526741Y-65484430D03*
X217289245Y-84534446D03*
X217289245Y-91082889D03*
X217289245Y-103584462D03*
X217289245Y-110132905D03*
X231576757Y-52982857D03*
X231576757Y-45839101D03*
X231576757Y-65484430D03*
X231576757Y-72032873D03*
X236339261Y-84534446D03*
X236339261Y-91082889D03*
X236339261Y-110132905D03*
X236339261Y-103584462D03*
X260151781Y-29170337D03*
X263128346Y-32146902D03*
X260151781Y-45839101D03*
X260151781Y-52982857D03*
X260151781Y-65484430D03*
X260151781Y-72032873D03*
X260151781Y-84534446D03*
X260151781Y-91082889D03*
X260151781Y-110132905D03*
X260151781Y-103584462D03*
X282773675Y-32742215D03*
X282773675Y-29522402D03*
X285154927Y-52982857D03*
X285154927Y-48572418D03*
X285154927Y-72032873D03*
X285154927Y-67622434D03*
X279201797Y-91082889D03*
X279201797Y-84534446D03*
X279201797Y-110132905D03*
X279201797Y-103584462D03*
X302424379Y-26199147D03*
X302419004Y-27979711D03*
X298251813Y-45839101D03*
X298251813Y-52982857D03*
X298251813Y-72032873D03*
X298251813Y-64889117D03*
X298251813Y-91082889D03*
X298251813Y-85129759D03*
X298251813Y-110132905D03*
X298251813Y-103584462D03*
X319683081Y-30956276D03*
X319683081Y-33932841D03*
X322063792Y-51494488D03*
X320421620Y-49852316D03*
X320873707Y-67622434D03*
X320873707Y-72032873D03*
X311354074Y-102994524D03*
X308967447Y-100607897D03*
X248245521Y-48220353D03*
X236339261Y-24407833D03*
X248245521Y-41671910D03*
X242887704Y-24407833D03*
X296465874Y-39290658D03*
X255389277Y-40481284D03*
X247054895Y-34782341D03*
X293489309Y-38354219D03*
X267890850Y-56300548D03*
X311944012Y-51792231D03*
X201518825Y-56262453D03*
X26193772Y-29170337D03*
X289917431Y-56554735D03*
X223242375Y-56300548D03*
X219075184Y-56300548D03*
X58935987Y-56300548D03*
X182761091Y-56300548D03*
X312241144Y-53280424D03*
X161031896Y-61019480D03*
X77092904Y-58042920D03*
X163115488Y-61019480D03*
X207169023Y-58935888D03*
X198239328Y-58935888D03*
X317896608Y-53280424D03*
X248542760Y-58935888D03*
X289917431Y-57745361D03*
X79771808Y-58935888D03*
X22919512Y-58042920D03*
X182760784Y-58935888D03*
X58935888Y-58042920D03*
X285750240Y-58935987D03*
X180975152Y-74414125D03*
X182761091Y-51196918D03*
X183356404Y-54173483D03*
X23812520Y-38100032D03*
X32742215Y-29170337D03*
X177998587Y-23217207D03*
X177998587Y-29765650D03*
X182761091Y-41671910D03*
X185737656Y-79771942D03*
X185737656Y-94059454D03*
X180975152Y-60126613D03*
X201811107Y-40481284D03*
X38100032Y-99417271D03*
X205978298Y-74414125D03*
X205978298Y-89296950D03*
X205978298Y-86320385D03*
X40481284Y-30956276D03*
X197048603Y-31551589D03*
X201811107Y-47625040D03*
X197048603Y-29170337D03*
X201811107Y-54768796D03*
X200025168Y-65484430D03*
X38100032Y-40481284D03*
X39885971Y-79771942D03*
X39885971Y-60721926D03*
X57150048Y-98821958D03*
X225623627Y-98821958D03*
X57150048Y-36314093D03*
X57150048Y-28575024D03*
X58935987Y-79771942D03*
X225623627Y-79771942D03*
X220861123Y-47625040D03*
X57150048Y-39885971D03*
X215503306Y-28575024D03*
X220861123Y-60721926D03*
X215503306Y-32742215D03*
X58935987Y-60721926D03*
X250031460Y-39290658D03*
X249436147Y-79771942D03*
X76200064Y-60721926D03*
X76200064Y-30956276D03*
X249436147Y-53578170D03*
X85129759Y-87511011D03*
X249436147Y-49410979D03*
X249436147Y-61317239D03*
X76200064Y-36909406D03*
X247650208Y-99417271D03*
X220860752Y-58042920D03*
X253008025Y-32146902D03*
X217586536Y-58042920D03*
X253008025Y-36314093D03*
X76200064Y-54173483D03*
X250031460Y-29170337D03*
X76200064Y-39290658D03*
X245268956Y-76200064D03*
X266700224Y-36909406D03*
X100012584Y-39885971D03*
X266700224Y-60126613D03*
X266700224Y-97631332D03*
X100012584Y-60126613D03*
X100012584Y-36314093D03*
X250031460Y-76200064D03*
X266700224Y-29170337D03*
X268486163Y-41671910D03*
X100012584Y-55364109D03*
X268486163Y-79771942D03*
X223837688Y-76200064D03*
X266700224Y-32146902D03*
X221456436Y-77390690D03*
X100012584Y-30360963D03*
X266700224Y-55364109D03*
X222988188Y-78581316D03*
X286940866Y-29170337D03*
X120253226Y-89296950D03*
X245268956Y-77390690D03*
X120253226Y-60721926D03*
X120253226Y-40481284D03*
X120253226Y-35718780D03*
X264914285Y-77390690D03*
X120253226Y-54768796D03*
X288131492Y-85725072D03*
X288726805Y-41671910D03*
X291108057Y-38441158D03*
X288726805Y-48572418D03*
X288726805Y-60721926D03*
X250031460Y-77390690D03*
X286940866Y-31551589D03*
X225028314Y-78581316D03*
X288131492Y-79771942D03*
X120253226Y-29765650D03*
X268486163Y-77390690D03*
X120253226Y-92868828D03*
X288131492Y-98821958D03*
X120253226Y-77986003D03*
X120253226Y-73818812D03*
X288131492Y-67270369D03*
X147637624Y-79771942D03*
X139303242Y-32742215D03*
X306840382Y-48220353D03*
X286345553Y-95250080D03*
X305990882Y-67622434D03*
X289917431Y-95250080D03*
X245864269Y-95250080D03*
X142875120Y-40481284D03*
X317905479Y-31551589D03*
X150018876Y-95250080D03*
X142875120Y-73818812D03*
X249436147Y-95250080D03*
X142875120Y-55364109D03*
X316706516Y-77390690D03*
X225623627Y-95250080D03*
X142875120Y-60126613D03*
X306840382Y-52498987D03*
X307776821Y-41076597D03*
X268486163Y-95250080D03*
X139303242Y-35123467D03*
X264914285Y-95250080D03*
X222051749Y-95250080D03*
X245864269Y-96440706D03*
X166687640Y-75009438D03*
X167878266Y-96440706D03*
X161925136Y-59531300D03*
X161925136Y-54768796D03*
X225623627Y-96440706D03*
X166687640Y-79771942D03*
X289917431Y-96440706D03*
X264914285Y-96440706D03*
X222051749Y-96440706D03*
X249436147Y-96440706D03*
X157162632Y-35123467D03*
X157162632Y-22621894D03*
X268486163Y-96440706D03*
X286345553Y-96440706D03*
X167878266Y-92868828D03*
X161925136Y-39885971D03*
X285154927Y-29170337D03*
X285154927Y-31551589D03*
D17*
X247054895Y-30360963D02*
X245268956Y-32146902D01*
X245268956Y-32146902D02*
X234553322Y-32146902D01*
X305990882Y-42267223D02*
X305990882Y-51792231D01*
X307181508Y-60126613D02*
X307181508Y-72032873D01*
X307745479Y-42893878D02*
X307745479Y-51760889D01*
X308372134Y-42267223D02*
X307745479Y-42893878D01*
X307745479Y-51760889D02*
X307776821Y-51792231D01*
X314325264Y-60721926D02*
X314325264Y-63103178D01*
X317197088Y-51301659D02*
X316111203Y-52387544D01*
X314325264Y-63103178D02*
X316706516Y-65484430D01*
X316111203Y-52387544D02*
X316111203Y-58935987D01*
X317197088Y-46329673D02*
X317197088Y-51301659D01*
X316111203Y-58935987D02*
X314325264Y-60721926D01*
X317047642Y-65825556D02*
X317047642Y-71437560D01*
X311610630Y-35636111D02*
X311610630Y-43124467D01*
X316706516Y-65484430D02*
X317047642Y-65825556D01*
X313134638Y-44648475D02*
X315515890Y-44648475D01*
X311610630Y-43124467D02*
X313134638Y-44648475D01*
X315515890Y-44648475D02*
X317197088Y-46329673D01*
X80367255Y-85486950D02*
X82153194Y-87272889D01*
X82153194Y-100012584D02*
X83939133Y-101798523D01*
X82153194Y-87272889D02*
X82153194Y-100012584D01*
X195262664Y-27979711D02*
X193476725Y-26193772D01*
X195262664Y-31551589D02*
X195262664Y-27979711D01*
X193476725Y-45839101D02*
X193476725Y-52982857D01*
X193476725Y-65484430D02*
X193476725Y-72032873D01*
X198239229Y-84534446D02*
X198239229Y-91082889D01*
X195857977Y-103584462D02*
X195857977Y-110132905D01*
X213717367Y-32742215D02*
X213717367Y-26789085D01*
X212526741Y-45839101D02*
X212526741Y-52982857D01*
X212526741Y-65484430D02*
X212526741Y-72032873D01*
X217289245Y-91082889D02*
X217289245Y-84534446D01*
X217289245Y-110132905D02*
X217289245Y-103584462D01*
X231576757Y-45839101D02*
X231576757Y-52982857D01*
X231576757Y-65484430D02*
X231576757Y-72032873D01*
X236339261Y-91082889D02*
X236339261Y-84534446D01*
X236339261Y-110132905D02*
X236339261Y-103584462D01*
X260151781Y-29170337D02*
X263128346Y-32146902D01*
X260151781Y-45839101D02*
X260151781Y-52982857D01*
X260151781Y-65484430D02*
X260151781Y-72032873D01*
X260151781Y-91082889D02*
X260151781Y-84534446D01*
X260151781Y-110132905D02*
X260151781Y-103584462D01*
X282773675Y-29522402D02*
X282773675Y-32742215D01*
X285154927Y-48572418D02*
X285154927Y-52982857D01*
X285154927Y-67622434D02*
X285154927Y-72032873D01*
X279201797Y-91082889D02*
X279201797Y-84534446D01*
X279201797Y-110132905D02*
X279201797Y-103584462D01*
X302424379Y-27974336D02*
X302419004Y-27979711D01*
X302424379Y-26199147D02*
X302424379Y-27974336D01*
X298251813Y-45839101D02*
X298251813Y-52982857D01*
X298251813Y-64889117D02*
X298251813Y-72032873D01*
X298251813Y-91082889D02*
X298251813Y-85129759D01*
X298251813Y-110132905D02*
X298251813Y-103584462D01*
X319683081Y-30956276D02*
X319683081Y-33932841D01*
X320421620Y-49852316D02*
X322063792Y-51494488D01*
X320873707Y-67622434D02*
X320873707Y-72032873D01*
X308967447Y-100607897D02*
X311354074Y-102994524D01*
X248245521Y-48220353D02*
X248245521Y-41671910D01*
X242887704Y-24407833D02*
X236339261Y-24407833D01*
X293489309Y-38354219D02*
X295529435Y-38354219D01*
X255389277Y-37504719D02*
X255389277Y-36314093D01*
X255389277Y-36314093D02*
X253707545Y-34632361D01*
X295529435Y-38354219D02*
X296465874Y-39290658D01*
X255389277Y-40481284D02*
X255389277Y-37504719D01*
X247204875Y-34632361D02*
X247054895Y-34782341D01*
X253707545Y-34632361D02*
X247204875Y-34632361D01*
X219075184Y-56300548D02*
X201556920Y-56300548D01*
X201556920Y-56300548D02*
X201518825Y-56262453D01*
X267890850Y-56300548D02*
X223242375Y-56300548D01*
X182761091Y-56300548D02*
X58935987Y-56300548D01*
X307181508Y-56554735D02*
X289917431Y-56554735D01*
X311944012Y-51792231D02*
X307181508Y-56554735D01*
X23098435Y-26075000D02*
X26193772Y-29170337D01*
X21075000Y-26075000D02*
X23098435Y-26075000D01*
X157460024Y-58935888D02*
X79771808Y-58935888D01*
X207169023Y-58935888D02*
X198239328Y-58935888D01*
X182760784Y-58935888D02*
X165496736Y-58935888D01*
X316690630Y-38977582D02*
X319087232Y-41374184D01*
X21728888Y-56852296D02*
X21728888Y-31728888D01*
X161031896Y-59828856D02*
X160138928Y-58935888D01*
X165496736Y-58935888D02*
X165199080Y-58935888D01*
X312241144Y-53280424D02*
X307776304Y-57745264D01*
X319087232Y-41374184D02*
X319087232Y-45822124D01*
X160138928Y-58935888D02*
X157460024Y-58935888D01*
X165199080Y-58935888D02*
X163115488Y-61019480D01*
X289917528Y-57745264D02*
X289917431Y-57745361D01*
X316690630Y-35636111D02*
X316690630Y-38977582D01*
X22919512Y-58042920D02*
X21728888Y-56852296D01*
X161031896Y-61019480D02*
X161031896Y-59828856D01*
X317896608Y-47012748D02*
X317896608Y-53280424D01*
X307776304Y-57745264D02*
X289917528Y-57745264D01*
X248542859Y-58935987D02*
X248542760Y-58935888D01*
X285750240Y-58935987D02*
X248542859Y-58935987D01*
X319087232Y-45822124D02*
X317896608Y-47012748D01*
X21728888Y-31728888D02*
X21075000Y-31075000D01*
X77092904Y-58042920D02*
X75604624Y-58042920D01*
X75604624Y-58042920D02*
X58935888Y-58042920D01*
X180975152Y-60126613D02*
X180975152Y-74414125D01*
X177998587Y-36909406D02*
X177998587Y-29765650D01*
X236934574Y-28575024D02*
X236934574Y-29765650D01*
X236934574Y-29765650D02*
X235752842Y-30947382D01*
X37504719Y-20835955D02*
X35575000Y-22765674D01*
X177998587Y-23217207D02*
X175617335Y-20835955D01*
X32742215Y-36313977D02*
X32742215Y-29170337D01*
X299989119Y-18954600D02*
X291038805Y-18954600D01*
X226218940Y-33932841D02*
X186928282Y-33932841D01*
X179189213Y-38100032D02*
X180975152Y-38100032D01*
X245864269Y-22026581D02*
X245864269Y-25598459D01*
X30956160Y-38100032D02*
X23812520Y-38100032D01*
X182761091Y-51196918D02*
X183356404Y-51792231D01*
X35575000Y-22765674D02*
X35575000Y-26075000D01*
X179189213Y-38100032D02*
X177998587Y-36909406D01*
X284559614Y-22026581D02*
X283195074Y-20662041D01*
X229204399Y-30947382D02*
X226218940Y-33932841D01*
X238125200Y-27384398D02*
X236934574Y-28575024D01*
X247228809Y-20662041D02*
X245864269Y-22026581D01*
X291038805Y-18954600D02*
X290079119Y-19914286D01*
X290079119Y-19914286D02*
X290079119Y-20800958D01*
X235752842Y-30947382D02*
X229204399Y-30947382D01*
X32742215Y-36313977D02*
X30956160Y-38100032D01*
X180975152Y-39885971D02*
X182761091Y-41671910D01*
X186928282Y-33932841D02*
X182761091Y-38100032D01*
X175617335Y-20835955D02*
X37504719Y-20835955D01*
X290079119Y-20800958D02*
X288853496Y-22026581D01*
X301450630Y-20416111D02*
X299989119Y-18954600D01*
X288853496Y-22026581D02*
X284559614Y-22026581D01*
X183356404Y-51792231D02*
X183356404Y-54173483D01*
X283195074Y-20662041D02*
X247228809Y-20662041D01*
X182761091Y-38100032D02*
X180975152Y-38100032D01*
X244078330Y-27384398D02*
X238125200Y-27384398D01*
X180975152Y-39885971D02*
X180975152Y-38100032D01*
X245864269Y-25598459D02*
X244078330Y-27384398D01*
X185737656Y-79771942D02*
X185737656Y-94059454D01*
X200025168Y-65484430D02*
X200025168Y-72032873D01*
X204192359Y-73223499D02*
X204787672Y-73223499D01*
X201811107Y-47625040D02*
X201811107Y-54768796D01*
X280392423Y-26789085D02*
X279201797Y-27979711D01*
X205978298Y-89296950D02*
X205978298Y-86320385D01*
X184101523Y-56404929D02*
X180379839Y-52683245D01*
X201811107Y-54768796D02*
X200174974Y-56404929D01*
X303014317Y-24407833D02*
X301228378Y-26193772D01*
X40481284Y-30956276D02*
X40481284Y-35718780D01*
X38100032Y-40481284D02*
X38100032Y-60721926D01*
X303014317Y-21392424D02*
X303014317Y-24407833D01*
X279201797Y-30956276D02*
X276225232Y-33932841D01*
X200025168Y-72032873D02*
X201215794Y-73223499D01*
X201215794Y-73223499D02*
X204192359Y-73223499D01*
X197048603Y-31551589D02*
X197048603Y-29170337D01*
X301228378Y-26193772D02*
X297061187Y-26193772D01*
X225623627Y-38100032D02*
X204192359Y-38100032D01*
X229790818Y-33932841D02*
X225623627Y-38100032D01*
X204787672Y-73223499D02*
X205978298Y-74414125D01*
X42862536Y-38100032D02*
X40481284Y-40481284D01*
X204192359Y-38100032D02*
X201811107Y-40481284D01*
X38100032Y-79771942D02*
X39885971Y-79771942D01*
X38100032Y-79771942D02*
X38100032Y-99417271D01*
X180379839Y-41671910D02*
X176807961Y-38100032D01*
X38100032Y-38100032D02*
X38100032Y-40481284D01*
X279201797Y-27979711D02*
X279201797Y-30956276D01*
X282773675Y-26789085D02*
X280392423Y-26789085D01*
X297061187Y-26193772D02*
X294084622Y-23217207D01*
X176807961Y-38100032D02*
X42862536Y-38100032D01*
X180379839Y-52683245D02*
X180379839Y-41671910D01*
X286345553Y-23217207D02*
X282773675Y-26789085D01*
X200174974Y-56404929D02*
X184101523Y-56404929D01*
X38100032Y-60721926D02*
X38100032Y-79771942D01*
X40481284Y-40481284D02*
X38100032Y-40481284D01*
X40481284Y-35718780D02*
X38100032Y-38100032D01*
X294084622Y-23217207D02*
X286345553Y-23217207D01*
X276225232Y-33932841D02*
X229790818Y-33932841D01*
X303990630Y-20416111D02*
X303014317Y-21392424D01*
X38100032Y-60721926D02*
X39885971Y-60721926D01*
X219075184Y-57150048D02*
X57150048Y-57150048D01*
X57150048Y-79771942D02*
X58935987Y-79771942D01*
X57150048Y-36314093D02*
X57150048Y-28575024D01*
X279201797Y-47029727D02*
X279201797Y-54768796D01*
X276820545Y-57150048D02*
X220861123Y-57150048D01*
X283368988Y-45839101D02*
X280392423Y-45839101D01*
X305395569Y-21551172D02*
X305395569Y-26789085D01*
X57150048Y-60721926D02*
X58935987Y-60721926D01*
X57150048Y-57150048D02*
X57150048Y-39885971D01*
X223837688Y-77986003D02*
X223837688Y-79771942D01*
X222051749Y-76200064D02*
X223837688Y-77986003D01*
X219075184Y-74414125D02*
X219075184Y-75009438D01*
X305395569Y-26789085D02*
X299442439Y-32742215D01*
X219075184Y-60721926D02*
X219075184Y-74414125D01*
X285154927Y-35123467D02*
X285154927Y-44053162D01*
X219075184Y-60721926D02*
X220861123Y-60721926D01*
X57150048Y-57150048D02*
X57150048Y-60721926D01*
X57150048Y-79771942D02*
X57150048Y-98821958D01*
X215503306Y-32742215D02*
X215503306Y-28575024D01*
X223837688Y-79771942D02*
X225623627Y-79771942D01*
X299442439Y-32742215D02*
X287536179Y-32742215D01*
X219075184Y-75009438D02*
X220265810Y-76200064D01*
X285154927Y-44053162D02*
X283368988Y-45839101D01*
X287536179Y-32742215D02*
X285154927Y-35123467D01*
X223837688Y-79771942D02*
X223837688Y-97036019D01*
X223837688Y-97036019D02*
X225623627Y-98821958D01*
X219075184Y-57150048D02*
X219075184Y-60721926D01*
X220861123Y-57150048D02*
X219075184Y-57150048D01*
X57150048Y-60721926D02*
X57150048Y-79771942D01*
X220861123Y-57150048D02*
X220861123Y-47625040D01*
X306530630Y-20416111D02*
X305395569Y-21551172D01*
X279201797Y-54768796D02*
X276820545Y-57150048D01*
X280392423Y-45839101D02*
X279201797Y-47029727D01*
X220265810Y-76200064D02*
X222051749Y-76200064D01*
X288622598Y-33441735D02*
X301124171Y-33441735D01*
X249436147Y-53578170D02*
X249436147Y-49410979D01*
X247650208Y-61317239D02*
X247650208Y-79771942D01*
X77986003Y-80367255D02*
X83343820Y-80367255D01*
X76200064Y-78581316D02*
X76200064Y-60721926D01*
X306586195Y-22900546D02*
X309070630Y-20416111D01*
X76200064Y-54173483D02*
X76200064Y-39290658D01*
X76200064Y-36909406D02*
X76200064Y-30956276D01*
X247650208Y-58043336D02*
X247649792Y-58042920D01*
X76200064Y-60721696D02*
X78878840Y-58042920D01*
X247650208Y-61317239D02*
X249436147Y-61317239D01*
X217586536Y-58042920D02*
X78878840Y-58042920D01*
X247650208Y-79771942D02*
X247650208Y-99417271D01*
X286345553Y-35718780D02*
X288622598Y-33441735D01*
X76200064Y-60721926D02*
X76200064Y-60721696D01*
X247650208Y-61317239D02*
X247650208Y-58043336D01*
X85129759Y-82153194D02*
X85129759Y-87511011D01*
X301124171Y-33441735D02*
X306586195Y-27979711D01*
X284262055Y-58042920D02*
X247649792Y-58042920D01*
X83343820Y-80367255D02*
X85129759Y-82153194D01*
X306586195Y-27979711D02*
X306586195Y-22900546D01*
X286345553Y-55959422D02*
X284262055Y-58042920D01*
X250031460Y-39290658D02*
X253008025Y-36314093D01*
X247650208Y-79771942D02*
X249436147Y-79771942D01*
X286345553Y-55959422D02*
X286345553Y-35718780D01*
X247649792Y-58042920D02*
X220860752Y-58042920D01*
X76200064Y-78581316D02*
X77986003Y-80367255D01*
X253008025Y-32146902D02*
X250031460Y-29170337D01*
X283964301Y-64889117D02*
X280392423Y-64889117D01*
X102393836Y-76200064D02*
X100012584Y-73818812D01*
X287536179Y-61317239D02*
X283964301Y-64889117D01*
X279201797Y-73818812D02*
X276820545Y-76200064D01*
X217289245Y-76200064D02*
X102393836Y-76200064D01*
X288726805Y-37504719D02*
X287536179Y-38695345D01*
X100012584Y-55364109D02*
X100012584Y-39885971D01*
X311610630Y-20416111D02*
X307745479Y-24281262D01*
X266700224Y-76200064D02*
X266700224Y-79771942D01*
X266700224Y-41671910D02*
X266700224Y-36909406D01*
X266700224Y-32146902D02*
X266700224Y-29170337D01*
X266700224Y-76200064D02*
X250031460Y-76200064D01*
X304204943Y-37504719D02*
X288726805Y-37504719D01*
X280392423Y-64889117D02*
X279201797Y-66079743D01*
X306689749Y-34424600D02*
X306028805Y-34424600D01*
X266700224Y-79771942D02*
X266700224Y-97631332D01*
X245268956Y-76200064D02*
X223837688Y-76200064D01*
X221456436Y-77390690D02*
X218479871Y-77390690D01*
X307745479Y-33368870D02*
X306689749Y-34424600D01*
X307745479Y-24281262D02*
X307745479Y-33368870D01*
X276820545Y-76200064D02*
X266700224Y-76200064D01*
X279201797Y-66079743D02*
X279201797Y-73818812D01*
X305319119Y-36390543D02*
X304204943Y-37504719D01*
X266700224Y-41671910D02*
X268486163Y-41671910D01*
X218479871Y-77390690D02*
X217289245Y-76200064D01*
X266700224Y-55364109D02*
X266700224Y-41671910D01*
X305319119Y-35134286D02*
X305319119Y-36390543D01*
X306028805Y-34424600D02*
X305319119Y-35134286D01*
X100012584Y-36314093D02*
X100012584Y-30360963D01*
X266700224Y-79771942D02*
X268486163Y-79771942D01*
X266700224Y-76200064D02*
X266700224Y-60126613D01*
X287536179Y-38695345D02*
X287536179Y-61317239D01*
X100012584Y-73818812D02*
X100012584Y-60126613D01*
X289917431Y-38695345D02*
X288726805Y-39885971D01*
X288726805Y-39885971D02*
X288695479Y-39917297D01*
X286940866Y-29170337D02*
X286940866Y-31551589D01*
X288131492Y-67270369D02*
X288131492Y-77390690D01*
X288131492Y-77390690D02*
X288131492Y-79771942D01*
X304800256Y-40481284D02*
X293148183Y-40481284D01*
X226218940Y-77390690D02*
X225028314Y-78581316D01*
X307859119Y-34445856D02*
X307859119Y-37422421D01*
X245268956Y-77390690D02*
X226218940Y-77390690D01*
X288131492Y-77390690D02*
X268486163Y-77390690D01*
X288695479Y-41640584D02*
X288726805Y-41671910D01*
X120253226Y-54768796D02*
X120253226Y-40481284D01*
X120253226Y-73818812D02*
X120253226Y-60721926D01*
X307859119Y-37422421D02*
X304800256Y-40481284D01*
X317003640Y-29467944D02*
X314324736Y-32146848D01*
X314150630Y-20416111D02*
X314150630Y-24531342D01*
X120253226Y-89296950D02*
X120253226Y-92868828D01*
X144065746Y-78581316D02*
X141684494Y-80962568D01*
X222988188Y-78581316D02*
X144065746Y-78581316D01*
X291108057Y-38441158D02*
X290171618Y-38441158D01*
X288131492Y-85725072D02*
X288131492Y-98821958D01*
X314324736Y-32146848D02*
X310158127Y-32146848D01*
X139303242Y-80962568D02*
X136326677Y-77986003D01*
X288695479Y-39917297D02*
X288695479Y-41640584D01*
X288726805Y-48572418D02*
X288726805Y-60721926D01*
X317003640Y-27384352D02*
X317003640Y-29467944D01*
X291108057Y-38441158D02*
X293148183Y-40481284D01*
X120253226Y-35718780D02*
X120253226Y-29765650D01*
X136326677Y-77986003D02*
X120253226Y-77986003D01*
X141684494Y-80962568D02*
X139303242Y-80962568D01*
X314150630Y-24531342D02*
X317003640Y-27384352D01*
X310158127Y-32146848D02*
X307859119Y-34445856D01*
X264914285Y-77390690D02*
X250031460Y-77390690D01*
X290171618Y-38441158D02*
X288695479Y-39917297D01*
X315515890Y-76200064D02*
X316706516Y-77390690D01*
X311600564Y-33932841D02*
X310282141Y-35251264D01*
X304800256Y-94059454D02*
X303609630Y-95250080D01*
X305990882Y-76200064D02*
X315515890Y-76200064D01*
X310282141Y-38571277D02*
X307776821Y-41076597D01*
X303609630Y-95250080D02*
X289917431Y-95250080D01*
X304800256Y-90487576D02*
X304800256Y-94059454D01*
X305990882Y-79771942D02*
X307181508Y-80962568D01*
X310753386Y-87511011D02*
X309562760Y-88701637D01*
X142875120Y-73818812D02*
X142875120Y-60126613D01*
X286345553Y-95250080D02*
X268486163Y-95250080D01*
X139303242Y-35123467D02*
X139303242Y-32742215D01*
X319491726Y-25789814D02*
X317905479Y-27376061D01*
X317905479Y-31543252D02*
X315515890Y-33932841D01*
X317905479Y-27376061D02*
X317905479Y-30352626D01*
X319491726Y-23217207D02*
X319491726Y-25789814D01*
X306840382Y-48220353D02*
X306840382Y-52498987D01*
X309562760Y-88701637D02*
X306586195Y-88701637D01*
X264914285Y-95250080D02*
X249436147Y-95250080D01*
X310282141Y-35251264D02*
X310282141Y-37380651D01*
X316690630Y-20416111D02*
X319491726Y-23217207D01*
X147637624Y-92868828D02*
X150018876Y-95250080D01*
X310282141Y-37380651D02*
X310282141Y-38571277D01*
X307181508Y-80962568D02*
X308967447Y-80962568D01*
X222051749Y-95250080D02*
X150018876Y-95250080D01*
X308967447Y-80962568D02*
X310753386Y-82748507D01*
X306586195Y-88701637D02*
X304800256Y-90487576D01*
X245864269Y-95250080D02*
X225623627Y-95250080D01*
X310753386Y-82748507D02*
X310753386Y-87511011D01*
X315515890Y-33932841D02*
X311600564Y-33932841D01*
X147637624Y-92868828D02*
X147637624Y-79771942D01*
X317905479Y-30352626D02*
X317905479Y-31543252D01*
X305990882Y-76200064D02*
X305990882Y-79771942D01*
X142875120Y-55364109D02*
X142875120Y-40481284D01*
X305990882Y-67622434D02*
X305990882Y-76200064D01*
X319087768Y-64889117D02*
X319070239Y-64889117D01*
X311944012Y-88106324D02*
X310158073Y-89892263D01*
X166687640Y-75009438D02*
X161925136Y-70246934D01*
X245864269Y-96440706D02*
X225623627Y-96440706D01*
X320841815Y-37238353D02*
X319980200Y-38099968D01*
X304204943Y-96440706D02*
X289917431Y-96440706D01*
X319070239Y-64889117D02*
X317897142Y-66062214D01*
X320904521Y-46763345D02*
X320904521Y-48486575D01*
X264914285Y-96440706D02*
X249436147Y-96440706D01*
X317897142Y-79176629D02*
X316111203Y-80962568D01*
X319230630Y-20416111D02*
X320904521Y-22090002D01*
X313729951Y-80962568D02*
X311944012Y-82748507D01*
X317897142Y-66062214D02*
X317897142Y-79176629D01*
X311944012Y-82748507D02*
X311944012Y-88106324D01*
X319980200Y-38099968D02*
X319980200Y-45839024D01*
X157162632Y-35123467D02*
X157162632Y-22621894D01*
X310158073Y-89892263D02*
X307181508Y-89892263D01*
X305990882Y-94654767D02*
X304204943Y-96440706D01*
X286345553Y-96440706D02*
X268486163Y-96440706D01*
X307181508Y-89892263D02*
X305990882Y-91082889D01*
X166687640Y-91678202D02*
X166687640Y-79771942D01*
X316111203Y-80962568D02*
X313729951Y-80962568D01*
X319980200Y-45839024D02*
X320904521Y-46763345D01*
X161925136Y-70246934D02*
X161925136Y-59531300D01*
X161925136Y-54768796D02*
X161925136Y-39885971D01*
X222051749Y-96440706D02*
X167878266Y-96440706D01*
X320904521Y-22090002D02*
X320904521Y-37238353D01*
X320904521Y-48486575D02*
X320388291Y-49002805D01*
X167878266Y-92868828D02*
X166687640Y-91678202D01*
X305990882Y-91082889D02*
X305990882Y-94654767D01*
X320069740Y-49002805D02*
X319087768Y-49984777D01*
X320904521Y-37238353D02*
X320841815Y-37238353D01*
X320388291Y-49002805D02*
X320069740Y-49002805D01*
X319087768Y-49984777D02*
X319087768Y-64889117D01*
X285154927Y-29170337D02*
X285154927Y-31551589D01*
X285330396Y-20416111D02*
X283368988Y-18454703D01*
X180975152Y-19645329D02*
X180975152Y-20290642D01*
X283368988Y-18454703D02*
X182165778Y-18454703D01*
X182165778Y-18454703D02*
X180975152Y-19645329D01*
X288750630Y-20416111D02*
X285330396Y-20416111D01*
M02*
