G04 #@! TF.GenerationSoftware,KiCad,Pcbnew,(6.0.0)*
G04 #@! TF.CreationDate,2022-01-01T17:52:16+09:00*
G04 #@! TF.ProjectId,TwENkey,5477454e-6b65-4792-9e6b-696361645f70,rev?*
G04 #@! TF.SameCoordinates,Original*
G04 #@! TF.FileFunction,Copper,L2,Bot*
G04 #@! TF.FilePolarity,Positive*
%FSLAX46Y46*%
G04 Gerber Fmt 4.6, Leading zero omitted, Abs format (unit mm)*
G04 Created by KiCad (PCBNEW (6.0.0)) date 2022-01-01 17:52:16*
%MOMM*%
%LPD*%
G01*
G04 APERTURE LIST*
G04 #@! TA.AperFunction,SMDPad,CuDef*
%ADD10R,3.300000X3.000000*%
G04 #@! TD*
G04 #@! TA.AperFunction,ComponentPad*
%ADD11C,2.000000*%
G04 #@! TD*
G04 #@! TA.AperFunction,ComponentPad*
%ADD12R,3.200000X2.500000*%
G04 #@! TD*
G04 #@! TA.AperFunction,ComponentPad*
%ADD13R,1.397000X1.397000*%
G04 #@! TD*
G04 #@! TA.AperFunction,SMDPad,CuDef*
%ADD14R,0.950000X1.300000*%
G04 #@! TD*
G04 #@! TA.AperFunction,ComponentPad*
%ADD15C,1.397000*%
G04 #@! TD*
G04 #@! TA.AperFunction,SMDPad,CuDef*
%ADD16R,2.500000X0.820000*%
G04 #@! TD*
G04 #@! TA.AperFunction,SMDPad,CuDef*
%ADD17R,3.000000X3.300000*%
G04 #@! TD*
G04 #@! TA.AperFunction,ComponentPad*
%ADD18C,1.524000*%
G04 #@! TD*
G04 #@! TA.AperFunction,ComponentPad*
%ADD19O,1.500000X1.500000*%
G04 #@! TD*
G04 #@! TA.AperFunction,ViaPad*
%ADD20C,0.800000*%
G04 #@! TD*
G04 #@! TA.AperFunction,Conductor*
%ADD21C,0.500000*%
G04 #@! TD*
G04 #@! TA.AperFunction,Conductor*
%ADD22C,1.000000*%
G04 #@! TD*
G04 APERTURE END LIST*
D10*
X40175000Y-45045000D03*
X53775000Y-42505000D03*
X40175000Y-102195000D03*
X53775000Y-99655000D03*
X40175000Y-25995000D03*
X53775000Y-23455000D03*
D11*
X21075000Y-26075000D03*
X21075000Y-31075000D03*
X21075000Y-28575000D03*
D12*
X28575000Y-22975000D03*
X28575000Y-34175000D03*
D11*
X35575000Y-31075000D03*
X35575000Y-26075000D03*
D10*
X40175000Y-83145000D03*
X53775000Y-80605000D03*
X40175000Y-64095000D03*
X53775000Y-61555000D03*
X59225000Y-45045000D03*
X72825000Y-42505000D03*
X59225000Y-25995000D03*
X72825000Y-23455000D03*
X59225000Y-64095000D03*
X72825000Y-61555000D03*
X59225000Y-83145000D03*
X72825000Y-80605000D03*
X78275000Y-45045000D03*
X91875000Y-42505000D03*
X78275000Y-64095000D03*
X91875000Y-61555000D03*
X59225000Y-102195000D03*
X72825000Y-99655000D03*
X102087500Y-45045000D03*
X115687500Y-42505000D03*
X168762500Y-83145000D03*
X182362500Y-80605000D03*
X102087500Y-64095000D03*
X115687500Y-61555000D03*
X149712500Y-83145000D03*
X163312500Y-80605000D03*
X144950000Y-45045000D03*
X158550000Y-42505000D03*
X144950000Y-64095000D03*
X158550000Y-61555000D03*
X102087500Y-25995000D03*
X115687500Y-23455000D03*
X121137500Y-25995000D03*
X134737500Y-23455000D03*
X183050000Y-64095000D03*
X196650000Y-61555000D03*
X187812500Y-83145000D03*
X201412500Y-80605000D03*
X178287500Y-25995000D03*
X191887500Y-23455000D03*
X202100000Y-45045000D03*
X215700000Y-42505000D03*
X159237500Y-25995000D03*
X172837500Y-23455000D03*
X164000000Y-64095000D03*
X177600000Y-61555000D03*
X140187500Y-25995000D03*
X153787500Y-23455000D03*
X206862500Y-83145000D03*
X220462500Y-80605000D03*
X164000000Y-45045000D03*
X177600000Y-42505000D03*
X202100000Y-64095000D03*
X215700000Y-61555000D03*
X183050000Y-45045000D03*
X196650000Y-42505000D03*
X197337500Y-25995000D03*
X210937500Y-23455000D03*
X306875000Y-25995000D03*
X320475000Y-23455000D03*
X306875000Y-45045000D03*
X320475000Y-42505000D03*
X306875000Y-64095000D03*
X320475000Y-61555000D03*
X287825000Y-83145000D03*
X301425000Y-80605000D03*
X287825000Y-25995000D03*
X301425000Y-23455000D03*
X268775000Y-102195000D03*
X282375000Y-99655000D03*
X287825000Y-102195000D03*
X301425000Y-99655000D03*
X140187500Y-102195000D03*
X153787500Y-99655000D03*
X161618750Y-102195000D03*
X175218750Y-99655000D03*
X185431250Y-102195000D03*
X199031250Y-99655000D03*
X206862500Y-102195000D03*
X220462500Y-99655000D03*
D13*
X308967447Y-93106950D03*
D14*
X308967447Y-91071950D03*
D15*
X308967447Y-85486950D03*
D14*
X308967447Y-87521950D03*
X183951717Y-91071950D03*
D13*
X183951717Y-93106950D03*
D14*
X183951717Y-87521950D03*
D15*
X183951717Y-85486950D03*
D13*
X200620481Y-112156966D03*
D14*
X200620481Y-110121966D03*
D15*
X200620481Y-104536966D03*
D14*
X200620481Y-106571966D03*
X138707929Y-72021934D03*
D13*
X138707929Y-74056934D03*
D14*
X138707929Y-68471934D03*
D15*
X138707929Y-66436934D03*
D10*
X21125000Y-102195000D03*
X34725000Y-99655000D03*
D14*
X222051749Y-110121966D03*
D13*
X222051749Y-112156966D03*
D15*
X222051749Y-104536966D03*
D14*
X222051749Y-106571966D03*
D10*
X225912500Y-102195000D03*
X239512500Y-99655000D03*
D11*
X270593980Y-37504719D03*
X277093980Y-37504719D03*
D10*
X78275072Y-25995024D03*
X91875072Y-23455024D03*
D13*
X303014317Y-93106950D03*
D14*
X303014317Y-91071950D03*
X303014317Y-87521950D03*
D15*
X303014317Y-85486950D03*
D10*
X268775000Y-45045000D03*
X282375000Y-42505000D03*
D13*
X303014317Y-74056934D03*
D14*
X303014317Y-72021934D03*
D15*
X303014317Y-66436934D03*
D14*
X303014317Y-68471934D03*
D10*
X21125000Y-83145000D03*
X34725000Y-80605000D03*
D14*
X193476725Y-33921902D03*
D13*
X193476725Y-35956902D03*
D15*
X193476725Y-28336902D03*
D14*
X193476725Y-30371902D03*
D13*
X236339261Y-74056934D03*
D14*
X236339261Y-72021934D03*
X236339261Y-68471934D03*
D15*
X236339261Y-66436934D03*
D10*
X21125000Y-64095000D03*
X34725000Y-61555000D03*
D14*
X93464141Y-72021934D03*
D13*
X93464141Y-74056934D03*
D15*
X93464141Y-66436934D03*
D14*
X93464141Y-68471934D03*
D13*
X264914285Y-74056934D03*
D14*
X264914285Y-72021934D03*
X264914285Y-68471934D03*
D15*
X264914285Y-66436934D03*
D14*
X74414125Y-52971918D03*
D13*
X74414125Y-55006918D03*
D14*
X74414125Y-49421918D03*
D15*
X74414125Y-47386918D03*
D13*
X264914285Y-112156966D03*
D14*
X264914285Y-110121966D03*
D15*
X264914285Y-104536966D03*
D14*
X264914285Y-106571966D03*
D16*
X240037704Y-51351605D03*
X245737704Y-51351605D03*
X245737704Y-49851605D03*
X240037704Y-49851605D03*
D13*
X93464141Y-55006918D03*
D14*
X93464141Y-52971918D03*
D15*
X93464141Y-47386918D03*
D14*
X93464141Y-49421918D03*
D10*
X221150000Y-64095000D03*
X234750000Y-61555000D03*
D14*
X55364109Y-91071950D03*
D13*
X55364109Y-93106950D03*
D15*
X55364109Y-85486950D03*
D14*
X55364109Y-87521950D03*
X179189213Y-72021934D03*
D13*
X179189213Y-74056934D03*
D14*
X179189213Y-68471934D03*
D15*
X179189213Y-66436934D03*
D14*
X283964301Y-33921902D03*
D13*
X283964301Y-35956902D03*
D14*
X283964301Y-30371902D03*
D15*
X283964301Y-28336902D03*
D10*
X123518750Y-64095000D03*
X137118750Y-61555000D03*
X21125000Y-45045000D03*
X34725000Y-42505000D03*
D13*
X231576757Y-35956902D03*
D14*
X231576757Y-33921902D03*
X231576757Y-30371902D03*
D15*
X231576757Y-28336902D03*
D16*
X240037704Y-46589101D03*
X245737704Y-46589101D03*
X245737704Y-45089101D03*
X240037704Y-45089101D03*
D14*
X198239229Y-72021934D03*
D13*
X198239229Y-74056934D03*
D15*
X198239229Y-66436934D03*
D14*
X198239229Y-68471934D03*
D10*
X249725000Y-25995000D03*
X263325000Y-23455000D03*
D14*
X303014317Y-52971918D03*
D13*
X303014317Y-55006918D03*
D15*
X303014317Y-47386918D03*
D14*
X303014317Y-49421918D03*
D10*
X268775000Y-83145000D03*
X282375000Y-80605000D03*
D13*
X212526741Y-35956902D03*
D14*
X212526741Y-33921902D03*
D15*
X212526741Y-28336902D03*
D14*
X212526741Y-30371902D03*
D17*
X316865000Y-87850000D03*
X319405000Y-101350000D03*
D13*
X160139197Y-74056934D03*
D14*
X160139197Y-72021934D03*
X160139197Y-68471934D03*
D15*
X160139197Y-66436934D03*
D10*
X123518750Y-45045000D03*
X137118750Y-42505000D03*
D14*
X236339261Y-52971918D03*
D13*
X236339261Y-55006918D03*
D15*
X236339261Y-47386918D03*
D14*
X236339261Y-49421918D03*
D10*
X249725000Y-64095000D03*
X263325000Y-61555000D03*
D14*
X55364109Y-72021934D03*
D13*
X55364109Y-74056934D03*
D15*
X55364109Y-66436934D03*
D14*
X55364109Y-68471934D03*
X80367255Y-91071950D03*
D13*
X80367255Y-93106950D03*
D15*
X80367255Y-85486950D03*
D14*
X80367255Y-87521950D03*
X136326677Y-91071950D03*
D13*
X136326677Y-93106950D03*
D14*
X136326677Y-87521950D03*
D15*
X136326677Y-85486950D03*
D18*
X291290630Y-35636111D03*
X293830630Y-35636111D03*
X296370630Y-35636111D03*
X298910630Y-35636111D03*
X301450630Y-35636111D03*
X303990630Y-35636111D03*
X306530630Y-35636111D03*
X309070630Y-35636111D03*
X311610630Y-35636111D03*
X314150630Y-35636111D03*
X316690630Y-35636111D03*
X319230630Y-35636111D03*
X319230630Y-20416111D03*
X316690630Y-20416111D03*
X314150630Y-20416111D03*
X311610630Y-20416111D03*
X309070630Y-20416111D03*
X306530630Y-20416111D03*
X303990630Y-20416111D03*
X301450630Y-20416111D03*
X298910630Y-20416111D03*
X296370630Y-20416111D03*
X293830630Y-20416111D03*
X291290630Y-20416111D03*
X288750630Y-20416111D03*
X288750630Y-35636111D03*
D16*
X240037704Y-41826597D03*
X245737704Y-41826597D03*
X245737704Y-40326597D03*
X240037704Y-40326597D03*
D14*
X304204943Y-30945337D03*
D13*
X304204943Y-32980337D03*
D14*
X304204943Y-27395337D03*
D15*
X304204943Y-25360337D03*
D13*
X74414125Y-35956902D03*
D14*
X74414125Y-33921902D03*
D15*
X74414125Y-28336902D03*
D14*
X74414125Y-30371902D03*
D13*
X241101765Y-112156966D03*
D14*
X241101765Y-110121966D03*
D15*
X241101765Y-104536966D03*
D14*
X241101765Y-106571966D03*
X303014317Y-110121966D03*
D13*
X303014317Y-112156966D03*
D15*
X303014317Y-104536966D03*
D14*
X303014317Y-106571966D03*
X36314093Y-52971918D03*
D13*
X36314093Y-55006918D03*
D15*
X36314093Y-47386918D03*
D14*
X36314093Y-49421918D03*
D13*
X264914285Y-55006918D03*
D14*
X264914285Y-52971918D03*
D15*
X264914285Y-47386918D03*
D14*
X264914285Y-49421918D03*
D10*
X249725000Y-102195000D03*
X263325000Y-99655000D03*
D14*
X322064333Y-33921902D03*
D13*
X322064333Y-35956902D03*
D15*
X322064333Y-28336902D03*
D14*
X322064333Y-30371902D03*
D10*
X121187500Y-83185000D03*
X134687500Y-80645000D03*
D14*
X322064333Y-52971918D03*
D13*
X322064333Y-55006918D03*
D15*
X322064333Y-47386918D03*
D14*
X322064333Y-49421918D03*
D13*
X283964301Y-74056934D03*
D14*
X283964301Y-72021934D03*
X283964301Y-68471934D03*
D15*
X283964301Y-66436934D03*
D14*
X138707929Y-52971918D03*
D13*
X138707929Y-55006918D03*
D15*
X138707929Y-47386918D03*
D14*
X138707929Y-49421918D03*
D13*
X155376693Y-35956902D03*
D14*
X155376693Y-33921902D03*
X155376693Y-30371902D03*
D15*
X155376693Y-28336902D03*
D13*
X117276661Y-74056934D03*
D14*
X117276661Y-72021934D03*
X117276661Y-68471934D03*
D15*
X117276661Y-66436934D03*
D14*
X217289245Y-52971918D03*
D13*
X217289245Y-55006918D03*
D15*
X217289245Y-47386918D03*
D14*
X217289245Y-49421918D03*
X164901701Y-91071950D03*
D13*
X164901701Y-93106950D03*
D15*
X164901701Y-85486950D03*
D14*
X164901701Y-87521950D03*
D10*
X216387500Y-25995000D03*
X229987500Y-23455000D03*
D13*
X264914285Y-93106950D03*
D14*
X264914285Y-91071950D03*
D15*
X264914285Y-85486950D03*
D14*
X264914285Y-87521950D03*
D10*
X287825000Y-45045000D03*
X301425000Y-42505000D03*
D14*
X117276661Y-33921902D03*
D13*
X117276661Y-35956902D03*
D15*
X117276661Y-28336902D03*
D14*
X117276661Y-30371902D03*
D13*
X74414125Y-74056934D03*
D14*
X74414125Y-72021934D03*
D15*
X74414125Y-66436934D03*
D14*
X74414125Y-68471934D03*
D13*
X38100032Y-35956902D03*
D14*
X38100032Y-33921902D03*
X38100032Y-30371902D03*
D15*
X38100032Y-28336902D03*
D10*
X268775000Y-64095000D03*
X282375000Y-61555000D03*
D14*
X36314093Y-72021934D03*
D13*
X36314093Y-74056934D03*
D14*
X36314093Y-68471934D03*
D15*
X36314093Y-66436934D03*
D13*
X217289245Y-74056934D03*
D14*
X217289245Y-72021934D03*
X217289245Y-68471934D03*
D15*
X217289245Y-66436934D03*
D10*
X249725000Y-45045000D03*
X263325000Y-42505000D03*
D13*
X283964301Y-112156966D03*
D14*
X283964301Y-110121966D03*
D15*
X283964301Y-104536966D03*
D14*
X283964301Y-106571966D03*
X283964301Y-52971918D03*
D13*
X283964301Y-55006918D03*
D15*
X283964301Y-47386918D03*
D14*
X283964301Y-49421918D03*
X74414125Y-110121966D03*
D13*
X74414125Y-112156966D03*
D14*
X74414125Y-106571966D03*
D15*
X74414125Y-104536966D03*
D13*
X160139197Y-55006918D03*
D14*
X160139197Y-52971918D03*
D15*
X160139197Y-47386918D03*
D14*
X160139197Y-49421918D03*
X55364109Y-110121966D03*
D13*
X55364109Y-112156966D03*
D15*
X55364109Y-104536966D03*
D14*
X55364109Y-106571966D03*
D13*
X241101765Y-93106950D03*
D14*
X241101765Y-91071950D03*
X241101765Y-87521950D03*
D15*
X241101765Y-85486950D03*
D14*
X203001733Y-91071950D03*
D13*
X203001733Y-93106950D03*
D14*
X203001733Y-87521950D03*
D15*
X203001733Y-85486950D03*
D13*
X322064333Y-74056934D03*
D14*
X322064333Y-72021934D03*
D15*
X322064333Y-66436934D03*
D14*
X322064333Y-68471934D03*
X93464141Y-33921902D03*
D13*
X93464141Y-35956902D03*
D15*
X93464141Y-28336902D03*
D14*
X93464141Y-30371902D03*
D10*
X225912500Y-83145000D03*
X239512500Y-80605000D03*
D14*
X198239229Y-52971918D03*
D13*
X198239229Y-55006918D03*
D15*
X198239229Y-47386918D03*
D14*
X198239229Y-49421918D03*
D13*
X174426709Y-35956902D03*
D14*
X174426709Y-33921902D03*
X174426709Y-30371902D03*
D15*
X174426709Y-28336902D03*
D14*
X55364109Y-52971918D03*
D13*
X55364109Y-55006918D03*
D14*
X55364109Y-49421918D03*
D15*
X55364109Y-47386918D03*
D14*
X179189213Y-52971918D03*
D13*
X179189213Y-55006918D03*
D14*
X179189213Y-49421918D03*
D15*
X179189213Y-47386918D03*
D17*
X88265000Y-87850000D03*
X90805000Y-101350000D03*
D13*
X74414125Y-93106950D03*
D14*
X74414125Y-91071950D03*
D15*
X74414125Y-85486950D03*
D14*
X74414125Y-87521950D03*
D19*
X180975152Y-20290642D03*
X183475152Y-20290642D03*
X178475152Y-20290642D03*
D13*
X136326677Y-35956902D03*
D14*
X136326677Y-33921902D03*
X136326677Y-30371902D03*
D15*
X136326677Y-28336902D03*
D14*
X55364109Y-33921902D03*
D13*
X55364109Y-35956902D03*
D15*
X55364109Y-28336902D03*
D14*
X55364109Y-30371902D03*
D13*
X264914285Y-35956902D03*
D14*
X264914285Y-33921902D03*
D15*
X264914285Y-28336902D03*
D14*
X264914285Y-30371902D03*
D10*
X221150000Y-45045000D03*
X234750000Y-42505000D03*
D16*
X240037704Y-37064093D03*
X245737704Y-37064093D03*
X245737704Y-35564093D03*
X240037704Y-35564093D03*
D14*
X131564173Y-110121966D03*
D13*
X131564173Y-112156966D03*
D15*
X131564173Y-104536966D03*
D14*
X131564173Y-106571966D03*
D10*
X249725000Y-83145000D03*
X263325000Y-80605000D03*
X268775000Y-25995000D03*
X282375000Y-23455000D03*
D14*
X36314093Y-91071950D03*
D13*
X36314093Y-93106950D03*
D14*
X36314093Y-87521950D03*
D15*
X36314093Y-85486950D03*
D14*
X222051749Y-91071950D03*
D13*
X222051749Y-93106950D03*
D14*
X222051749Y-87521950D03*
D15*
X222051749Y-85486950D03*
D14*
X283964301Y-91071950D03*
D13*
X283964301Y-93106950D03*
D14*
X283964301Y-87521950D03*
D15*
X283964301Y-85486950D03*
D10*
X116375000Y-102195000D03*
X129975000Y-99655000D03*
D14*
X36314093Y-110121966D03*
D13*
X36314093Y-112156966D03*
D15*
X36314093Y-104536966D03*
D14*
X36314093Y-106571966D03*
X117276661Y-52971918D03*
D13*
X117276661Y-55006918D03*
D15*
X117276661Y-47386918D03*
D14*
X117276661Y-49421918D03*
X176807961Y-110121966D03*
D13*
X176807961Y-112156966D03*
D14*
X176807961Y-106571966D03*
D15*
X176807961Y-104536966D03*
D13*
X155376693Y-112156966D03*
D14*
X155376693Y-110121966D03*
X155376693Y-106571966D03*
D15*
X155376693Y-104536966D03*
D10*
X287825000Y-64095000D03*
X301425000Y-61555000D03*
D20*
X234553322Y-32146902D03*
X247054895Y-30360963D03*
X305990882Y-42267223D03*
X305990882Y-51792231D03*
X307181508Y-60126613D03*
X307776821Y-51792231D03*
X308372134Y-42267223D03*
X307181508Y-72032873D03*
X317047642Y-71437560D03*
X83939133Y-101798523D03*
X193476725Y-26193772D03*
X195262664Y-31551589D03*
X193476725Y-52982857D03*
X193476725Y-45839101D03*
X193476725Y-72032873D03*
X193476725Y-65484430D03*
X198239229Y-84534446D03*
X198239229Y-91082889D03*
X195857977Y-110132905D03*
X195857977Y-103584462D03*
X213717367Y-26789085D03*
X213717367Y-32742215D03*
X212526741Y-45839101D03*
X212526741Y-52982857D03*
X212526741Y-72032873D03*
X212526741Y-65484430D03*
X217289245Y-84534446D03*
X217289245Y-91082889D03*
X217289245Y-103584462D03*
X217289245Y-110132905D03*
X231576757Y-52982857D03*
X231576757Y-45839101D03*
X231576757Y-65484430D03*
X231576757Y-72032873D03*
X236339261Y-84534446D03*
X236339261Y-91082889D03*
X236339261Y-110132905D03*
X236339261Y-103584462D03*
X260151781Y-29170337D03*
X263128346Y-32146902D03*
X260151781Y-45839101D03*
X260151781Y-52982857D03*
X260151781Y-65484430D03*
X260151781Y-72032873D03*
X260151781Y-84534446D03*
X260151781Y-91082889D03*
X260151781Y-110132905D03*
X260151781Y-103584462D03*
X282773675Y-32742215D03*
X282773675Y-29522402D03*
X285154927Y-52982857D03*
X285154927Y-48572418D03*
X285154927Y-72032873D03*
X285154927Y-67622434D03*
X279201797Y-91082889D03*
X279201797Y-84534446D03*
X279201797Y-110132905D03*
X279201797Y-103584462D03*
X302424379Y-26199147D03*
X302419004Y-27979711D03*
X298251813Y-45839101D03*
X298251813Y-52982857D03*
X298251813Y-72032873D03*
X298251813Y-64889117D03*
X298251813Y-91082889D03*
X298251813Y-85129759D03*
X298251813Y-110132905D03*
X298251813Y-103584462D03*
X319683081Y-30956276D03*
X319683081Y-33932841D03*
X322063792Y-51494488D03*
X320421620Y-49852316D03*
X320873707Y-67622434D03*
X320873707Y-72032873D03*
X311354074Y-102994524D03*
X308967447Y-100607897D03*
X248245521Y-48220353D03*
X236339261Y-24407833D03*
X248245521Y-41671910D03*
X242887704Y-24407833D03*
X296465874Y-39290658D03*
X255389277Y-40481284D03*
X247054895Y-34782341D03*
X293489309Y-38354219D03*
X267890850Y-56300548D03*
X311944012Y-51792231D03*
X201518825Y-56262453D03*
X26193772Y-29170337D03*
X289917431Y-56554735D03*
X223242375Y-56300548D03*
X219075184Y-56300548D03*
X58935987Y-56300548D03*
X182761091Y-56300548D03*
X312241144Y-53280424D03*
X161031896Y-61019480D03*
X77092904Y-58042920D03*
X163115488Y-61019480D03*
X207169023Y-58935888D03*
X198239328Y-58935888D03*
X317896608Y-53280424D03*
X248542760Y-58935888D03*
X289917431Y-57745361D03*
X79771808Y-58935888D03*
X22919512Y-58042920D03*
X182760784Y-58935888D03*
X58935888Y-58042920D03*
X285750240Y-58935987D03*
X180975152Y-74414125D03*
X182761091Y-51196918D03*
X183356404Y-54173483D03*
X23812520Y-38100032D03*
X32742215Y-29170337D03*
X177998587Y-23217207D03*
X177998587Y-29765650D03*
X182761091Y-41671910D03*
X185737656Y-79771942D03*
X185737656Y-94059454D03*
X180975152Y-60126613D03*
X201811107Y-40481284D03*
X38100032Y-99417271D03*
X205978298Y-74414125D03*
X205978298Y-89296950D03*
X205978298Y-86320385D03*
X40481284Y-30956276D03*
X197048603Y-31551589D03*
X201811107Y-47625040D03*
X197048603Y-29170337D03*
X201811107Y-54768796D03*
X200025168Y-65484430D03*
X38100032Y-40481284D03*
X39885971Y-79771942D03*
X39885971Y-60721926D03*
X57150048Y-98821958D03*
X225623627Y-98821958D03*
X57150048Y-36314093D03*
X57150048Y-28575024D03*
X58935987Y-79771942D03*
X225623627Y-79771942D03*
X220861123Y-47625040D03*
X57150048Y-39885971D03*
X215503306Y-28575024D03*
X220861123Y-60721926D03*
X215503306Y-32742215D03*
X58935987Y-60721926D03*
X250031460Y-39290658D03*
X249436147Y-79771942D03*
X76200064Y-60721926D03*
X76200064Y-30956276D03*
X249436147Y-53578170D03*
X85129759Y-87511011D03*
X249436147Y-49410979D03*
X249436147Y-61317239D03*
X76200064Y-36909406D03*
X247650208Y-99417271D03*
X220860752Y-58042920D03*
X253008025Y-32146902D03*
X217586536Y-58042920D03*
X253008025Y-36314093D03*
X76200064Y-54173483D03*
X250031460Y-29170337D03*
X76200064Y-39290658D03*
X245268956Y-76200064D03*
X266700224Y-36909406D03*
X100012584Y-39885971D03*
X266700224Y-60126613D03*
X266700224Y-97631332D03*
X100012584Y-60126613D03*
X100012584Y-36314093D03*
X250031460Y-76200064D03*
X266700224Y-29170337D03*
X268486163Y-41671910D03*
X100012584Y-55364109D03*
X268486163Y-79771942D03*
X223837688Y-76200064D03*
X266700224Y-32146902D03*
X221456436Y-77390690D03*
X100012584Y-30360963D03*
X266700224Y-55364109D03*
X222988188Y-78581316D03*
X286940866Y-29170337D03*
X120253226Y-89296950D03*
X245268956Y-77390690D03*
X120253226Y-60721926D03*
X120253226Y-40481284D03*
X120253226Y-35718780D03*
X264914285Y-77390690D03*
X120253226Y-54768796D03*
X288131492Y-85725072D03*
X288726805Y-41671910D03*
X291108057Y-38441158D03*
X288726805Y-48572418D03*
X288726805Y-60721926D03*
X250031460Y-77390690D03*
X286940866Y-31551589D03*
X225028314Y-78581316D03*
X288131492Y-79771942D03*
X120253226Y-29765650D03*
X268486163Y-77390690D03*
X120253226Y-92868828D03*
X288131492Y-98821958D03*
X120253226Y-77986003D03*
X120253226Y-73818812D03*
X288131492Y-67270369D03*
X147637624Y-79771942D03*
X139303242Y-32742215D03*
X306840382Y-48220353D03*
X286345553Y-95250080D03*
X305990882Y-67622434D03*
X289917431Y-95250080D03*
X245864269Y-95250080D03*
X142875120Y-40481284D03*
X317905479Y-31551589D03*
X150018876Y-95250080D03*
X142875120Y-73818812D03*
X249436147Y-95250080D03*
X142875120Y-55364109D03*
X316706516Y-77390690D03*
X225623627Y-95250080D03*
X142875120Y-60126613D03*
X306840382Y-52498987D03*
X307776821Y-41076597D03*
X268486163Y-95250080D03*
X139303242Y-35123467D03*
X264914285Y-95250080D03*
X222051749Y-95250080D03*
X245864269Y-96440706D03*
X166687640Y-75009438D03*
X167878266Y-96440706D03*
X161925136Y-59531300D03*
X161925136Y-54768796D03*
X225623627Y-96440706D03*
X166687640Y-79771942D03*
X289917431Y-96440706D03*
X264914285Y-96440706D03*
X222051749Y-96440706D03*
X249436147Y-96440706D03*
X157162632Y-35123467D03*
X157162632Y-22621894D03*
X268486163Y-96440706D03*
X286345553Y-96440706D03*
X167878266Y-92868828D03*
X161925136Y-39885971D03*
X285154927Y-29170337D03*
X285154927Y-31551589D03*
D21*
X35575000Y-31075000D02*
X37396934Y-31075000D01*
X37396934Y-31075000D02*
X38100032Y-30371902D01*
X38100032Y-28336902D02*
X38100032Y-30371902D01*
X189298595Y-30371902D02*
X188118908Y-31551589D01*
X226218940Y-31551589D02*
X227398627Y-30371902D01*
X322064333Y-30956276D02*
X322064333Y-30371902D01*
X136326677Y-35956902D02*
X136326677Y-33921902D01*
X305395569Y-28575024D02*
X305395569Y-31551589D01*
X301450630Y-35636111D02*
X300633065Y-34818546D01*
X183356404Y-31551589D02*
X180975152Y-33932841D01*
X212526741Y-28336902D02*
X212526741Y-30371902D01*
X298847126Y-31551589D02*
X299442439Y-31551589D01*
X260736155Y-30371902D02*
X259556468Y-31551589D01*
X264914285Y-28336902D02*
X264914285Y-30371902D01*
X93464141Y-33921902D02*
X74414125Y-33921902D01*
X273843980Y-31551589D02*
X272664293Y-30371902D01*
X220254871Y-30371902D02*
X221434558Y-31551589D01*
X231576757Y-28336902D02*
X231576757Y-30371902D01*
X174426709Y-33921902D02*
X155376693Y-33921902D01*
X283964301Y-30371902D02*
X287525240Y-30371902D01*
X93464141Y-33921902D02*
X117276661Y-33921902D01*
X234553322Y-32146902D02*
X233351757Y-32146902D01*
X304204943Y-27395337D02*
X303885085Y-27075479D01*
X288704927Y-31551589D02*
X298251813Y-31551589D01*
X174426709Y-35956902D02*
X174426709Y-33921902D01*
X155376693Y-33921902D02*
X136326677Y-33921902D01*
X253603338Y-30360963D02*
X247054895Y-30360963D01*
X188118908Y-31551589D02*
X183356404Y-31551589D01*
X207168924Y-31551589D02*
X208348611Y-30371902D01*
X304204943Y-25360337D02*
X304204943Y-27395337D01*
X299156045Y-27075479D02*
X298251813Y-27979711D01*
X193476725Y-30371902D02*
X201204855Y-30371902D01*
X227398627Y-30371902D02*
X231576757Y-30371902D01*
X304215882Y-27395337D02*
X305395569Y-28575024D01*
X202384542Y-31551589D02*
X207168924Y-31551589D01*
X305395569Y-31551589D02*
X306586195Y-32742215D01*
X254793964Y-31551589D02*
X253603338Y-30360963D01*
X298251813Y-31551589D02*
X298847126Y-31551589D01*
X304204943Y-27395337D02*
X304215882Y-27395337D01*
X279786171Y-30371902D02*
X278606484Y-31551589D01*
X193476725Y-30371902D02*
X189298595Y-30371902D01*
X259556468Y-31551589D02*
X254793964Y-31551589D01*
X298251813Y-27979711D02*
X298251813Y-31551589D01*
X233351757Y-32146902D02*
X231576757Y-30371902D01*
X283964301Y-28336902D02*
X283964301Y-30371902D01*
X264914285Y-30371902D02*
X260736155Y-30371902D01*
X303885085Y-27075479D02*
X299156045Y-27075479D01*
X55364109Y-33921902D02*
X38100032Y-33921902D01*
X322064333Y-30371902D02*
X322064333Y-28336902D01*
X117276661Y-33921902D02*
X117276661Y-35956902D01*
X155376693Y-33921902D02*
X155376693Y-35956902D01*
X287525240Y-30371902D02*
X288704927Y-31551589D01*
X38100032Y-35956902D02*
X38100032Y-33921902D01*
X278606484Y-31551589D02*
X273843980Y-31551589D01*
X283964301Y-30371902D02*
X279786171Y-30371902D01*
X180964213Y-33921902D02*
X174426709Y-33921902D01*
X93464141Y-35956902D02*
X93464141Y-33921902D01*
X320278394Y-32742215D02*
X322064333Y-30956276D01*
X55364109Y-35956902D02*
X55364109Y-33921902D01*
X306586195Y-32742215D02*
X320278394Y-32742215D01*
X300633065Y-34818546D02*
X300633065Y-32742215D01*
X201204855Y-30371902D02*
X202384542Y-31551589D01*
X300633065Y-32742215D02*
X299442439Y-31551589D01*
X193476725Y-28336902D02*
X193476725Y-30371902D01*
X221434558Y-31551589D02*
X226218940Y-31551589D01*
X208348611Y-30371902D02*
X212526741Y-30371902D01*
X74414125Y-33921902D02*
X55364109Y-33921902D01*
X74414125Y-35956902D02*
X74414125Y-33921902D01*
X212526741Y-30371902D02*
X220254871Y-30371902D01*
X136326677Y-33921902D02*
X117276661Y-33921902D01*
X272664293Y-30371902D02*
X264914285Y-30371902D01*
X34275000Y-42505000D02*
X36314093Y-44544093D01*
X36314093Y-47386918D02*
X36314093Y-49421918D01*
X36314093Y-44544093D02*
X36314093Y-47386918D01*
X236339261Y-47386918D02*
X236339261Y-49421918D01*
X303014317Y-49421918D02*
X298858065Y-49421918D01*
X236339261Y-49421918D02*
X236339261Y-50601605D01*
X74414125Y-55006918D02*
X74414125Y-52971918D01*
X55364109Y-55006918D02*
X55364109Y-52971918D01*
X303990630Y-46410605D02*
X303014317Y-47386918D01*
X179189213Y-52971918D02*
X185748595Y-52971918D01*
X211953306Y-50601605D02*
X207168924Y-50601605D01*
X239315826Y-53578170D02*
X247650208Y-53578170D01*
X250626773Y-50601605D02*
X259556468Y-50601605D01*
X310753386Y-51196918D02*
X310753386Y-53578170D01*
X319087768Y-54768796D02*
X320278394Y-53578170D01*
X291714309Y-49421918D02*
X283964301Y-49421918D01*
X278628362Y-50601605D02*
X273843980Y-50601605D01*
X179189213Y-52971918D02*
X179189213Y-55006918D01*
X311944012Y-54768796D02*
X319087768Y-54768796D01*
X226218940Y-50601605D02*
X225039253Y-49421918D01*
X217289245Y-47386918D02*
X217289245Y-49421918D01*
X298858065Y-49421918D02*
X297678378Y-50601605D01*
X192881412Y-50601605D02*
X194061099Y-49421918D01*
X160139197Y-55006918D02*
X160139197Y-52971918D01*
X264914285Y-49421918D02*
X260736155Y-49421918D01*
X297678378Y-50601605D02*
X292893996Y-50601605D01*
X198239229Y-47386918D02*
X198239229Y-49421918D01*
X185748595Y-52971918D02*
X188118908Y-50601605D01*
X93464141Y-55006918D02*
X93464141Y-52971918D01*
X247650208Y-53578170D02*
X250626773Y-50601605D01*
X36314093Y-52971918D02*
X179189213Y-52971918D01*
X303014317Y-47386918D02*
X303014317Y-49421918D01*
X217289245Y-49421918D02*
X213132993Y-49421918D01*
X272664293Y-49421918D02*
X264914285Y-49421918D01*
X236339261Y-49421918D02*
X232183009Y-49421918D01*
X213132993Y-49421918D02*
X211953306Y-50601605D01*
X322064333Y-47386918D02*
X322064333Y-49421918D01*
X310753386Y-53578170D02*
X311944012Y-54768796D01*
X320278394Y-51196918D02*
X322053394Y-49421918D01*
X205989237Y-49421918D02*
X198239229Y-49421918D01*
X36314093Y-55006918D02*
X36314093Y-52971918D01*
X308978386Y-49421918D02*
X310753386Y-51196918D01*
X322053394Y-49421918D02*
X322064333Y-49421918D01*
X231003322Y-50601605D02*
X226218940Y-50601605D01*
X188118908Y-50601605D02*
X192881412Y-50601605D01*
X273843980Y-50601605D02*
X272664293Y-49421918D01*
X303990630Y-35636111D02*
X303990630Y-46410605D01*
X292893996Y-50601605D02*
X291714309Y-49421918D01*
X207168924Y-50601605D02*
X205989237Y-49421918D01*
X194061099Y-49421918D02*
X198239229Y-49421918D01*
X264914285Y-49421918D02*
X264914285Y-47386918D01*
X236339261Y-50601605D02*
X239315826Y-53578170D01*
X320278394Y-53578170D02*
X320278394Y-51196918D01*
X260736155Y-49421918D02*
X259556468Y-50601605D01*
X232183009Y-49421918D02*
X231003322Y-50601605D01*
X283964301Y-49421918D02*
X279808049Y-49421918D01*
X117276661Y-55006918D02*
X117276661Y-52971918D01*
X283964301Y-47386918D02*
X283964301Y-49421918D01*
X303014317Y-49421918D02*
X308978386Y-49421918D01*
X225039253Y-49421918D02*
X217289245Y-49421918D01*
X279808049Y-49421918D02*
X278628362Y-50601605D01*
X138707929Y-55006918D02*
X138707929Y-52971918D01*
X36314093Y-63594093D02*
X34275000Y-61555000D01*
X36314093Y-68471934D02*
X36314093Y-66436934D01*
X36314093Y-66436934D02*
X36314093Y-63594093D01*
X207147046Y-69651621D02*
X211931428Y-69651621D01*
X311944012Y-69651621D02*
X316706516Y-69651621D01*
X316706516Y-69651621D02*
X317886203Y-68471934D01*
X283964301Y-68471934D02*
X283964301Y-66436934D01*
X306530630Y-35636111D02*
X306530630Y-41727475D01*
X117276661Y-72021934D02*
X117276661Y-74056934D01*
X279786171Y-68471934D02*
X278606484Y-69651621D01*
X160139197Y-74056934D02*
X160139197Y-72021934D01*
X283964301Y-68471934D02*
X279786171Y-68471934D01*
X310764325Y-68471934D02*
X311944012Y-69651621D01*
X55364109Y-72021934D02*
X36314093Y-72021934D01*
X198239229Y-66436934D02*
X198239229Y-68471934D01*
X306530630Y-41727475D02*
X305990882Y-42267223D01*
X226218940Y-69651621D02*
X225028314Y-68460995D01*
X278606484Y-69651621D02*
X273843980Y-69651621D01*
X305990882Y-51792231D02*
X305990882Y-58340674D01*
X179189213Y-72021934D02*
X160139197Y-72021934D01*
X303014317Y-68471934D02*
X310764325Y-68471934D01*
X93464141Y-72021934D02*
X74414125Y-72021934D01*
X211931428Y-69651621D02*
X213111115Y-68471934D01*
X272664293Y-68471934D02*
X264914285Y-68471934D01*
X304204943Y-60126613D02*
X304204943Y-65246308D01*
X185748595Y-72021934D02*
X179189213Y-72021934D01*
X225017375Y-68471934D02*
X217289245Y-68471934D01*
X138707929Y-72021934D02*
X138707929Y-74056934D01*
X93464141Y-72021934D02*
X93464141Y-74056934D01*
X230981444Y-69651621D02*
X226218940Y-69651621D01*
X117276661Y-72021934D02*
X93464141Y-72021934D01*
X259556468Y-69651621D02*
X254793964Y-69651621D01*
X188118908Y-69651621D02*
X185748595Y-72021934D01*
X230981444Y-69651621D02*
X232161131Y-68471934D01*
X273843980Y-69651621D02*
X272664293Y-68471934D01*
X192881412Y-69651621D02*
X188118908Y-69651621D01*
X253614277Y-68471934D02*
X236339261Y-68471934D01*
X74414125Y-72021934D02*
X74414125Y-74056934D01*
X36314093Y-72021934D02*
X36314093Y-74056934D01*
X236339261Y-66436934D02*
X236339261Y-68471934D01*
X292893996Y-69651621D02*
X291714309Y-68471934D01*
X304204943Y-65246308D02*
X303014317Y-66436934D01*
X138707929Y-72021934D02*
X117276661Y-72021934D01*
X217289245Y-66436934D02*
X217289245Y-68471934D01*
X198239229Y-68471934D02*
X194061099Y-68471934D01*
X74414125Y-72021934D02*
X55364109Y-72021934D01*
X303014317Y-66436934D02*
X303014317Y-68471934D01*
X303014317Y-68471934D02*
X298836187Y-68471934D01*
X322064333Y-66436934D02*
X322064333Y-68471934D01*
X232161131Y-68471934D02*
X236339261Y-68471934D01*
X179189213Y-72021934D02*
X179189213Y-74056934D01*
X291714309Y-68471934D02*
X283964301Y-68471934D01*
X55364109Y-72021934D02*
X55364109Y-74056934D01*
X225028314Y-68460995D02*
X225017375Y-68471934D01*
X205967359Y-68471934D02*
X207147046Y-69651621D01*
X198239229Y-68471934D02*
X205967359Y-68471934D01*
X213111115Y-68471934D02*
X217289245Y-68471934D01*
X305990882Y-58340674D02*
X304204943Y-60126613D01*
X194061099Y-68471934D02*
X192881412Y-69651621D01*
X297656500Y-69651621D02*
X292893996Y-69651621D01*
X264914285Y-66436934D02*
X264914285Y-68471934D01*
X264914285Y-68471934D02*
X260736155Y-68471934D01*
X317886203Y-68471934D02*
X322064333Y-68471934D01*
X160139197Y-72021934D02*
X138707929Y-72021934D01*
X298836187Y-68471934D02*
X297656500Y-69651621D01*
X254793964Y-69651621D02*
X253614277Y-68471934D01*
X260736155Y-68471934D02*
X259556468Y-69651621D01*
X36314093Y-87521950D02*
X36314093Y-85486950D01*
X36314093Y-82644093D02*
X34275000Y-80605000D01*
X36314093Y-85486950D02*
X36314093Y-82644093D01*
X303014317Y-87521950D02*
X303014317Y-85486950D01*
X309070630Y-35636111D02*
X309070630Y-41568727D01*
X210751741Y-87521950D02*
X203001733Y-87521950D01*
X203001733Y-87521950D02*
X198823603Y-87521950D01*
X291692431Y-87521950D02*
X292872118Y-88701637D01*
X85129759Y-85129759D02*
X91082889Y-85129759D01*
X264914285Y-87521950D02*
X260736155Y-87521950D01*
X253614277Y-87521950D02*
X241101765Y-87521950D01*
X192881412Y-88701637D02*
X190511099Y-91071950D01*
X307776821Y-51792231D02*
X307776821Y-59531300D01*
X264914285Y-85486950D02*
X264914285Y-87521950D01*
X164901701Y-91071950D02*
X136326677Y-91071950D01*
X216693932Y-88701637D02*
X211931428Y-88701637D01*
X292872118Y-88701637D02*
X297656500Y-88701637D01*
X222051749Y-85486950D02*
X222051749Y-87521950D01*
X80367255Y-91071950D02*
X74414125Y-91071950D01*
X190511099Y-91071950D02*
X183951717Y-91071950D01*
X183951717Y-91071950D02*
X183951717Y-93106950D01*
X309070630Y-41568727D02*
X308372134Y-42267223D01*
X254793964Y-88701637D02*
X253614277Y-87521950D01*
X236923635Y-87521950D02*
X235743948Y-88701637D01*
X83343820Y-86915698D02*
X85129759Y-85129759D01*
X307181508Y-72032873D02*
X308967447Y-73818812D01*
X36314093Y-91071950D02*
X36314093Y-93106950D01*
X272642415Y-87521950D02*
X273822102Y-88701637D01*
X308967447Y-87521950D02*
X303014317Y-87521950D01*
X197643916Y-88701637D02*
X192881412Y-88701637D01*
X198823603Y-87521950D02*
X197643916Y-88701637D01*
X211931428Y-88701637D02*
X210751741Y-87521950D01*
X298836187Y-87521950D02*
X303014317Y-87521950D01*
X222051749Y-87521950D02*
X217873619Y-87521950D01*
X283964301Y-85486950D02*
X283964301Y-87521950D01*
X230981444Y-88701637D02*
X229801757Y-87521950D01*
X91082889Y-85129759D02*
X92868828Y-86915698D01*
X241101765Y-87521950D02*
X236923635Y-87521950D01*
X136326677Y-93106950D02*
X136326677Y-91071950D01*
X80367255Y-91071950D02*
X82164133Y-91071950D01*
X308967447Y-73818812D02*
X308967447Y-85486950D01*
X82164133Y-91071950D02*
X83343820Y-89892263D01*
X80367255Y-91071950D02*
X80367255Y-93106950D01*
X164901701Y-91071950D02*
X164901701Y-93106950D01*
X92890706Y-89296950D02*
X92868828Y-89296950D01*
X264914285Y-87521950D02*
X272642415Y-87521950D01*
X55364109Y-91071950D02*
X36314093Y-91071950D01*
X203001733Y-87521950D02*
X203001733Y-85486950D01*
X94665706Y-91071950D02*
X92890706Y-89296950D01*
X217873619Y-87521950D02*
X216693932Y-88701637D01*
X183951717Y-91071950D02*
X164901701Y-91071950D01*
X241101765Y-85486950D02*
X241101765Y-87521950D01*
X235743948Y-88701637D02*
X230981444Y-88701637D01*
X283964301Y-87521950D02*
X291692431Y-87521950D01*
X307776821Y-59531300D02*
X307181508Y-60126613D01*
X278606484Y-88701637D02*
X279786171Y-87521950D01*
X83343820Y-89892263D02*
X83343820Y-86915698D01*
X74414125Y-91071950D02*
X55364109Y-91071950D01*
X297656500Y-88701637D02*
X298836187Y-87521950D01*
X74414125Y-93106950D02*
X74414125Y-91071950D01*
X55364109Y-91071950D02*
X55364109Y-93106950D01*
X229801757Y-87521950D02*
X222051749Y-87521950D01*
X308967447Y-85486950D02*
X308967447Y-87521950D01*
X260736155Y-87521950D02*
X259556468Y-88701637D01*
X94665706Y-91071950D02*
X136326677Y-91071950D01*
X273822102Y-88701637D02*
X278606484Y-88701637D01*
X259556468Y-88701637D02*
X254793964Y-88701637D01*
X279786171Y-87521950D02*
X283964301Y-87521950D01*
X92868828Y-86915698D02*
X92868828Y-89296950D01*
X36314093Y-101694093D02*
X34275000Y-99655000D01*
X36314093Y-104536966D02*
X36314093Y-101694093D01*
X36314093Y-106571966D02*
X36314093Y-104536966D01*
X230959566Y-107751653D02*
X235743948Y-107751653D01*
X131564173Y-110121966D02*
X131564173Y-112156966D01*
X216715810Y-107751653D02*
X211931428Y-107751653D01*
X236923635Y-106571966D02*
X241101765Y-106571966D01*
X155376693Y-110121966D02*
X155376693Y-112156966D01*
X74414125Y-110121966D02*
X55364109Y-110121966D01*
X303014317Y-106571966D02*
X298836187Y-106571966D01*
X254772086Y-107751653D02*
X259556468Y-107751653D01*
X222051749Y-104536966D02*
X222051749Y-106571966D01*
X312539325Y-73223499D02*
X311348699Y-74414125D01*
X36314093Y-112156966D02*
X36314093Y-110121966D01*
X176807961Y-112156966D02*
X176807961Y-110121966D01*
X222051749Y-106571966D02*
X217895497Y-106571966D01*
X292872118Y-107751653D02*
X297656500Y-107751653D01*
X188129847Y-110121966D02*
X176807961Y-110121966D01*
X217895497Y-106571966D02*
X216715810Y-107751653D01*
X229779879Y-106571966D02*
X230959566Y-107751653D01*
X317047642Y-71691747D02*
X315515890Y-73223499D01*
X283964301Y-106571966D02*
X291692431Y-106571966D01*
X291692431Y-106571966D02*
X292872118Y-107751653D01*
X196442351Y-106571966D02*
X195262664Y-107751653D01*
X200620481Y-106571966D02*
X196442351Y-106571966D01*
X253592399Y-106571966D02*
X254772086Y-107751653D01*
X210751741Y-106571966D02*
X200620481Y-106571966D01*
X190500160Y-107751653D02*
X188129847Y-110121966D01*
X303014317Y-104536966D02*
X303014317Y-106571966D01*
X241101765Y-104536966D02*
X241101765Y-106571966D01*
X131564173Y-110121966D02*
X155376693Y-110121966D01*
X74414125Y-110121966D02*
X131564173Y-110121966D01*
X260736155Y-106571966D02*
X264914285Y-106571966D01*
X308610256Y-104536966D02*
X303014317Y-104536966D01*
X200620481Y-106571966D02*
X200620481Y-104536966D01*
X155376693Y-110121966D02*
X176807961Y-110121966D01*
X315515890Y-73223499D02*
X312539325Y-73223499D01*
X279786171Y-106571966D02*
X283964301Y-106571966D01*
X264914285Y-104536966D02*
X264914285Y-106571966D01*
X235743948Y-107751653D02*
X236923635Y-106571966D01*
X211931428Y-107751653D02*
X210751741Y-106571966D01*
X222051749Y-106571966D02*
X229779879Y-106571966D01*
X278606484Y-107751653D02*
X279786171Y-106571966D01*
X273822102Y-107751653D02*
X278606484Y-107751653D01*
X298836187Y-106571966D02*
X297656500Y-107751653D01*
X74414125Y-110121966D02*
X74414125Y-112156966D01*
X241101765Y-106571966D02*
X253592399Y-106571966D01*
X311348699Y-101798523D02*
X308610256Y-104536966D01*
X264914285Y-106571966D02*
X272642415Y-106571966D01*
X272642415Y-106571966D02*
X273822102Y-107751653D01*
X283964301Y-104536966D02*
X283964301Y-106571966D01*
X259556468Y-107751653D02*
X260736155Y-106571966D01*
X55364109Y-112156966D02*
X55364109Y-110121966D01*
X195262664Y-107751653D02*
X190500160Y-107751653D01*
X311348699Y-74414125D02*
X311348699Y-101798523D01*
X36314093Y-110121966D02*
X55364109Y-110121966D01*
X317047642Y-71437560D02*
X317047642Y-71691747D01*
X55364109Y-28336902D02*
X55364109Y-30371902D01*
X53325000Y-23455000D02*
X55364109Y-25494109D01*
X55364109Y-25494109D02*
X55364109Y-28336902D01*
X55364109Y-44544109D02*
X53325000Y-42505000D01*
X55364109Y-49421918D02*
X55364109Y-47386918D01*
X55364109Y-47386918D02*
X55364109Y-44544109D01*
X55364109Y-63594109D02*
X53325000Y-61555000D01*
X55364109Y-68471934D02*
X55364109Y-66436934D01*
X55364109Y-66436934D02*
X55364109Y-63594109D01*
X55364109Y-82644109D02*
X53325000Y-80605000D01*
X55364109Y-87521950D02*
X55364109Y-85486950D01*
X55364109Y-85486950D02*
X55364109Y-82644109D01*
X55364109Y-104536966D02*
X55364109Y-101694109D01*
X55364109Y-106571966D02*
X55364109Y-104536966D01*
X55364109Y-101694109D02*
X53325000Y-99655000D01*
X74414125Y-25494125D02*
X72375000Y-23455000D01*
X74414125Y-28336902D02*
X74414125Y-30371902D01*
X74414125Y-28336902D02*
X74414125Y-25494125D01*
X74414125Y-49421918D02*
X74414125Y-47386918D01*
X74414125Y-47386918D02*
X74414125Y-44544125D01*
X74414125Y-44544125D02*
X72375000Y-42505000D01*
X74414125Y-63594125D02*
X72375000Y-61555000D01*
X74414125Y-66436934D02*
X74414125Y-63594125D01*
X74414125Y-68471934D02*
X74414125Y-66436934D01*
X74414125Y-85486950D02*
X74414125Y-82644125D01*
X74414125Y-87521950D02*
X74414125Y-85486950D01*
X74414125Y-82644125D02*
X72375000Y-80605000D01*
X74414125Y-101694125D02*
X72375000Y-99655000D01*
X74414125Y-104536966D02*
X74414125Y-101694125D01*
X74414125Y-106571966D02*
X74414125Y-104536966D01*
X93464141Y-28336902D02*
X93464141Y-30371902D01*
X91425072Y-23455024D02*
X93464141Y-25494093D01*
X93464141Y-25494093D02*
X93464141Y-28336902D01*
X93464141Y-47386918D02*
X93464141Y-44544141D01*
X93464141Y-49421918D02*
X93464141Y-47386918D01*
X93464141Y-44544141D02*
X91425000Y-42505000D01*
X93464141Y-63594141D02*
X91425000Y-61555000D01*
X93464141Y-68471934D02*
X93464141Y-66436934D01*
X93464141Y-66436934D02*
X93464141Y-63594141D01*
X89856477Y-101798523D02*
X90805000Y-100850000D01*
X80367255Y-85486950D02*
X80367255Y-87521950D01*
X83939133Y-101798523D02*
X89856477Y-101798523D01*
X117276661Y-28336902D02*
X117276661Y-25494161D01*
X117276661Y-28336902D02*
X117276661Y-30371902D01*
X117276661Y-25494161D02*
X115237500Y-23455000D01*
X117276661Y-47386918D02*
X117276661Y-44544161D01*
X117276661Y-49421918D02*
X117276661Y-47386918D01*
X117276661Y-44544161D02*
X115237500Y-42505000D01*
X117276661Y-63594161D02*
X115237500Y-61555000D01*
X117276661Y-68471934D02*
X117276661Y-66436934D01*
X117276661Y-66436934D02*
X117276661Y-63594161D01*
X136326677Y-28336902D02*
X136326677Y-25494177D01*
X136326677Y-25494177D02*
X134287500Y-23455000D01*
X136326677Y-28336902D02*
X136326677Y-30371902D01*
X138707929Y-44544179D02*
X136668750Y-42505000D01*
X138707929Y-47386918D02*
X138707929Y-44544179D01*
X138707929Y-49421918D02*
X138707929Y-47386918D01*
X138707929Y-63594179D02*
X136668750Y-61555000D01*
X138707929Y-66436934D02*
X138707929Y-63594179D01*
X138707929Y-68471934D02*
X138707929Y-66436934D01*
X136326677Y-85486950D02*
X136326677Y-82784177D01*
X136326677Y-82784177D02*
X134187500Y-80645000D01*
X136326677Y-85486950D02*
X136326677Y-87521950D01*
X131564173Y-101694173D02*
X129525000Y-99655000D01*
X131564173Y-104536966D02*
X131564173Y-101694173D01*
X131564173Y-106571966D02*
X131564173Y-104536966D01*
X155376693Y-25494193D02*
X153337500Y-23455000D01*
X155376693Y-28336902D02*
X155376693Y-25494193D01*
X155376693Y-28336902D02*
X155376693Y-30371902D01*
X160139197Y-47386918D02*
X160139197Y-44544197D01*
X160139197Y-49421918D02*
X160139197Y-47386918D01*
X160139197Y-44544197D02*
X158100000Y-42505000D01*
X160139197Y-63594197D02*
X158100000Y-61555000D01*
X160139197Y-66436934D02*
X160139197Y-63594197D01*
X160139197Y-68471934D02*
X160139197Y-66436934D01*
X164901701Y-85486950D02*
X164901701Y-82644201D01*
X164901701Y-82644201D02*
X162862500Y-80605000D01*
X164901701Y-87521950D02*
X164901701Y-85486950D01*
X155376693Y-106571966D02*
X155376693Y-104536966D01*
X155376693Y-104536966D02*
X155376693Y-101694193D01*
X155376693Y-101694193D02*
X153337500Y-99655000D01*
X174426709Y-30371902D02*
X174426709Y-28336902D01*
X174426709Y-28336902D02*
X174426709Y-25494209D01*
X174426709Y-25494209D02*
X172387500Y-23455000D01*
X179189213Y-47386918D02*
X179189213Y-44544213D01*
X179189213Y-44544213D02*
X177150000Y-42505000D01*
X179189213Y-49421918D02*
X179189213Y-47386918D01*
X179189213Y-68471934D02*
X179189213Y-66436934D01*
X179189213Y-63594213D02*
X177150000Y-61555000D01*
X179189213Y-66436934D02*
X179189213Y-63594213D01*
X183951717Y-85486950D02*
X183951717Y-82644217D01*
X183951717Y-82644217D02*
X181912500Y-80605000D01*
X183951717Y-87521950D02*
X183951717Y-85486950D01*
X176807961Y-101694211D02*
X174768750Y-99655000D01*
X176807961Y-104536966D02*
X176807961Y-101694211D01*
X176807961Y-106571966D02*
X176807961Y-104536966D01*
X193833916Y-35956902D02*
X195262664Y-34528154D01*
X193476725Y-33921902D02*
X193476725Y-35956902D01*
X193476725Y-35956902D02*
X193833916Y-35956902D01*
X195262664Y-34528154D02*
X195262664Y-31551589D01*
X193476725Y-26193772D02*
X193476725Y-25494225D01*
X193476725Y-25494225D02*
X191437500Y-23455000D01*
X198228290Y-52982857D02*
X198239229Y-52971918D01*
X195262664Y-45839101D02*
X193476725Y-45839101D01*
X193476725Y-52982857D02*
X198228290Y-52982857D01*
X196200000Y-44901765D02*
X195262664Y-45839101D01*
X196200000Y-42505000D02*
X196200000Y-44306452D01*
X198239229Y-52971918D02*
X198239229Y-55006918D01*
X196200000Y-44306452D02*
X196200000Y-44901765D01*
X198239229Y-74056934D02*
X198239229Y-72021934D01*
X196200000Y-61555000D02*
X196200000Y-63951781D01*
X198228290Y-72032873D02*
X198239229Y-72021934D01*
X194667351Y-65484430D02*
X193476725Y-65484430D01*
X196200000Y-63951781D02*
X194667351Y-65484430D01*
X193476725Y-72032873D02*
X198228290Y-72032873D01*
X202990794Y-91082889D02*
X203001733Y-91071950D01*
X200962500Y-80605000D02*
X200962500Y-83001801D01*
X203001733Y-91071950D02*
X203001733Y-93106950D01*
X199429855Y-84534446D02*
X198239229Y-84534446D01*
X200962500Y-83001801D02*
X199429855Y-84534446D01*
X198239229Y-91082889D02*
X202990794Y-91082889D01*
X198581250Y-99655000D02*
X198581250Y-102051815D01*
X197048603Y-103584462D02*
X195857977Y-103584462D01*
X195857977Y-110132905D02*
X200609542Y-110132905D01*
X198581250Y-102051815D02*
X197048603Y-103584462D01*
X200609542Y-110132905D02*
X200620481Y-110121966D01*
X200620481Y-112156966D02*
X200620481Y-110121966D01*
X213717367Y-26684867D02*
X210487500Y-23455000D01*
X212537680Y-33921902D02*
X213717367Y-32742215D01*
X213717367Y-26789085D02*
X213717367Y-26684867D01*
X212526741Y-33921902D02*
X212537680Y-33921902D01*
X212526741Y-33921902D02*
X212526741Y-35956902D01*
X217289245Y-52971918D02*
X217289245Y-55006918D01*
X215250000Y-44901781D02*
X214312680Y-45839101D01*
X214312680Y-45839101D02*
X212526741Y-45839101D01*
X217278306Y-52982857D02*
X217289245Y-52971918D01*
X212526741Y-52982857D02*
X217278306Y-52982857D01*
X215250000Y-42505000D02*
X215250000Y-44901781D01*
X215250000Y-61555000D02*
X215250000Y-63951797D01*
X212526741Y-72032873D02*
X217278306Y-72032873D01*
X217289245Y-74056934D02*
X217289245Y-72021934D01*
X213717367Y-65484430D02*
X212526741Y-65484430D01*
X217278306Y-72032873D02*
X217289245Y-72021934D01*
X215250000Y-63951797D02*
X213717367Y-65484430D01*
X217289245Y-84534446D02*
X218479871Y-84534446D01*
X222051749Y-93106950D02*
X222051749Y-91071950D01*
X220012500Y-83001817D02*
X220012500Y-80605000D01*
X217300184Y-91071950D02*
X217289245Y-91082889D01*
X218479871Y-84534446D02*
X220012500Y-83001817D01*
X222051749Y-91071950D02*
X217300184Y-91071950D01*
X222051749Y-110121966D02*
X222051749Y-112156966D01*
X222051749Y-110121966D02*
X217300184Y-110121966D01*
X217300184Y-110121966D02*
X217289245Y-110132905D01*
X218479871Y-103584462D02*
X220012500Y-102051833D01*
X220012500Y-102051833D02*
X220012500Y-99655000D01*
X217289245Y-103584462D02*
X218479871Y-103584462D01*
X236339261Y-31551589D02*
X235148635Y-30360963D01*
X233362696Y-26193772D02*
X230623924Y-23455000D01*
X235159574Y-33921902D02*
X236339261Y-32742215D01*
X233958009Y-30360963D02*
X233362696Y-29765650D01*
X231576757Y-33921902D02*
X235159574Y-33921902D01*
X233362696Y-29765650D02*
X233362696Y-26193772D01*
X235148635Y-30360963D02*
X233958009Y-30360963D01*
X231576757Y-33921902D02*
X231576757Y-35956902D01*
X236339261Y-32742215D02*
X236339261Y-31551589D01*
X230623924Y-23455000D02*
X229537500Y-23455000D01*
X234300000Y-42505000D02*
X234300000Y-44901797D01*
X234300000Y-44901797D02*
X233362696Y-45839101D01*
X236328322Y-52982857D02*
X236339261Y-52971918D01*
X233362696Y-45839101D02*
X231576757Y-45839101D01*
X236339261Y-55006918D02*
X236339261Y-52971918D01*
X231576757Y-52982857D02*
X236328322Y-52982857D01*
X234300000Y-61555000D02*
X234300000Y-63951813D01*
X232767383Y-65484430D02*
X231576757Y-65484430D01*
X231576757Y-72032873D02*
X236328322Y-72032873D01*
X236339261Y-74056934D02*
X236339261Y-72021934D01*
X234300000Y-63951813D02*
X232767383Y-65484430D01*
X236328322Y-72032873D02*
X236339261Y-72021934D01*
X241101765Y-93106950D02*
X241101765Y-91071950D01*
X236350200Y-91071950D02*
X236339261Y-91082889D01*
X236339261Y-84534446D02*
X237529887Y-84534446D01*
X237529887Y-84534446D02*
X239062500Y-83001833D01*
X241101765Y-91071950D02*
X236350200Y-91071950D01*
X239062500Y-83001833D02*
X239062500Y-80605000D01*
X237529887Y-103584462D02*
X239062500Y-102051849D01*
X241101765Y-110121966D02*
X236350200Y-110121966D01*
X236339261Y-103584462D02*
X237529887Y-103584462D01*
X236350200Y-110121966D02*
X236339261Y-110132905D01*
X241101765Y-112156966D02*
X241101765Y-110121966D01*
X239062500Y-102051849D02*
X239062500Y-99655000D01*
X261937720Y-26789085D02*
X260747094Y-26789085D01*
X260747094Y-26789085D02*
X260151781Y-27384398D01*
X263128346Y-32146902D02*
X263139285Y-32146902D01*
X264914285Y-33921902D02*
X264914285Y-35956902D01*
X260151781Y-27384398D02*
X260151781Y-29170337D01*
X263139285Y-32146902D02*
X264914285Y-33921902D01*
X262875000Y-23455000D02*
X262875000Y-25851805D01*
X262875000Y-25851805D02*
X261937720Y-26789085D01*
X261937720Y-45839101D02*
X260151781Y-45839101D01*
X262875000Y-44901821D02*
X261937720Y-45839101D01*
X264914285Y-52971918D02*
X264914285Y-55006918D01*
X260151781Y-52982857D02*
X264903346Y-52982857D01*
X262875000Y-42505000D02*
X262875000Y-44901821D01*
X264903346Y-52982857D02*
X264914285Y-52971918D01*
X262875000Y-61555000D02*
X262875000Y-63951837D01*
X262875000Y-63951837D02*
X261342407Y-65484430D01*
X264903346Y-72032873D02*
X264914285Y-72021934D01*
X260151781Y-72032873D02*
X264903346Y-72032873D01*
X261342407Y-65484430D02*
X260151781Y-65484430D01*
X264914285Y-72021934D02*
X264914285Y-74056934D01*
X264914285Y-91071950D02*
X260162720Y-91071950D01*
X264914285Y-93106950D02*
X264914285Y-91071950D01*
X261342407Y-84534446D02*
X262875000Y-83001853D01*
X262875000Y-83001853D02*
X262875000Y-80605000D01*
X260151781Y-84534446D02*
X261342407Y-84534446D01*
X260162720Y-91071950D02*
X260151781Y-91082889D01*
X262875000Y-102051869D02*
X262875000Y-99655000D01*
X261342407Y-103584462D02*
X262875000Y-102051869D01*
X260151781Y-103584462D02*
X261342407Y-103584462D01*
X264914285Y-112156966D02*
X264914285Y-110121966D01*
X264914285Y-110121966D02*
X260162720Y-110121966D01*
X260162720Y-110121966D02*
X260151781Y-110132905D01*
X282784614Y-32742215D02*
X283964301Y-33921902D01*
X283964301Y-33921902D02*
X283964301Y-35956902D01*
X282773675Y-32742215D02*
X282784614Y-32742215D01*
X281925000Y-23455000D02*
X282804521Y-24334521D01*
X282804521Y-29491556D02*
X282773675Y-29522402D01*
X282804521Y-24334521D02*
X282804521Y-29491556D01*
X283975240Y-52982857D02*
X283964301Y-52971918D01*
X285154927Y-45734927D02*
X285154927Y-48572418D01*
X285154927Y-52982857D02*
X283975240Y-52982857D01*
X281925000Y-42505000D02*
X285154927Y-45734927D01*
X283964301Y-55006918D02*
X283964301Y-52971918D01*
X285154927Y-72032873D02*
X283975240Y-72032873D01*
X285154927Y-65484430D02*
X285154927Y-67622434D01*
X283975240Y-72032873D02*
X283964301Y-72021934D01*
X281925000Y-62254503D02*
X285154927Y-65484430D01*
X283964301Y-72021934D02*
X283964301Y-74056934D01*
X281925000Y-61555000D02*
X281925000Y-62254503D01*
X283964301Y-91071950D02*
X279212736Y-91071950D01*
X279212736Y-91071950D02*
X279201797Y-91082889D01*
X279201797Y-84534446D02*
X280392423Y-84534446D01*
X281925000Y-83001869D02*
X281925000Y-80605000D01*
X283964301Y-93106950D02*
X283964301Y-91071950D01*
X280392423Y-84534446D02*
X281925000Y-83001869D01*
X280392423Y-103584462D02*
X281925000Y-102051885D01*
X283964301Y-112156966D02*
X283964301Y-110121966D01*
X281925000Y-102051885D02*
X281925000Y-99655000D01*
X279201797Y-103584462D02*
X280392423Y-103584462D01*
X283964301Y-110121966D02*
X279212736Y-110121966D01*
X279212736Y-110121966D02*
X279201797Y-110132905D01*
X302419004Y-29159398D02*
X304204943Y-30945337D01*
X300975000Y-24749768D02*
X302424379Y-26199147D01*
X302419004Y-27979711D02*
X302419004Y-29159398D01*
X300975000Y-23455000D02*
X300975000Y-24749768D01*
X304204943Y-30945337D02*
X304204943Y-32980337D01*
X303003378Y-52982857D02*
X303014317Y-52971918D01*
X298251813Y-52982857D02*
X303003378Y-52982857D01*
X303014317Y-52971918D02*
X303014317Y-55006918D01*
X300037752Y-45839101D02*
X298251813Y-45839101D01*
X300975000Y-42505000D02*
X300975000Y-44901853D01*
X300975000Y-44901853D02*
X300037752Y-45839101D01*
X298251813Y-72032873D02*
X303003378Y-72032873D01*
X300975000Y-61555000D02*
X300975000Y-63951869D01*
X303014317Y-74056934D02*
X303014317Y-72021934D01*
X300975000Y-63951869D02*
X300037752Y-64889117D01*
X300037752Y-64889117D02*
X298251813Y-64889117D01*
X303003378Y-72032873D02*
X303014317Y-72021934D01*
X298847126Y-85112230D02*
X300975000Y-82984356D01*
X300975000Y-82984356D02*
X300975000Y-80605000D01*
X298251813Y-85129759D02*
X298847126Y-85129759D01*
X303014317Y-91071950D02*
X298262752Y-91071950D01*
X303014317Y-91071950D02*
X303014317Y-93106950D01*
X298262752Y-91071950D02*
X298251813Y-91082889D01*
X298847126Y-85129759D02*
X298847126Y-85112230D01*
X303014317Y-110121966D02*
X298262752Y-110121966D01*
X299442439Y-103584462D02*
X300975000Y-102051901D01*
X303014317Y-112156966D02*
X303014317Y-110121966D01*
X298251813Y-103584462D02*
X299442439Y-103584462D01*
X298262752Y-110121966D02*
X298251813Y-110132905D01*
X300975000Y-102051901D02*
X300975000Y-99655000D01*
X322053394Y-33932841D02*
X322064333Y-33921902D01*
X319087768Y-30956276D02*
X319683081Y-30956276D01*
X317905479Y-29773987D02*
X319087768Y-30956276D01*
X317905479Y-25574521D02*
X317905479Y-29773987D01*
X319683081Y-33932841D02*
X322053394Y-33932841D01*
X322064333Y-33921902D02*
X322064333Y-35956902D01*
X320025000Y-23455000D02*
X317905479Y-25574521D01*
X320916322Y-49357614D02*
X320421620Y-49852316D01*
X322063792Y-51494488D02*
X322063792Y-52971377D01*
X320025000Y-42505000D02*
X320916322Y-43396322D01*
X320916322Y-43396322D02*
X320916322Y-49357614D01*
X322064333Y-52971918D02*
X322064333Y-55006918D01*
X322063792Y-52971377D02*
X322064333Y-52971918D01*
X320904521Y-62434521D02*
X320904521Y-67591620D01*
X320904521Y-67591620D02*
X320873707Y-67622434D01*
X320873707Y-72032873D02*
X322053394Y-72032873D01*
X322064333Y-72021934D02*
X322064333Y-74056934D01*
X322053394Y-72032873D02*
X322064333Y-72021934D01*
X320025000Y-61555000D02*
X320904521Y-62434521D01*
X317260476Y-102994524D02*
X319405000Y-100850000D01*
X308967447Y-93106950D02*
X308967447Y-100607897D01*
X308967447Y-91071950D02*
X308967447Y-93106950D01*
X311354074Y-102994524D02*
X317260476Y-102994524D01*
X240233017Y-50006292D02*
X240387704Y-49851605D01*
X237529887Y-35718780D02*
X240233017Y-35718780D01*
X298910630Y-20416111D02*
X297544535Y-19050016D01*
X238720513Y-32146902D02*
X237529887Y-33337528D01*
X242887704Y-19050016D02*
X241697078Y-20240642D01*
X237529887Y-45243788D02*
X240233017Y-45243788D01*
X297544535Y-19050016D02*
X242887704Y-19050016D01*
X241697078Y-20240642D02*
X241697078Y-26789085D01*
X240506452Y-32146902D02*
X238720513Y-32146902D01*
X238720513Y-50006292D02*
X240233017Y-50006292D01*
X237529887Y-45243788D02*
X237529887Y-48815666D01*
X240233017Y-40481284D02*
X240387704Y-40326597D01*
X241697078Y-26789085D02*
X241697078Y-30956276D01*
X237529887Y-40481284D02*
X240233017Y-40481284D01*
X237529887Y-33337528D02*
X237529887Y-35718780D01*
X237529887Y-40481284D02*
X237529887Y-45243788D01*
X240233017Y-45243788D02*
X240387704Y-45089101D01*
X240233017Y-35718780D02*
X240387704Y-35564093D01*
X237529887Y-35718780D02*
X237529887Y-40481284D01*
X237529887Y-48815666D02*
X238720513Y-50006292D01*
X241697078Y-30956276D02*
X240506452Y-32146902D01*
X232767383Y-22621894D02*
X234553322Y-24407833D01*
X291729054Y-22517687D02*
X286241346Y-22517687D01*
X248245521Y-31551589D02*
X248245521Y-36909406D01*
X248245521Y-48220353D02*
X248245521Y-50601605D01*
X234553322Y-24407833D02*
X236339261Y-24407833D01*
X294084622Y-39290658D02*
X277415858Y-39290658D01*
X248245521Y-31551589D02*
X245864269Y-31551589D01*
X178475152Y-20290642D02*
X177234526Y-19050016D01*
X183475152Y-21312520D02*
X182761091Y-22026581D01*
X250626773Y-32742215D02*
X249436147Y-31551589D01*
X277415858Y-39290658D02*
X253008025Y-39290658D01*
X283964301Y-20240642D02*
X244078330Y-20240642D01*
X296370630Y-35636111D02*
X298910630Y-35636111D01*
X248245521Y-36909406D02*
X248245521Y-41671910D01*
X178475152Y-21312520D02*
X179189213Y-22026581D01*
X249436147Y-31551589D02*
X248245521Y-31551589D01*
X296370630Y-37004650D02*
X294084622Y-39290658D01*
X296370630Y-35636111D02*
X294679935Y-33945416D01*
X244673643Y-30360963D02*
X244673643Y-26193772D01*
X183475152Y-20290642D02*
X184715778Y-19050016D01*
X251222086Y-37504719D02*
X250626773Y-36909406D01*
X248245521Y-36909406D02*
X245542391Y-36909406D01*
X178475152Y-20290642D02*
X178475152Y-21312520D01*
X245542391Y-41671910D02*
X245387704Y-41826597D01*
X184715778Y-19050016D02*
X231576757Y-19050016D01*
X232767383Y-20240642D02*
X232767383Y-22621894D01*
X23217183Y-28575000D02*
X21075000Y-28575000D01*
X247650208Y-48220353D02*
X246018956Y-46589101D01*
X244078330Y-20240642D02*
X242887704Y-21431268D01*
X183475152Y-20290642D02*
X183475152Y-21312520D01*
X24407833Y-21431268D02*
X24407833Y-27384398D01*
X244673643Y-26193772D02*
X242887704Y-24407833D01*
X247495521Y-51351605D02*
X245387704Y-51351605D01*
X24407833Y-27384398D02*
X23217207Y-28575024D01*
X24407833Y-21431268D02*
X26789085Y-19050016D01*
X253008025Y-39290658D02*
X251222086Y-37504719D01*
X179189213Y-22026581D02*
X182761091Y-22026581D01*
X245542391Y-36909406D02*
X245387704Y-37064093D01*
X294679935Y-33945416D02*
X294679935Y-33932841D01*
X177234526Y-19050016D02*
X26789085Y-19050016D01*
X248245521Y-48220353D02*
X247650208Y-48220353D01*
X293830630Y-20416111D02*
X291729054Y-22517687D01*
X248245521Y-41671910D02*
X245542391Y-41671910D01*
X286241346Y-22517687D02*
X283964301Y-20240642D01*
X277093980Y-38968780D02*
X277093980Y-37504719D01*
X277415858Y-39290658D02*
X277093980Y-38968780D01*
X231576757Y-19050016D02*
X232767383Y-20240642D01*
X242887704Y-21431268D02*
X242887704Y-24407833D01*
X246018956Y-46589101D02*
X245387704Y-46589101D01*
X288750630Y-35636111D02*
X290453900Y-33932841D01*
X296370630Y-35636111D02*
X296370630Y-37004650D01*
X290453900Y-33932841D02*
X294679935Y-33932841D01*
X245864269Y-31551589D02*
X244673643Y-30360963D01*
X250626773Y-36909406D02*
X250626773Y-32742215D01*
X248245521Y-50601605D02*
X247495521Y-51351605D01*
X23217207Y-28575024D02*
X23217183Y-28575000D01*
X295275248Y-40481284D02*
X255389277Y-40481284D01*
X246169456Y-34782341D02*
X245387704Y-35564093D01*
X291290630Y-36155540D02*
X293489309Y-38354219D01*
X291290630Y-35636111D02*
X291290630Y-36155540D01*
X296465874Y-39290658D02*
X295275248Y-40481284D01*
X247054895Y-34782341D02*
X246169456Y-34782341D01*
X240387704Y-37064093D02*
X240387704Y-37981284D01*
X245387704Y-39409406D02*
X245387704Y-40326597D01*
X244673643Y-38695345D02*
X245387704Y-39409406D01*
X241101765Y-38695345D02*
X244673643Y-38695345D01*
X240387704Y-37981284D02*
X241101765Y-38695345D01*
X240387704Y-42743788D02*
X241101765Y-43457849D01*
X241101765Y-43457849D02*
X244673643Y-43457849D01*
X240387704Y-41826597D02*
X240387704Y-42743788D01*
X244673643Y-43457849D02*
X245387704Y-44171910D01*
X245387704Y-44171910D02*
X245387704Y-45089101D01*
X240387704Y-46589101D02*
X240387704Y-47506292D01*
X245387704Y-48934414D02*
X245387704Y-49851605D01*
X241101765Y-48220353D02*
X244673643Y-48220353D01*
X244673643Y-48220353D02*
X245387704Y-48934414D01*
X240387704Y-47506292D02*
X241101765Y-48220353D01*
X26193728Y-30360912D02*
X26193728Y-42564808D01*
X26193728Y-42564808D02*
X28277320Y-44648400D01*
X277415858Y-56554735D02*
X268145037Y-56554735D01*
X26193772Y-30360868D02*
X26193728Y-30360912D01*
X316824521Y-48697047D02*
X313729337Y-51792231D01*
X201480730Y-56300548D02*
X182761091Y-56300548D01*
X33976348Y-56300548D02*
X58935987Y-56300548D01*
X316824521Y-45957106D02*
X316824521Y-48697047D01*
X201518825Y-56262453D02*
X201480730Y-56300548D01*
X31595100Y-53919300D02*
X33976348Y-56300548D01*
X289917431Y-56554735D02*
X277415858Y-56554735D01*
X223242375Y-56300548D02*
X219075184Y-56300548D01*
X28277320Y-44648400D02*
X30063256Y-44648400D01*
X31595100Y-46180244D02*
X31595100Y-53919300D01*
X314150630Y-43283215D02*
X316824521Y-45957106D01*
X30063256Y-44648400D02*
X31595100Y-46180244D01*
X26193772Y-29170337D02*
X26193772Y-30360868D01*
X313729337Y-51792231D02*
X311944012Y-51792231D01*
X268145037Y-56554735D02*
X267890850Y-56300548D01*
X314150630Y-35636111D02*
X314150630Y-43283215D01*
X58935888Y-58042920D02*
X22919512Y-58042920D01*
X77985872Y-58935888D02*
X77092904Y-58042920D01*
X286940866Y-57745361D02*
X285750240Y-58935987D01*
X198239328Y-58935888D02*
X182760784Y-58935888D01*
X289917431Y-57745361D02*
X286940866Y-57745361D01*
X163115488Y-61019480D02*
X161031896Y-61019480D01*
X79771808Y-58935888D02*
X77985872Y-58935888D01*
X317896608Y-53280424D02*
X312241144Y-53280424D01*
X248542760Y-58935888D02*
X207169023Y-58935888D01*
X180975152Y-56554735D02*
X180975152Y-60126613D01*
X21575000Y-83145000D02*
X21530208Y-83145000D01*
X183356404Y-54173483D02*
X180975152Y-56554735D01*
X185737656Y-79771942D02*
X186928282Y-79771942D01*
X180975152Y-60126613D02*
X182165778Y-60126613D01*
X20835920Y-82450712D02*
X20835920Y-64834080D01*
X20835920Y-63355920D02*
X20835920Y-45784080D01*
X180975152Y-74414125D02*
X182165778Y-75604751D01*
D22*
X178197359Y-25995000D02*
X177998587Y-26193772D01*
D21*
X20835920Y-83884080D02*
X21575000Y-83145000D01*
X183951717Y-95845393D02*
X183951717Y-100265467D01*
X177998587Y-29765650D02*
X177998587Y-26193772D01*
X182165778Y-60126613D02*
X183500000Y-61460835D01*
X32742215Y-28907785D02*
X35575000Y-26075000D01*
X183500000Y-61460835D02*
X183500000Y-64095000D01*
X182761091Y-41671910D02*
X182761091Y-44306091D01*
X182165778Y-75604751D02*
X184547030Y-75604751D01*
X182761091Y-45783909D02*
X182761091Y-51196918D01*
X182761091Y-44306091D02*
X183500000Y-45045000D01*
X20835955Y-41076597D02*
X23812520Y-38100032D01*
X185737656Y-76795377D02*
X185737656Y-79771942D01*
X177998587Y-26193772D02*
X177998587Y-23217207D01*
X20835920Y-101500696D02*
X20835920Y-83884080D01*
X21530224Y-102195000D02*
X20835920Y-101500696D01*
X20835955Y-41076597D02*
X20835955Y-44305955D01*
X178737500Y-25995000D02*
X178197359Y-25995000D01*
X20835920Y-64834080D02*
X21575000Y-64095000D01*
X184547030Y-75604751D02*
X185737656Y-76795377D01*
X20835920Y-45784080D02*
X21575000Y-45045000D01*
X188262500Y-81106160D02*
X188262500Y-83145000D01*
X20835955Y-44305955D02*
X21575000Y-45045000D01*
X32742215Y-29170337D02*
X32742215Y-28907785D01*
X186928282Y-79771942D02*
X188262500Y-81106160D01*
X183500000Y-45045000D02*
X182761091Y-45783909D01*
X21575000Y-102195000D02*
X21530224Y-102195000D01*
X21575000Y-64095000D02*
X20835920Y-63355920D01*
X21530208Y-83145000D02*
X20835920Y-82450712D01*
X185737656Y-94059454D02*
X183951717Y-95845393D01*
X183951717Y-100265467D02*
X185881250Y-102195000D01*
X197048603Y-29170337D02*
X197048603Y-26733897D01*
X202550000Y-64095000D02*
X201414598Y-64095000D01*
X197048603Y-26733897D02*
X197787500Y-25995000D01*
X40625000Y-41815626D02*
X40625000Y-45045000D01*
X201811107Y-45783893D02*
X202550000Y-45045000D01*
X206970088Y-102195000D02*
X205978298Y-101203210D01*
X201811107Y-40481284D02*
X201811107Y-35718780D01*
X38100032Y-40481284D02*
X39290658Y-40481284D01*
X200620481Y-34528154D02*
X198239229Y-34528154D01*
X205978298Y-81810798D02*
X207312500Y-83145000D01*
X207312500Y-102195000D02*
X206970088Y-102195000D01*
X201811107Y-47625040D02*
X201811107Y-45783893D01*
X39885971Y-63355971D02*
X40625000Y-64095000D01*
X205978298Y-74414125D02*
X205978298Y-81810798D01*
X205978298Y-101203210D02*
X205978298Y-89296950D01*
X205978298Y-84479202D02*
X207312500Y-83145000D01*
X202550000Y-55507689D02*
X202550000Y-64095000D01*
X40481284Y-30956276D02*
X40481284Y-26138716D01*
X39290658Y-40481284D02*
X40625000Y-41815626D01*
X39885971Y-82405971D02*
X40625000Y-83145000D01*
X38100032Y-99417271D02*
X38100032Y-99670032D01*
X205978298Y-86320385D02*
X205978298Y-84479202D01*
X201811107Y-44306107D02*
X202550000Y-45045000D01*
X39885971Y-79771942D02*
X39885971Y-82405971D01*
X39885971Y-60721926D02*
X39885971Y-63355971D01*
X201811107Y-40481284D02*
X201811107Y-44306107D01*
X201811107Y-54768796D02*
X202550000Y-55507689D01*
X201811107Y-35718780D02*
X200620481Y-34528154D01*
X201414598Y-64095000D02*
X200025168Y-65484430D01*
D22*
X40481284Y-26138716D02*
X40625000Y-25995000D01*
D21*
X198239229Y-34528154D02*
X197048603Y-33337528D01*
X38100032Y-99670032D02*
X40625000Y-102195000D01*
X197048603Y-33337528D02*
X197048603Y-31551589D01*
X220861123Y-60721926D02*
X220861123Y-63356123D01*
X57150048Y-39885971D02*
X58340674Y-39885971D01*
X58935987Y-63355987D02*
X59675000Y-64095000D01*
X220861123Y-47625040D02*
X220861123Y-45783877D01*
X217884558Y-34528154D02*
X217289245Y-34528154D01*
X57150048Y-28575024D02*
X57150048Y-28519952D01*
X58340674Y-39885971D02*
X59675000Y-41220297D01*
X57150048Y-98821958D02*
X58340674Y-98821958D01*
X220861123Y-35718780D02*
X219670497Y-34528154D01*
X59675000Y-41220297D02*
X59675000Y-45045000D01*
X225623627Y-79771942D02*
X225623627Y-82406127D01*
X225623627Y-101456127D02*
X226362500Y-102195000D01*
X58935987Y-60721926D02*
X58935987Y-63355987D01*
X221600000Y-45045000D02*
X220861123Y-44306123D01*
X225623627Y-82406127D02*
X226362500Y-83145000D01*
X59675000Y-100156284D02*
X59675000Y-102195000D01*
X220861123Y-44306123D02*
X220861123Y-35718780D01*
X57150048Y-28519952D02*
X59675000Y-25995000D01*
X215503306Y-28575024D02*
X215503306Y-27329194D01*
X219670497Y-34528154D02*
X217884558Y-34528154D01*
X220861123Y-45783877D02*
X221600000Y-45045000D01*
X225623627Y-98821958D02*
X225623627Y-101456127D01*
X58935987Y-82405987D02*
X59675000Y-83145000D01*
X57150048Y-39885971D02*
X57150048Y-38100032D01*
X217289245Y-34528154D02*
X215503306Y-32742215D01*
X58340674Y-98821958D02*
X59675000Y-100156284D01*
X58935987Y-79771942D02*
X58935987Y-82405987D01*
X215503306Y-27329194D02*
X216837500Y-25995000D01*
X57150048Y-38100032D02*
X57150048Y-36314093D01*
X220861123Y-63356123D02*
X221600000Y-64095000D01*
X78725000Y-61768868D02*
X78725000Y-64095000D01*
X249436147Y-45783853D02*
X250175000Y-45045000D01*
X249436147Y-63356147D02*
X250175000Y-64095000D01*
X76200064Y-60721926D02*
X77678058Y-60721926D01*
X249436147Y-61317239D02*
X249436147Y-53578170D01*
X87426011Y-87511011D02*
X88265000Y-88350000D01*
X247650208Y-99670208D02*
X250175000Y-102195000D01*
X85129759Y-87511011D02*
X87426011Y-87511011D01*
X247650208Y-99417271D02*
X247650208Y-99670208D01*
X249436147Y-82406147D02*
X250175000Y-83145000D01*
X249436147Y-49410979D02*
X249436147Y-45783853D01*
X77678058Y-60721926D02*
X78725000Y-61768868D01*
X250175000Y-45045000D02*
X250031460Y-44901460D01*
X250031460Y-26138540D02*
X250175000Y-25995000D01*
X76200064Y-60721926D02*
X76200064Y-54173483D01*
X249436147Y-79771942D02*
X249436147Y-82406147D01*
X76200064Y-39290658D02*
X77390690Y-39290658D01*
X253008025Y-36314093D02*
X253008025Y-32146902D01*
X78725000Y-40624968D02*
X78725000Y-45045000D01*
X78725072Y-28431268D02*
X78725072Y-25995024D01*
X220860752Y-58042920D02*
X217586536Y-58042920D01*
X77390690Y-39290658D02*
X78725000Y-40624968D01*
X76200064Y-30956276D02*
X78725072Y-28431268D01*
X250031460Y-44901460D02*
X250031460Y-39290658D01*
X76200064Y-39290658D02*
X76200064Y-36909406D01*
X250031460Y-29170337D02*
X250031460Y-26138540D01*
X249436147Y-61317239D02*
X249436147Y-63356147D01*
X100012584Y-30360963D02*
X101203210Y-30360963D01*
X266700224Y-60126613D02*
X266700224Y-55364109D01*
X100012584Y-39885971D02*
X101203210Y-39885971D01*
X268486163Y-82406163D02*
X269225000Y-83145000D01*
X101203210Y-30360963D02*
X102537500Y-29026673D01*
X269225000Y-27836187D02*
X269225000Y-25995000D01*
X269225000Y-61460763D02*
X269225000Y-64095000D01*
X267890850Y-60126613D02*
X269225000Y-61460763D01*
X100012584Y-60126613D02*
X101203210Y-60126613D01*
X266700224Y-97631332D02*
X267890850Y-97631332D01*
X102537500Y-61460903D02*
X102537500Y-64095000D01*
X268486163Y-44306163D02*
X269225000Y-45045000D01*
X222647062Y-76200064D02*
X221456436Y-77390690D01*
X266700224Y-36909406D02*
X266700224Y-32146902D01*
X268486163Y-41671910D02*
X268486163Y-44306163D01*
X101203210Y-39885971D02*
X102537500Y-41220261D01*
X100012584Y-60126613D02*
X100012584Y-55364109D01*
X102537500Y-41220261D02*
X102537500Y-45045000D01*
X266700224Y-29170337D02*
X267890850Y-29170337D01*
X268486163Y-79771942D02*
X268486163Y-82406163D01*
X267890850Y-97631332D02*
X269225000Y-98965482D01*
X266700224Y-60126613D02*
X267890850Y-60126613D01*
X100012584Y-39885971D02*
X100012584Y-36314093D01*
X267890850Y-29170337D02*
X269225000Y-27836187D01*
X101203210Y-60126613D02*
X102537500Y-61460903D01*
X269225000Y-98965482D02*
X269225000Y-102195000D01*
X250031460Y-76200064D02*
X245268956Y-76200064D01*
X223837688Y-76200064D02*
X222647062Y-76200064D01*
X102537500Y-29026673D02*
X102537500Y-25995000D01*
X117871974Y-97036019D02*
X116825000Y-98082993D01*
X120253226Y-77986003D02*
X120253226Y-81750726D01*
X288726805Y-41671910D02*
X288726805Y-44593195D01*
X288275000Y-83145000D02*
X288131492Y-83288508D01*
X120253226Y-40481284D02*
X122634478Y-40481284D01*
X288726805Y-63643195D02*
X288275000Y-64095000D01*
X122634478Y-40481284D02*
X123968750Y-41815556D01*
X120253226Y-92868828D02*
X120253226Y-95845393D01*
X288131492Y-79771942D02*
X288131492Y-83001492D01*
X120253226Y-60721926D02*
X122634478Y-60721926D01*
X288275000Y-67126861D02*
X288131492Y-67270369D01*
X120253226Y-77986003D02*
X120253226Y-73818812D01*
X268486163Y-77390690D02*
X264914285Y-77390690D01*
X288275000Y-64095000D02*
X288275000Y-67126861D01*
X288275000Y-45045000D02*
X288275000Y-48120613D01*
X288275000Y-48120613D02*
X288726805Y-48572418D01*
X123968750Y-41815556D02*
X123968750Y-45045000D01*
X225028314Y-78581316D02*
X222988188Y-78581316D01*
X120253226Y-27329274D02*
X121587500Y-25995000D01*
X121687500Y-83185000D02*
X120253226Y-84619274D01*
X288131492Y-102051492D02*
X288275000Y-102195000D01*
X288472618Y-38441158D02*
X291108057Y-38441158D01*
X288275000Y-27836203D02*
X286940866Y-29170337D01*
X288726805Y-44593195D02*
X288275000Y-45045000D01*
X116825000Y-98082993D02*
X116825000Y-102195000D01*
X123968750Y-62056198D02*
X123968750Y-64095000D01*
X120253226Y-40481284D02*
X120253226Y-35718780D01*
X286940866Y-31551589D02*
X286940866Y-36909406D01*
X286940866Y-36909406D02*
X288472618Y-38441158D01*
X120253226Y-84619274D02*
X120253226Y-89296950D01*
X288131492Y-83288508D02*
X288131492Y-85725072D01*
X288726805Y-60721926D02*
X288726805Y-63643195D01*
X120253226Y-29765650D02*
X120253226Y-27329274D01*
X120253226Y-60721926D02*
X120253226Y-54768796D01*
X120253226Y-95845393D02*
X119062600Y-97036019D01*
X288131492Y-98821958D02*
X288131492Y-102051492D01*
X250031460Y-77390690D02*
X245268956Y-77390690D01*
X119062600Y-97036019D02*
X117871974Y-97036019D01*
X122634478Y-60721926D02*
X123968750Y-62056198D01*
X120253226Y-81750726D02*
X121687500Y-83185000D01*
X288275000Y-25995000D02*
X288275000Y-27836203D01*
X288131492Y-83001492D02*
X288275000Y-83145000D01*
X307325000Y-47735735D02*
X306840382Y-48220353D01*
X150018876Y-95250080D02*
X148232937Y-97036019D01*
X316706516Y-88191516D02*
X316865000Y-88350000D01*
X144065746Y-60126613D02*
X145400000Y-61460867D01*
X147637624Y-79771942D02*
X148828250Y-79771942D01*
X142279807Y-36909406D02*
X141684494Y-36314093D01*
X307776821Y-41076597D02*
X307325000Y-41528418D01*
X140493868Y-98226645D02*
X140493868Y-102051368D01*
X249436147Y-95250080D02*
X245864269Y-95250080D01*
X306331997Y-63101997D02*
X307325000Y-64095000D01*
X140493868Y-102051368D02*
X140637500Y-102195000D01*
X316706516Y-77390690D02*
X316706516Y-88191516D01*
X144065746Y-40481284D02*
X145400000Y-41815538D01*
X148828250Y-79771942D02*
X150162500Y-81106192D01*
X225623627Y-95250080D02*
X222051749Y-95250080D01*
X142875120Y-37504719D02*
X142279807Y-36909406D01*
X139303242Y-27329258D02*
X140637500Y-25995000D01*
X307325000Y-41528418D02*
X307325000Y-45045000D01*
X145400000Y-41815538D02*
X145400000Y-45045000D01*
X142875120Y-60126613D02*
X144065746Y-60126613D01*
X141684494Y-97036019D02*
X140493868Y-98226645D01*
X147637624Y-78581316D02*
X142875120Y-73818812D01*
X306331997Y-59774733D02*
X306331997Y-63101997D01*
X306586195Y-26733805D02*
X307325000Y-25995000D01*
X142875120Y-40481284D02*
X142875120Y-37504719D01*
X148232937Y-97036019D02*
X141684494Y-97036019D01*
X306840382Y-52498987D02*
X306840382Y-59266348D01*
X289917431Y-95250080D02*
X286345553Y-95250080D01*
X145400000Y-61460867D02*
X145400000Y-64095000D01*
X140493868Y-36314093D02*
X139303242Y-35123467D01*
X142875120Y-60126613D02*
X142875120Y-55364109D01*
X307325000Y-45045000D02*
X307325000Y-47735735D01*
X268486163Y-95250080D02*
X264914285Y-95250080D01*
X139303242Y-32742215D02*
X139303242Y-27329258D01*
X317905479Y-31551589D02*
X307776821Y-31551589D01*
X150162500Y-81106192D02*
X150162500Y-83145000D01*
X141684494Y-36314093D02*
X140493868Y-36314093D01*
X142875120Y-40481284D02*
X144065746Y-40481284D01*
X307776821Y-31551589D02*
X306586195Y-30360963D01*
X306840382Y-59266348D02*
X306331997Y-59774733D01*
X306784999Y-64095000D02*
X305990882Y-64889117D01*
X147637624Y-79771942D02*
X147637624Y-78581316D01*
X307325000Y-64095000D02*
X306784999Y-64095000D01*
X305990882Y-64889117D02*
X305990882Y-67622434D01*
X306586195Y-30360963D02*
X306586195Y-26733805D01*
X157162632Y-22621894D02*
X158353258Y-22621894D01*
X164450000Y-60865538D02*
X164450000Y-64095000D01*
X249436147Y-96440706D02*
X245864269Y-96440706D01*
X163115762Y-96440706D02*
X162068750Y-97487718D01*
X161925136Y-59531300D02*
X163115762Y-59531300D01*
X164450000Y-41220209D02*
X164450000Y-45045000D01*
X161925136Y-38695345D02*
X160734510Y-37504719D01*
X289917431Y-96440706D02*
X286345553Y-96440706D01*
X268486163Y-96440706D02*
X264914285Y-96440706D01*
X161925136Y-59531300D02*
X161925136Y-54768796D01*
X169212500Y-81106176D02*
X169212500Y-83145000D01*
X159687500Y-23956136D02*
X159687500Y-25995000D01*
X161925136Y-39885971D02*
X163115762Y-39885971D01*
X163115762Y-59531300D02*
X164450000Y-60865538D01*
X167878266Y-96440706D02*
X163115762Y-96440706D01*
X158948571Y-37504719D02*
X158353258Y-37504719D01*
X225623627Y-96440706D02*
X222051749Y-96440706D01*
X158353258Y-22621894D02*
X159687500Y-23956136D01*
X162068750Y-97487718D02*
X162068750Y-102195000D01*
X163115762Y-39885971D02*
X164450000Y-41220209D01*
X166687640Y-79771942D02*
X167878266Y-79771942D01*
X157162632Y-36314093D02*
X157162632Y-35123467D01*
X167878266Y-96440706D02*
X167878266Y-92868828D01*
X158353258Y-37504719D02*
X157162632Y-36314093D01*
X161925136Y-39885971D02*
X161925136Y-38695345D01*
X167878266Y-79771942D02*
X169212500Y-81106176D01*
X160734510Y-37504719D02*
X158948571Y-37504719D01*
X166687640Y-79771942D02*
X166687640Y-75009438D01*
X270593980Y-34206276D02*
X270593980Y-37504719D01*
X285154927Y-24407833D02*
X285154927Y-29170337D01*
X293569534Y-23217207D02*
X296370630Y-20416111D01*
X293569534Y-23217207D02*
X286345553Y-23217207D01*
X279797110Y-31551589D02*
X278606484Y-32742215D01*
X278606484Y-32742215D02*
X272058041Y-32742215D01*
X286345553Y-23217207D02*
X285154927Y-24407833D01*
X272058041Y-32742215D02*
X270593980Y-34206276D01*
X285154927Y-31551589D02*
X279797110Y-31551589D01*
M02*
