G04 #@! TF.GenerationSoftware,KiCad,Pcbnew,(6.0.0)*
G04 #@! TF.CreationDate,2022-01-01T17:52:16+09:00*
G04 #@! TF.ProjectId,TwENkey,5477454e-6b65-4792-9e6b-696361645f70,rev?*
G04 #@! TF.SameCoordinates,Original*
G04 #@! TF.FileFunction,Soldermask,Top*
G04 #@! TF.FilePolarity,Negative*
%FSLAX46Y46*%
G04 Gerber Fmt 4.6, Leading zero omitted, Abs format (unit mm)*
G04 Created by KiCad (PCBNEW (6.0.0)) date 2022-01-01 17:52:16*
%MOMM*%
%LPD*%
G01*
G04 APERTURE LIST*
%ADD10C,4.000000*%
%ADD11C,3.000000*%
%ADD12C,2.000000*%
%ADD13R,3.200000X2.500000*%
%ADD14R,1.397000X1.397000*%
%ADD15C,1.397000*%
%ADD16C,3.050000*%
%ADD17C,1.800000*%
%ADD18C,1.524000*%
%ADD19O,1.500000X1.500000*%
G04 APERTURE END LIST*
D10*
X47625000Y-47625000D03*
D11*
X43815000Y-45085000D03*
D12*
X42545000Y-47625000D03*
D11*
X50165000Y-42545000D03*
D12*
X52705000Y-47625000D03*
D11*
X43815000Y-102235000D03*
D12*
X52705000Y-104775000D03*
D10*
X47625000Y-104775000D03*
D11*
X50165000Y-99695000D03*
D12*
X42545000Y-104775000D03*
D10*
X47625000Y-28575000D03*
D12*
X42545000Y-28575000D03*
D11*
X43815000Y-26035000D03*
X50165000Y-23495000D03*
D12*
X52705000Y-28575000D03*
X21075000Y-26075000D03*
X21075000Y-31075000D03*
X21075000Y-28575000D03*
D13*
X28575000Y-22975000D03*
X28575000Y-34175000D03*
D12*
X35575000Y-31075000D03*
X35575000Y-26075000D03*
X42545000Y-85725000D03*
D11*
X50165000Y-80645000D03*
X43815000Y-83185000D03*
D12*
X52705000Y-85725000D03*
D10*
X47625000Y-85725000D03*
D11*
X43815000Y-64135000D03*
X50165000Y-61595000D03*
D12*
X52705000Y-66675000D03*
X42545000Y-66675000D03*
D10*
X47625000Y-66675000D03*
X66675000Y-47625000D03*
D11*
X69215000Y-42545000D03*
D12*
X71755000Y-47625000D03*
X61595000Y-47625000D03*
D11*
X62865000Y-45085000D03*
D12*
X71755000Y-28575000D03*
D10*
X66675000Y-28575000D03*
D11*
X69215000Y-23495000D03*
D12*
X61595000Y-28575000D03*
D11*
X62865000Y-26035000D03*
D10*
X66675000Y-66675000D03*
D12*
X71755000Y-66675000D03*
D11*
X62865000Y-64135000D03*
X69215000Y-61595000D03*
D12*
X61595000Y-66675000D03*
X61595000Y-85725000D03*
D10*
X66675000Y-85725000D03*
D11*
X69215000Y-80645000D03*
X62865000Y-83185000D03*
D12*
X71755000Y-85725000D03*
D11*
X88265000Y-42545000D03*
D10*
X85725000Y-47625000D03*
D11*
X81915000Y-45085000D03*
D12*
X80645000Y-47625000D03*
X90805000Y-47625000D03*
X90805000Y-66675000D03*
X80645000Y-66675000D03*
D10*
X85725000Y-66675000D03*
D11*
X88265000Y-61595000D03*
X81915000Y-64135000D03*
X69215000Y-99695000D03*
D10*
X66675000Y-104775000D03*
D12*
X61595000Y-104775000D03*
D11*
X62865000Y-102235000D03*
D12*
X71755000Y-104775000D03*
D11*
X105727500Y-45085000D03*
D10*
X109537500Y-47625000D03*
D12*
X114617500Y-47625000D03*
X104457500Y-47625000D03*
D11*
X112077500Y-42545000D03*
X178752500Y-80645000D03*
D12*
X181292500Y-85725000D03*
D11*
X172402500Y-83185000D03*
D10*
X176212500Y-85725000D03*
D12*
X171132500Y-85725000D03*
D11*
X112077500Y-61595000D03*
D12*
X104457500Y-66675000D03*
D10*
X109537500Y-66675000D03*
D11*
X105727500Y-64135000D03*
D12*
X114617500Y-66675000D03*
D11*
X153352500Y-83185000D03*
D12*
X162242500Y-85725000D03*
X152082500Y-85725000D03*
D10*
X157162500Y-85725000D03*
D11*
X159702500Y-80645000D03*
X154940000Y-42545000D03*
D12*
X157480000Y-47625000D03*
D11*
X148590000Y-45085000D03*
D12*
X147320000Y-47625000D03*
D10*
X152400000Y-47625000D03*
X152400000Y-66675000D03*
D12*
X147320000Y-66675000D03*
X157480000Y-66675000D03*
D11*
X154940000Y-61595000D03*
X148590000Y-64135000D03*
D10*
X109537500Y-28575000D03*
D11*
X112077500Y-23495000D03*
D12*
X104457500Y-28575000D03*
D11*
X105727500Y-26035000D03*
D12*
X114617500Y-28575000D03*
X123507500Y-28575000D03*
D10*
X128587500Y-28575000D03*
D11*
X124777500Y-26035000D03*
D12*
X133667500Y-28575000D03*
D11*
X131127500Y-23495000D03*
D12*
X195580000Y-66675000D03*
D11*
X186690000Y-64135000D03*
D10*
X190500000Y-66675000D03*
D12*
X185420000Y-66675000D03*
D11*
X193040000Y-61595000D03*
D12*
X190182500Y-85725000D03*
D10*
X195262500Y-85725000D03*
D11*
X197802500Y-80645000D03*
D12*
X200342500Y-85725000D03*
D11*
X191452500Y-83185000D03*
D10*
X185737500Y-28575000D03*
D12*
X190817500Y-28575000D03*
X180657500Y-28575000D03*
D11*
X181927500Y-26035000D03*
X188277500Y-23495000D03*
D10*
X209550000Y-47625000D03*
D11*
X212090000Y-42545000D03*
X205740000Y-45085000D03*
D12*
X204470000Y-47625000D03*
X214630000Y-47625000D03*
D11*
X162877500Y-26035000D03*
D12*
X161607500Y-28575000D03*
D11*
X169227500Y-23495000D03*
D10*
X166687500Y-28575000D03*
D12*
X171767500Y-28575000D03*
D11*
X173990000Y-61595000D03*
D12*
X176530000Y-66675000D03*
X166370000Y-66675000D03*
D11*
X167640000Y-64135000D03*
D10*
X171450000Y-66675000D03*
D11*
X143827500Y-26035000D03*
D12*
X152717500Y-28575000D03*
D10*
X147637500Y-28575000D03*
D11*
X150177500Y-23495000D03*
D12*
X142557500Y-28575000D03*
D11*
X210502500Y-83185000D03*
D12*
X209232500Y-85725000D03*
D10*
X214312500Y-85725000D03*
D11*
X216852500Y-80645000D03*
D12*
X219392500Y-85725000D03*
D11*
X167640000Y-45085000D03*
D10*
X171450000Y-47625000D03*
D12*
X176530000Y-47625000D03*
D11*
X173990000Y-42545000D03*
D12*
X166370000Y-47625000D03*
X204470000Y-66675000D03*
D11*
X212090000Y-61595000D03*
X205740000Y-64135000D03*
D10*
X209550000Y-66675000D03*
D12*
X214630000Y-66675000D03*
D10*
X190500000Y-47625000D03*
D11*
X193040000Y-42545000D03*
D12*
X195580000Y-47625000D03*
X185420000Y-47625000D03*
D11*
X186690000Y-45085000D03*
D10*
X204787500Y-28575000D03*
D11*
X207327500Y-23495000D03*
D12*
X199707500Y-28575000D03*
D11*
X200977500Y-26035000D03*
D12*
X209867500Y-28575000D03*
X319405000Y-28575000D03*
D11*
X316865000Y-23495000D03*
D12*
X309245000Y-28575000D03*
D11*
X310515000Y-26035000D03*
D10*
X314325000Y-28575000D03*
D12*
X309245000Y-47625000D03*
D11*
X310515000Y-45085000D03*
X316865000Y-42545000D03*
D12*
X319405000Y-47625000D03*
D10*
X314325000Y-47625000D03*
D12*
X309245000Y-66675000D03*
D11*
X316865000Y-61595000D03*
D10*
X314325000Y-66675000D03*
D11*
X310515000Y-64135000D03*
D12*
X319405000Y-66675000D03*
D11*
X297815000Y-80645000D03*
D12*
X290195000Y-85725000D03*
X300355000Y-85725000D03*
D11*
X291465000Y-83185000D03*
D10*
X295275000Y-85725000D03*
D12*
X300355000Y-28575000D03*
D10*
X295275000Y-28575000D03*
D12*
X290195000Y-28575000D03*
D11*
X297815000Y-23495000D03*
X291465000Y-26035000D03*
D12*
X271145000Y-104775000D03*
D10*
X276225000Y-104775000D03*
D12*
X281305000Y-104775000D03*
D11*
X272415000Y-102235000D03*
X278765000Y-99695000D03*
X297815000Y-99695000D03*
X291465000Y-102235000D03*
D12*
X300355000Y-104775000D03*
X290195000Y-104775000D03*
D10*
X295275000Y-104775000D03*
D12*
X152717500Y-104775000D03*
D11*
X143827500Y-102235000D03*
D12*
X142557500Y-104775000D03*
D10*
X147637500Y-104775000D03*
D11*
X150177500Y-99695000D03*
X165258750Y-102235000D03*
D12*
X174148750Y-104775000D03*
X163988750Y-104775000D03*
D11*
X171608750Y-99695000D03*
D10*
X169068750Y-104775000D03*
D12*
X197961250Y-104775000D03*
X187801250Y-104775000D03*
D11*
X189071250Y-102235000D03*
D10*
X192881250Y-104775000D03*
D11*
X195421250Y-99695000D03*
X216852500Y-99695000D03*
X210502500Y-102235000D03*
D12*
X219392500Y-104775000D03*
D10*
X214312500Y-104775000D03*
D12*
X209232500Y-104775000D03*
D14*
X308967447Y-93106950D03*
D15*
X308967447Y-85486950D03*
D14*
X183951717Y-93106950D03*
D15*
X183951717Y-85486950D03*
D14*
X200620481Y-112156966D03*
D15*
X200620481Y-104536966D03*
D14*
X138707929Y-74056934D03*
D15*
X138707929Y-66436934D03*
D12*
X33655000Y-104775000D03*
D11*
X31115000Y-99695000D03*
D12*
X23495000Y-104775000D03*
D11*
X24765000Y-102235000D03*
D10*
X28575000Y-104775000D03*
D14*
X222051749Y-112156966D03*
D15*
X222051749Y-104536966D03*
D10*
X233362500Y-104775000D03*
D12*
X228282500Y-104775000D03*
D11*
X235902500Y-99695000D03*
X229552500Y-102235000D03*
D12*
X238442500Y-104775000D03*
X270593980Y-37504719D03*
X277093980Y-37504719D03*
D11*
X88265072Y-23495024D03*
D12*
X90805072Y-28575024D03*
X80645072Y-28575024D03*
D11*
X81915072Y-26035024D03*
D10*
X85725072Y-28575024D03*
D14*
X303014317Y-93106950D03*
D15*
X303014317Y-85486950D03*
D12*
X281305000Y-47625000D03*
X271145000Y-47625000D03*
D11*
X278765000Y-42545000D03*
X272415000Y-45085000D03*
D10*
X276225000Y-47625000D03*
D14*
X303014317Y-74056934D03*
D15*
X303014317Y-66436934D03*
D11*
X24765000Y-83185000D03*
D12*
X23495000Y-85725000D03*
X33655000Y-85725000D03*
D10*
X28575000Y-85725000D03*
D11*
X31115000Y-80645000D03*
D14*
X193476725Y-35956902D03*
D15*
X193476725Y-28336902D03*
D14*
X236339261Y-74056934D03*
D15*
X236339261Y-66436934D03*
D10*
X28575000Y-66675000D03*
D12*
X33655000Y-66675000D03*
D11*
X31115000Y-61595000D03*
X24765000Y-64135000D03*
D12*
X23495000Y-66675000D03*
D14*
X93464141Y-74056934D03*
D15*
X93464141Y-66436934D03*
D14*
X264914285Y-74056934D03*
D15*
X264914285Y-66436934D03*
D14*
X74414125Y-55006918D03*
D15*
X74414125Y-47386918D03*
D14*
X264914285Y-112156966D03*
D15*
X264914285Y-104536966D03*
D14*
X93464141Y-55006918D03*
D15*
X93464141Y-47386918D03*
D11*
X224790000Y-64135000D03*
X231140000Y-61595000D03*
D12*
X233680000Y-66675000D03*
D10*
X228600000Y-66675000D03*
D12*
X223520000Y-66675000D03*
D14*
X55364109Y-93106950D03*
D15*
X55364109Y-85486950D03*
D14*
X179189213Y-74056934D03*
D15*
X179189213Y-66436934D03*
D14*
X283964301Y-35956902D03*
D15*
X283964301Y-28336902D03*
D12*
X125888750Y-66675000D03*
X136048750Y-66675000D03*
D11*
X133508750Y-61595000D03*
X127158750Y-64135000D03*
D10*
X130968750Y-66675000D03*
D12*
X33655000Y-47625000D03*
D10*
X28575000Y-47625000D03*
D12*
X23495000Y-47625000D03*
D11*
X24765000Y-45085000D03*
X31115000Y-42545000D03*
D14*
X231576757Y-35956902D03*
D15*
X231576757Y-28336902D03*
D14*
X198239229Y-74056934D03*
D15*
X198239229Y-66436934D03*
D12*
X262255000Y-28575000D03*
D11*
X253365000Y-26035000D03*
D12*
X252095000Y-28575000D03*
D11*
X259715000Y-23495000D03*
D10*
X257175000Y-28575000D03*
D14*
X303014317Y-55006918D03*
D15*
X303014317Y-47386918D03*
D11*
X272415000Y-83185000D03*
D12*
X281305000Y-85725000D03*
D11*
X278765000Y-80645000D03*
D12*
X271145000Y-85725000D03*
D10*
X276225000Y-85725000D03*
D14*
X212526741Y-35956902D03*
D15*
X212526741Y-28336902D03*
D16*
X321325000Y-83350000D03*
D10*
X306085000Y-107150000D03*
D17*
X314325000Y-90170000D03*
D11*
X319405000Y-97790000D03*
D16*
X321325000Y-107150000D03*
D10*
X314325000Y-95250000D03*
D17*
X314325000Y-100330000D03*
D10*
X306085000Y-83350000D03*
D11*
X316865000Y-91440000D03*
D14*
X160139197Y-74056934D03*
D15*
X160139197Y-66436934D03*
D12*
X125888750Y-47625000D03*
D11*
X127158750Y-45085000D03*
D10*
X130968750Y-47625000D03*
D11*
X133508750Y-42545000D03*
D12*
X136048750Y-47625000D03*
D14*
X236339261Y-55006918D03*
D15*
X236339261Y-47386918D03*
D12*
X262255000Y-66675000D03*
X252095000Y-66675000D03*
D11*
X253365000Y-64135000D03*
D10*
X257175000Y-66675000D03*
D11*
X259715000Y-61595000D03*
D14*
X55364109Y-74056934D03*
D15*
X55364109Y-66436934D03*
D14*
X80367255Y-93106950D03*
D15*
X80367255Y-85486950D03*
D14*
X136326677Y-93106950D03*
D15*
X136326677Y-85486950D03*
D18*
X291290630Y-35636111D03*
X293830630Y-35636111D03*
X296370630Y-35636111D03*
X298910630Y-35636111D03*
X301450630Y-35636111D03*
X303990630Y-35636111D03*
X306530630Y-35636111D03*
X309070630Y-35636111D03*
X311610630Y-35636111D03*
X314150630Y-35636111D03*
X316690630Y-35636111D03*
X319230630Y-35636111D03*
X319230630Y-20416111D03*
X316690630Y-20416111D03*
X314150630Y-20416111D03*
X311610630Y-20416111D03*
X309070630Y-20416111D03*
X306530630Y-20416111D03*
X303990630Y-20416111D03*
X301450630Y-20416111D03*
X298910630Y-20416111D03*
X296370630Y-20416111D03*
X293830630Y-20416111D03*
X291290630Y-20416111D03*
X288750630Y-20416111D03*
X288750630Y-35636111D03*
D14*
X304204943Y-32980337D03*
D15*
X304204943Y-25360337D03*
D14*
X74414125Y-35956902D03*
D15*
X74414125Y-28336902D03*
D14*
X241101765Y-112156966D03*
D15*
X241101765Y-104536966D03*
D14*
X303014317Y-112156966D03*
D15*
X303014317Y-104536966D03*
D14*
X36314093Y-55006918D03*
D15*
X36314093Y-47386918D03*
D14*
X264914285Y-55006918D03*
D15*
X264914285Y-47386918D03*
D11*
X253365000Y-102235000D03*
X259715000Y-99695000D03*
D12*
X252095000Y-104775000D03*
D10*
X257175000Y-104775000D03*
D12*
X262255000Y-104775000D03*
D14*
X322064333Y-35956902D03*
D15*
X322064333Y-28336902D03*
D16*
X116687500Y-78725000D03*
D17*
X123507500Y-85725000D03*
D16*
X140487500Y-78725000D03*
D11*
X131127500Y-80645000D03*
D10*
X128587500Y-85725000D03*
X140487500Y-93965000D03*
D11*
X124777500Y-83185000D03*
D10*
X116687500Y-93965000D03*
D17*
X133667500Y-85725000D03*
D14*
X322064333Y-55006918D03*
D15*
X322064333Y-47386918D03*
D14*
X283964301Y-74056934D03*
D15*
X283964301Y-66436934D03*
D14*
X138707929Y-55006918D03*
D15*
X138707929Y-47386918D03*
D14*
X155376693Y-35956902D03*
D15*
X155376693Y-28336902D03*
D14*
X117276661Y-74056934D03*
D15*
X117276661Y-66436934D03*
D14*
X217289245Y-55006918D03*
D15*
X217289245Y-47386918D03*
D14*
X164901701Y-93106950D03*
D15*
X164901701Y-85486950D03*
D12*
X228917500Y-28575000D03*
D11*
X220027500Y-26035000D03*
D10*
X223837500Y-28575000D03*
D12*
X218757500Y-28575000D03*
D11*
X226377500Y-23495000D03*
D14*
X264914285Y-93106950D03*
D15*
X264914285Y-85486950D03*
D12*
X290195000Y-47625000D03*
D10*
X295275000Y-47625000D03*
D11*
X297815000Y-42545000D03*
D12*
X300355000Y-47625000D03*
D11*
X291465000Y-45085000D03*
D14*
X117276661Y-35956902D03*
D15*
X117276661Y-28336902D03*
D14*
X74414125Y-74056934D03*
D15*
X74414125Y-66436934D03*
D14*
X38100032Y-35956902D03*
D15*
X38100032Y-28336902D03*
D11*
X272415000Y-64135000D03*
D12*
X271145000Y-66675000D03*
D10*
X276225000Y-66675000D03*
D11*
X278765000Y-61595000D03*
D12*
X281305000Y-66675000D03*
D14*
X36314093Y-74056934D03*
D15*
X36314093Y-66436934D03*
D14*
X217289245Y-74056934D03*
D15*
X217289245Y-66436934D03*
D11*
X253365000Y-45085000D03*
D12*
X262255000Y-47625000D03*
D10*
X257175000Y-47625000D03*
D12*
X252095000Y-47625000D03*
D11*
X259715000Y-42545000D03*
D14*
X283964301Y-112156966D03*
D15*
X283964301Y-104536966D03*
D14*
X283964301Y-55006918D03*
D15*
X283964301Y-47386918D03*
D14*
X74414125Y-112156966D03*
D15*
X74414125Y-104536966D03*
D14*
X160139197Y-55006918D03*
D15*
X160139197Y-47386918D03*
D14*
X55364109Y-112156966D03*
D15*
X55364109Y-104536966D03*
D14*
X241101765Y-93106950D03*
D15*
X241101765Y-85486950D03*
D14*
X203001733Y-93106950D03*
D15*
X203001733Y-85486950D03*
D14*
X322064333Y-74056934D03*
D15*
X322064333Y-66436934D03*
D14*
X93464141Y-35956902D03*
D15*
X93464141Y-28336902D03*
D12*
X228282500Y-85725000D03*
D11*
X229552500Y-83185000D03*
X235902500Y-80645000D03*
D10*
X233362500Y-85725000D03*
D12*
X238442500Y-85725000D03*
D14*
X198239229Y-55006918D03*
D15*
X198239229Y-47386918D03*
D14*
X174426709Y-35956902D03*
D15*
X174426709Y-28336902D03*
D14*
X55364109Y-55006918D03*
D15*
X55364109Y-47386918D03*
D14*
X179189213Y-55006918D03*
D15*
X179189213Y-47386918D03*
D16*
X92725000Y-107150000D03*
D11*
X88265000Y-91440000D03*
D10*
X77485000Y-83350000D03*
D11*
X90805000Y-97790000D03*
D10*
X85725000Y-95250000D03*
D17*
X85725000Y-90170000D03*
X85725000Y-100330000D03*
D16*
X92725000Y-83350000D03*
D10*
X77485000Y-107150000D03*
D14*
X74414125Y-93106950D03*
D15*
X74414125Y-85486950D03*
D19*
X180975152Y-20290642D03*
X183475152Y-20290642D03*
X178475152Y-20290642D03*
D14*
X136326677Y-35956902D03*
D15*
X136326677Y-28336902D03*
D14*
X55364109Y-35956902D03*
D15*
X55364109Y-28336902D03*
D14*
X264914285Y-35956902D03*
D15*
X264914285Y-28336902D03*
D10*
X228600000Y-47625000D03*
D11*
X224790000Y-45085000D03*
X231140000Y-42545000D03*
D12*
X223520000Y-47625000D03*
X233680000Y-47625000D03*
D14*
X131564173Y-112156966D03*
D15*
X131564173Y-104536966D03*
D10*
X257175000Y-85725000D03*
D12*
X252095000Y-85725000D03*
D11*
X253365000Y-83185000D03*
D12*
X262255000Y-85725000D03*
D11*
X259715000Y-80645000D03*
D12*
X281305000Y-28575000D03*
D11*
X272415000Y-26035000D03*
D10*
X276225000Y-28575000D03*
D11*
X278765000Y-23495000D03*
D12*
X271145000Y-28575000D03*
D14*
X36314093Y-93106950D03*
D15*
X36314093Y-85486950D03*
D14*
X222051749Y-93106950D03*
D15*
X222051749Y-85486950D03*
D14*
X283964301Y-93106950D03*
D15*
X283964301Y-85486950D03*
D12*
X118745000Y-104775000D03*
D10*
X123825000Y-104775000D03*
D12*
X128905000Y-104775000D03*
D11*
X120015000Y-102235000D03*
X126365000Y-99695000D03*
D14*
X36314093Y-112156966D03*
D15*
X36314093Y-104536966D03*
D14*
X117276661Y-55006918D03*
D15*
X117276661Y-47386918D03*
D14*
X176807961Y-112156966D03*
D15*
X176807961Y-104536966D03*
D14*
X155376693Y-112156966D03*
D15*
X155376693Y-104536966D03*
D12*
X290195000Y-66675000D03*
D11*
X297815000Y-61595000D03*
X291465000Y-64135000D03*
D12*
X300355000Y-66675000D03*
D10*
X295275000Y-66675000D03*
M02*
