G04 #@! TF.GenerationSoftware,KiCad,Pcbnew,(6.0.0)*
G04 #@! TF.CreationDate,2022-01-02T20:35:14+09:00*
G04 #@! TF.ProjectId,TwENkey,5477454e-6b65-4792-9e6b-696361645f70,rev?*
G04 #@! TF.SameCoordinates,Original*
G04 #@! TF.FileFunction,Legend,Top*
G04 #@! TF.FilePolarity,Positive*
%FSLAX46Y46*%
G04 Gerber Fmt 4.6, Leading zero omitted, Abs format (unit mm)*
G04 Created by KiCad (PCBNEW (6.0.0)) date 2022-01-02 20:35:14*
%MOMM*%
%LPD*%
G01*
G04 APERTURE LIST*
%ADD10C,0.150000*%
%ADD11O,1.300000X2.200000*%
%ADD12C,1.210000*%
%ADD13C,2.000000*%
%ADD14C,4.000000*%
%ADD15R,1.397000X1.397000*%
%ADD16C,1.397000*%
G04 APERTURE END LIST*
D10*
X101775088Y-103422468D02*
X102346516Y-103422468D01*
X102060802Y-104422468D02*
X102060802Y-103422468D01*
X102584611Y-103755802D02*
X102775088Y-104422468D01*
X102965564Y-103946278D01*
X103156040Y-104422468D01*
X103346516Y-103755802D01*
X103727468Y-103898659D02*
X104060802Y-103898659D01*
X104203659Y-104422468D02*
X103727468Y-104422468D01*
X103727468Y-103422468D01*
X104203659Y-103422468D01*
X104632230Y-104422468D02*
X104632230Y-103422468D01*
X105203659Y-104422468D01*
X105203659Y-103422468D01*
X105679849Y-104422468D02*
X105679849Y-103422468D01*
X105775088Y-104041516D02*
X106060802Y-104422468D01*
X106060802Y-103755802D02*
X105679849Y-104136754D01*
X106870326Y-104374849D02*
X106775088Y-104422468D01*
X106584611Y-104422468D01*
X106489373Y-104374849D01*
X106441754Y-104279611D01*
X106441754Y-103898659D01*
X106489373Y-103803421D01*
X106584611Y-103755802D01*
X106775088Y-103755802D01*
X106870326Y-103803421D01*
X106917945Y-103898659D01*
X106917945Y-103993897D01*
X106441754Y-104089135D01*
X107251278Y-103755802D02*
X107489373Y-104422468D01*
X107727468Y-103755802D02*
X107489373Y-104422468D01*
X107394135Y-104660564D01*
X107346516Y-104708183D01*
X107251278Y-104755802D01*
X102703659Y-106032468D02*
X102703659Y-105365802D01*
X102703659Y-105556278D02*
X102751278Y-105461040D01*
X102798897Y-105413421D01*
X102894135Y-105365802D01*
X102989373Y-105365802D01*
X103703659Y-105984849D02*
X103608421Y-106032468D01*
X103417945Y-106032468D01*
X103322707Y-105984849D01*
X103275088Y-105889611D01*
X103275088Y-105508659D01*
X103322707Y-105413421D01*
X103417945Y-105365802D01*
X103608421Y-105365802D01*
X103703659Y-105413421D01*
X103751278Y-105508659D01*
X103751278Y-105603897D01*
X103275088Y-105699135D01*
X104084611Y-105365802D02*
X104322707Y-106032468D01*
X104560802Y-105365802D01*
X105132230Y-105032468D02*
X105227468Y-105032468D01*
X105322707Y-105080088D01*
X105370326Y-105127707D01*
X105417945Y-105222945D01*
X105465564Y-105413421D01*
X105465564Y-105651516D01*
X105417945Y-105841992D01*
X105370326Y-105937230D01*
X105322707Y-105984849D01*
X105227468Y-106032468D01*
X105132230Y-106032468D01*
X105036992Y-105984849D01*
X104989373Y-105937230D01*
X104941754Y-105841992D01*
X104894135Y-105651516D01*
X104894135Y-105413421D01*
X104941754Y-105222945D01*
X104989373Y-105127707D01*
X105036992Y-105080088D01*
X105132230Y-105032468D01*
X105894135Y-105937230D02*
X105941754Y-105984849D01*
X105894135Y-106032468D01*
X105846516Y-105984849D01*
X105894135Y-105937230D01*
X105894135Y-106032468D01*
X106322707Y-105127707D02*
X106370326Y-105080088D01*
X106465564Y-105032468D01*
X106703659Y-105032468D01*
X106798897Y-105080088D01*
X106846516Y-105127707D01*
X106894135Y-105222945D01*
X106894135Y-105318183D01*
X106846516Y-105461040D01*
X106275088Y-106032468D01*
X106894135Y-106032468D01*
X239792465Y-48703985D02*
X239316275Y-48703985D01*
X239316275Y-47703985D01*
X240125799Y-48703985D02*
X240125799Y-48037319D01*
X240125799Y-47703985D02*
X240078180Y-47751605D01*
X240125799Y-47799224D01*
X240173418Y-47751605D01*
X240125799Y-47703985D01*
X240125799Y-47799224D01*
X241030561Y-48037319D02*
X241030561Y-48846843D01*
X240982942Y-48942081D01*
X240935323Y-48989700D01*
X240840084Y-49037319D01*
X240697227Y-49037319D01*
X240601989Y-48989700D01*
X241030561Y-48656366D02*
X240935323Y-48703985D01*
X240744846Y-48703985D01*
X240649608Y-48656366D01*
X240601989Y-48608747D01*
X240554370Y-48513509D01*
X240554370Y-48227795D01*
X240601989Y-48132557D01*
X240649608Y-48084938D01*
X240744846Y-48037319D01*
X240935323Y-48037319D01*
X241030561Y-48084938D01*
X241506751Y-48703985D02*
X241506751Y-47703985D01*
X241935323Y-48703985D02*
X241935323Y-48180176D01*
X241887704Y-48084938D01*
X241792465Y-48037319D01*
X241649608Y-48037319D01*
X241554370Y-48084938D01*
X241506751Y-48132557D01*
X242268656Y-48037319D02*
X242649608Y-48037319D01*
X242411513Y-47703985D02*
X242411513Y-48561128D01*
X242459132Y-48656366D01*
X242554370Y-48703985D01*
X242649608Y-48703985D01*
X243697227Y-48656366D02*
X243840084Y-48703985D01*
X244078180Y-48703985D01*
X244173418Y-48656366D01*
X244221037Y-48608747D01*
X244268656Y-48513509D01*
X244268656Y-48418271D01*
X244221037Y-48323033D01*
X244173418Y-48275414D01*
X244078180Y-48227795D01*
X243887704Y-48180176D01*
X243792465Y-48132557D01*
X243744846Y-48084938D01*
X243697227Y-47989700D01*
X243697227Y-47894462D01*
X243744846Y-47799224D01*
X243792465Y-47751605D01*
X243887704Y-47703985D01*
X244125799Y-47703985D01*
X244268656Y-47751605D01*
X244697227Y-48703985D02*
X244697227Y-48037319D01*
X244697227Y-47703985D02*
X244649608Y-47751605D01*
X244697227Y-47799224D01*
X244744846Y-47751605D01*
X244697227Y-47703985D01*
X244697227Y-47799224D01*
X245601989Y-48703985D02*
X245601989Y-47703985D01*
X245601989Y-48656366D02*
X245506751Y-48703985D01*
X245316275Y-48703985D01*
X245221037Y-48656366D01*
X245173418Y-48608747D01*
X245125799Y-48513509D01*
X245125799Y-48227795D01*
X245173418Y-48132557D01*
X245221037Y-48084938D01*
X245316275Y-48037319D01*
X245506751Y-48037319D01*
X245601989Y-48084938D01*
X246459132Y-48656366D02*
X246363894Y-48703985D01*
X246173418Y-48703985D01*
X246078180Y-48656366D01*
X246030561Y-48561128D01*
X246030561Y-48180176D01*
X246078180Y-48084938D01*
X246173418Y-48037319D01*
X246363894Y-48037319D01*
X246459132Y-48084938D01*
X246506751Y-48180176D01*
X246506751Y-48275414D01*
X246030561Y-48370652D01*
X239792465Y-43941481D02*
X239316275Y-43941481D01*
X239316275Y-42941481D01*
X240125799Y-43941481D02*
X240125799Y-43274815D01*
X240125799Y-42941481D02*
X240078180Y-42989101D01*
X240125799Y-43036720D01*
X240173418Y-42989101D01*
X240125799Y-42941481D01*
X240125799Y-43036720D01*
X241030561Y-43274815D02*
X241030561Y-44084339D01*
X240982942Y-44179577D01*
X240935323Y-44227196D01*
X240840084Y-44274815D01*
X240697227Y-44274815D01*
X240601989Y-44227196D01*
X241030561Y-43893862D02*
X240935323Y-43941481D01*
X240744846Y-43941481D01*
X240649608Y-43893862D01*
X240601989Y-43846243D01*
X240554370Y-43751005D01*
X240554370Y-43465291D01*
X240601989Y-43370053D01*
X240649608Y-43322434D01*
X240744846Y-43274815D01*
X240935323Y-43274815D01*
X241030561Y-43322434D01*
X241506751Y-43941481D02*
X241506751Y-42941481D01*
X241935323Y-43941481D02*
X241935323Y-43417672D01*
X241887704Y-43322434D01*
X241792465Y-43274815D01*
X241649608Y-43274815D01*
X241554370Y-43322434D01*
X241506751Y-43370053D01*
X242268656Y-43274815D02*
X242649608Y-43274815D01*
X242411513Y-42941481D02*
X242411513Y-43798624D01*
X242459132Y-43893862D01*
X242554370Y-43941481D01*
X242649608Y-43941481D01*
X243697227Y-43893862D02*
X243840084Y-43941481D01*
X244078180Y-43941481D01*
X244173418Y-43893862D01*
X244221037Y-43846243D01*
X244268656Y-43751005D01*
X244268656Y-43655767D01*
X244221037Y-43560529D01*
X244173418Y-43512910D01*
X244078180Y-43465291D01*
X243887704Y-43417672D01*
X243792465Y-43370053D01*
X243744846Y-43322434D01*
X243697227Y-43227196D01*
X243697227Y-43131958D01*
X243744846Y-43036720D01*
X243792465Y-42989101D01*
X243887704Y-42941481D01*
X244125799Y-42941481D01*
X244268656Y-42989101D01*
X244697227Y-43941481D02*
X244697227Y-43274815D01*
X244697227Y-42941481D02*
X244649608Y-42989101D01*
X244697227Y-43036720D01*
X244744846Y-42989101D01*
X244697227Y-42941481D01*
X244697227Y-43036720D01*
X245601989Y-43941481D02*
X245601989Y-42941481D01*
X245601989Y-43893862D02*
X245506751Y-43941481D01*
X245316275Y-43941481D01*
X245221037Y-43893862D01*
X245173418Y-43846243D01*
X245125799Y-43751005D01*
X245125799Y-43465291D01*
X245173418Y-43370053D01*
X245221037Y-43322434D01*
X245316275Y-43274815D01*
X245506751Y-43274815D01*
X245601989Y-43322434D01*
X246459132Y-43893862D02*
X246363894Y-43941481D01*
X246173418Y-43941481D01*
X246078180Y-43893862D01*
X246030561Y-43798624D01*
X246030561Y-43417672D01*
X246078180Y-43322434D01*
X246173418Y-43274815D01*
X246363894Y-43274815D01*
X246459132Y-43322434D01*
X246506751Y-43417672D01*
X246506751Y-43512910D01*
X246030561Y-43608148D01*
X239792465Y-39178977D02*
X239316275Y-39178977D01*
X239316275Y-38178977D01*
X240125799Y-39178977D02*
X240125799Y-38512311D01*
X240125799Y-38178977D02*
X240078180Y-38226597D01*
X240125799Y-38274216D01*
X240173418Y-38226597D01*
X240125799Y-38178977D01*
X240125799Y-38274216D01*
X241030561Y-38512311D02*
X241030561Y-39321835D01*
X240982942Y-39417073D01*
X240935323Y-39464692D01*
X240840084Y-39512311D01*
X240697227Y-39512311D01*
X240601989Y-39464692D01*
X241030561Y-39131358D02*
X240935323Y-39178977D01*
X240744846Y-39178977D01*
X240649608Y-39131358D01*
X240601989Y-39083739D01*
X240554370Y-38988501D01*
X240554370Y-38702787D01*
X240601989Y-38607549D01*
X240649608Y-38559930D01*
X240744846Y-38512311D01*
X240935323Y-38512311D01*
X241030561Y-38559930D01*
X241506751Y-39178977D02*
X241506751Y-38178977D01*
X241935323Y-39178977D02*
X241935323Y-38655168D01*
X241887704Y-38559930D01*
X241792465Y-38512311D01*
X241649608Y-38512311D01*
X241554370Y-38559930D01*
X241506751Y-38607549D01*
X242268656Y-38512311D02*
X242649608Y-38512311D01*
X242411513Y-38178977D02*
X242411513Y-39036120D01*
X242459132Y-39131358D01*
X242554370Y-39178977D01*
X242649608Y-39178977D01*
X243697227Y-39131358D02*
X243840084Y-39178977D01*
X244078180Y-39178977D01*
X244173418Y-39131358D01*
X244221037Y-39083739D01*
X244268656Y-38988501D01*
X244268656Y-38893263D01*
X244221037Y-38798025D01*
X244173418Y-38750406D01*
X244078180Y-38702787D01*
X243887704Y-38655168D01*
X243792465Y-38607549D01*
X243744846Y-38559930D01*
X243697227Y-38464692D01*
X243697227Y-38369454D01*
X243744846Y-38274216D01*
X243792465Y-38226597D01*
X243887704Y-38178977D01*
X244125799Y-38178977D01*
X244268656Y-38226597D01*
X244697227Y-39178977D02*
X244697227Y-38512311D01*
X244697227Y-38178977D02*
X244649608Y-38226597D01*
X244697227Y-38274216D01*
X244744846Y-38226597D01*
X244697227Y-38178977D01*
X244697227Y-38274216D01*
X245601989Y-39178977D02*
X245601989Y-38178977D01*
X245601989Y-39131358D02*
X245506751Y-39178977D01*
X245316275Y-39178977D01*
X245221037Y-39131358D01*
X245173418Y-39083739D01*
X245125799Y-38988501D01*
X245125799Y-38702787D01*
X245173418Y-38607549D01*
X245221037Y-38559930D01*
X245316275Y-38512311D01*
X245506751Y-38512311D01*
X245601989Y-38559930D01*
X246459132Y-39131358D02*
X246363894Y-39178977D01*
X246173418Y-39178977D01*
X246078180Y-39131358D01*
X246030561Y-39036120D01*
X246030561Y-38655168D01*
X246078180Y-38559930D01*
X246173418Y-38512311D01*
X246363894Y-38512311D01*
X246459132Y-38559930D01*
X246506751Y-38655168D01*
X246506751Y-38750406D01*
X246030561Y-38845644D01*
X239792465Y-34416473D02*
X239316275Y-34416473D01*
X239316275Y-33416473D01*
X240125799Y-34416473D02*
X240125799Y-33749807D01*
X240125799Y-33416473D02*
X240078180Y-33464093D01*
X240125799Y-33511712D01*
X240173418Y-33464093D01*
X240125799Y-33416473D01*
X240125799Y-33511712D01*
X241030561Y-33749807D02*
X241030561Y-34559331D01*
X240982942Y-34654569D01*
X240935323Y-34702188D01*
X240840084Y-34749807D01*
X240697227Y-34749807D01*
X240601989Y-34702188D01*
X241030561Y-34368854D02*
X240935323Y-34416473D01*
X240744846Y-34416473D01*
X240649608Y-34368854D01*
X240601989Y-34321235D01*
X240554370Y-34225997D01*
X240554370Y-33940283D01*
X240601989Y-33845045D01*
X240649608Y-33797426D01*
X240744846Y-33749807D01*
X240935323Y-33749807D01*
X241030561Y-33797426D01*
X241506751Y-34416473D02*
X241506751Y-33416473D01*
X241935323Y-34416473D02*
X241935323Y-33892664D01*
X241887704Y-33797426D01*
X241792465Y-33749807D01*
X241649608Y-33749807D01*
X241554370Y-33797426D01*
X241506751Y-33845045D01*
X242268656Y-33749807D02*
X242649608Y-33749807D01*
X242411513Y-33416473D02*
X242411513Y-34273616D01*
X242459132Y-34368854D01*
X242554370Y-34416473D01*
X242649608Y-34416473D01*
X243697227Y-34368854D02*
X243840084Y-34416473D01*
X244078180Y-34416473D01*
X244173418Y-34368854D01*
X244221037Y-34321235D01*
X244268656Y-34225997D01*
X244268656Y-34130759D01*
X244221037Y-34035521D01*
X244173418Y-33987902D01*
X244078180Y-33940283D01*
X243887704Y-33892664D01*
X243792465Y-33845045D01*
X243744846Y-33797426D01*
X243697227Y-33702188D01*
X243697227Y-33606950D01*
X243744846Y-33511712D01*
X243792465Y-33464093D01*
X243887704Y-33416473D01*
X244125799Y-33416473D01*
X244268656Y-33464093D01*
X244697227Y-34416473D02*
X244697227Y-33749807D01*
X244697227Y-33416473D02*
X244649608Y-33464093D01*
X244697227Y-33511712D01*
X244744846Y-33464093D01*
X244697227Y-33416473D01*
X244697227Y-33511712D01*
X245601989Y-34416473D02*
X245601989Y-33416473D01*
X245601989Y-34368854D02*
X245506751Y-34416473D01*
X245316275Y-34416473D01*
X245221037Y-34368854D01*
X245173418Y-34321235D01*
X245125799Y-34225997D01*
X245125799Y-33940283D01*
X245173418Y-33845045D01*
X245221037Y-33797426D01*
X245316275Y-33749807D01*
X245506751Y-33749807D01*
X245601989Y-33797426D01*
X246459132Y-34368854D02*
X246363894Y-34416473D01*
X246173418Y-34416473D01*
X246078180Y-34368854D01*
X246030561Y-34273616D01*
X246030561Y-33892664D01*
X246078180Y-33797426D01*
X246173418Y-33749807D01*
X246363894Y-33749807D01*
X246459132Y-33797426D01*
X246506751Y-33892664D01*
X246506751Y-33987902D01*
X246030561Y-34083140D01*
X33337500Y-23018750D02*
X34131250Y-23018750D01*
X34131250Y-23018750D02*
X34131250Y-23812500D01*
X23018750Y-33337500D02*
X23018750Y-34131250D01*
X23018750Y-23018750D02*
X23018750Y-23812500D01*
X33337500Y-34131250D02*
X34131250Y-34131250D01*
X23812500Y-23018750D02*
X23018750Y-23018750D01*
X23018750Y-34131250D02*
X23812500Y-34131250D01*
X34131250Y-34131250D02*
X34131250Y-33337500D01*
X176475152Y-21740642D02*
X176475152Y-18990642D01*
X185475152Y-18990642D02*
X185475152Y-21740642D01*
X185475152Y-21740642D02*
X176475152Y-21740642D01*
X176475152Y-18990642D02*
X185475152Y-18990642D01*
D11*
X234636520Y-23814824D03*
X234636520Y-20814824D03*
X238636520Y-29314824D03*
X234636520Y-27814824D03*
D12*
X236636520Y-19014824D03*
X236636520Y-26014824D03*
D13*
X33655000Y-104775000D03*
X23495000Y-104775000D03*
D14*
X28575000Y-104775000D03*
D13*
X52705000Y-47625000D03*
X42545000Y-47625000D03*
D14*
X47625000Y-47625000D03*
D13*
X42545000Y-104775000D03*
D14*
X47625000Y-104775000D03*
D13*
X52705000Y-104775000D03*
X52705000Y-28575000D03*
X42545000Y-28575000D03*
D14*
X47625000Y-28575000D03*
X47625000Y-85725000D03*
D13*
X52705000Y-85725000D03*
X42545000Y-85725000D03*
D14*
X47625000Y-66675000D03*
D13*
X42545000Y-66675000D03*
X52705000Y-66675000D03*
X61595000Y-47625000D03*
X71755000Y-47625000D03*
D14*
X66675000Y-47625000D03*
D13*
X61595000Y-28575000D03*
D14*
X66675000Y-28575000D03*
D13*
X71755000Y-28575000D03*
X61595000Y-66675000D03*
X71755000Y-66675000D03*
D14*
X66675000Y-66675000D03*
D13*
X71755000Y-85725000D03*
D14*
X66675000Y-85725000D03*
D13*
X61595000Y-85725000D03*
X90805000Y-47625000D03*
X80645000Y-47625000D03*
D14*
X85725000Y-47625000D03*
X85725000Y-66675000D03*
D13*
X80645000Y-66675000D03*
X90805000Y-66675000D03*
X71755000Y-104775000D03*
X61595000Y-104775000D03*
D14*
X66675000Y-104775000D03*
D13*
X104457500Y-47625000D03*
X114617500Y-47625000D03*
D14*
X109537500Y-47625000D03*
D13*
X171132500Y-85725000D03*
D14*
X176212500Y-85725000D03*
D13*
X181292500Y-85725000D03*
X114617500Y-66675000D03*
D14*
X109537500Y-66675000D03*
D13*
X104457500Y-66675000D03*
D14*
X157162500Y-85725000D03*
D13*
X152082500Y-85725000D03*
X162242500Y-85725000D03*
D14*
X152400000Y-47625000D03*
D13*
X147320000Y-47625000D03*
X157480000Y-47625000D03*
X157480000Y-66675000D03*
X147320000Y-66675000D03*
D14*
X152400000Y-66675000D03*
D13*
X114617500Y-28575000D03*
X104457500Y-28575000D03*
D14*
X109537500Y-28575000D03*
D13*
X133667500Y-28575000D03*
D14*
X128587500Y-28575000D03*
D13*
X123507500Y-28575000D03*
X185420000Y-66675000D03*
D14*
X190500000Y-66675000D03*
D13*
X195580000Y-66675000D03*
X200342500Y-85725000D03*
D14*
X195262500Y-85725000D03*
D13*
X190182500Y-85725000D03*
X180657500Y-28575000D03*
X190817500Y-28575000D03*
D14*
X185737500Y-28575000D03*
D13*
X214630000Y-47625000D03*
X204470000Y-47625000D03*
D14*
X209550000Y-47625000D03*
D13*
X171767500Y-28575000D03*
D14*
X166687500Y-28575000D03*
D13*
X161607500Y-28575000D03*
D14*
X171450000Y-66675000D03*
D13*
X166370000Y-66675000D03*
X176530000Y-66675000D03*
X142557500Y-28575000D03*
D14*
X147637500Y-28575000D03*
D13*
X152717500Y-28575000D03*
X219392500Y-85725000D03*
D14*
X214312500Y-85725000D03*
D13*
X209232500Y-85725000D03*
X166370000Y-47625000D03*
X176530000Y-47625000D03*
D14*
X171450000Y-47625000D03*
D13*
X214630000Y-66675000D03*
D14*
X209550000Y-66675000D03*
D13*
X204470000Y-66675000D03*
X185420000Y-47625000D03*
X195580000Y-47625000D03*
D14*
X190500000Y-47625000D03*
D13*
X209867500Y-28575000D03*
X199707500Y-28575000D03*
D14*
X204787500Y-28575000D03*
X314325000Y-28575000D03*
D13*
X309245000Y-28575000D03*
X319405000Y-28575000D03*
D14*
X314325000Y-47625000D03*
D13*
X319405000Y-47625000D03*
X309245000Y-47625000D03*
X319405000Y-66675000D03*
D14*
X314325000Y-66675000D03*
D13*
X309245000Y-66675000D03*
D14*
X295275000Y-85725000D03*
D13*
X300355000Y-85725000D03*
X290195000Y-85725000D03*
X290195000Y-28575000D03*
D14*
X295275000Y-28575000D03*
D13*
X300355000Y-28575000D03*
X281305000Y-104775000D03*
D14*
X276225000Y-104775000D03*
D13*
X271145000Y-104775000D03*
D14*
X295275000Y-104775000D03*
D13*
X290195000Y-104775000D03*
X300355000Y-104775000D03*
D14*
X147637500Y-104775000D03*
D13*
X142557500Y-104775000D03*
X152717500Y-104775000D03*
D14*
X169068750Y-104775000D03*
D13*
X163988750Y-104775000D03*
X174148750Y-104775000D03*
D14*
X192881250Y-104775000D03*
D13*
X187801250Y-104775000D03*
X197961250Y-104775000D03*
X209232500Y-104775000D03*
D14*
X214312500Y-104775000D03*
D13*
X219392500Y-104775000D03*
D15*
X308967447Y-93106950D03*
D16*
X308967447Y-85486950D03*
D15*
X183951717Y-93106950D03*
D16*
X183951717Y-85486950D03*
D15*
X200620481Y-112156966D03*
D16*
X200620481Y-104536966D03*
D15*
X138707929Y-74056934D03*
D16*
X138707929Y-66436934D03*
D15*
X222051749Y-112156966D03*
D16*
X222051749Y-104536966D03*
D13*
X238442500Y-104775000D03*
X228282500Y-104775000D03*
D14*
X233362500Y-104775000D03*
D13*
X270593980Y-37504719D03*
X277093980Y-37504719D03*
D14*
X85725072Y-28575024D03*
D13*
X80645072Y-28575024D03*
X90805072Y-28575024D03*
D15*
X303014317Y-93106950D03*
D16*
X303014317Y-85486950D03*
D14*
X276225000Y-47625000D03*
D13*
X271145000Y-47625000D03*
X281305000Y-47625000D03*
D15*
X303014317Y-74056934D03*
D16*
X303014317Y-66436934D03*
D14*
X28575000Y-85725000D03*
D13*
X33655000Y-85725000D03*
X23495000Y-85725000D03*
D15*
X193476725Y-35956902D03*
D16*
X193476725Y-28336902D03*
D15*
X236339261Y-74056934D03*
D16*
X236339261Y-66436934D03*
D13*
X23495000Y-66675000D03*
X33655000Y-66675000D03*
D14*
X28575000Y-66675000D03*
D15*
X93464141Y-74056934D03*
D16*
X93464141Y-66436934D03*
D15*
X264914285Y-74056934D03*
D16*
X264914285Y-66436934D03*
D15*
X74414125Y-55006918D03*
D16*
X74414125Y-47386918D03*
D15*
X264914285Y-112156966D03*
D16*
X264914285Y-104536966D03*
D15*
X93464141Y-55006918D03*
D16*
X93464141Y-47386918D03*
D13*
X223520000Y-66675000D03*
D14*
X228600000Y-66675000D03*
D13*
X233680000Y-66675000D03*
D15*
X55364109Y-93106950D03*
D16*
X55364109Y-85486950D03*
D15*
X179189213Y-74056934D03*
D16*
X179189213Y-66436934D03*
D15*
X283964301Y-35956902D03*
D16*
X283964301Y-28336902D03*
D14*
X130968750Y-66675000D03*
D13*
X136048750Y-66675000D03*
X125888750Y-66675000D03*
X23495000Y-47625000D03*
D14*
X28575000Y-47625000D03*
D13*
X33655000Y-47625000D03*
D15*
X231576757Y-35956902D03*
D16*
X231576757Y-28336902D03*
D15*
X198239229Y-74056934D03*
D16*
X198239229Y-66436934D03*
D14*
X257175000Y-28575000D03*
D13*
X252095000Y-28575000D03*
X262255000Y-28575000D03*
D15*
X303014317Y-55006918D03*
D16*
X303014317Y-47386918D03*
D14*
X276225000Y-85725000D03*
D13*
X271145000Y-85725000D03*
X281305000Y-85725000D03*
D15*
X212526741Y-35956902D03*
D16*
X212526741Y-28336902D03*
D15*
X160139197Y-74056934D03*
D16*
X160139197Y-66436934D03*
D13*
X136048750Y-47625000D03*
D14*
X130968750Y-47625000D03*
D13*
X125888750Y-47625000D03*
D15*
X236339261Y-55006918D03*
D16*
X236339261Y-47386918D03*
D14*
X257175000Y-66675000D03*
D13*
X252095000Y-66675000D03*
X262255000Y-66675000D03*
D15*
X55364109Y-74056934D03*
D16*
X55364109Y-66436934D03*
D15*
X80367255Y-93106950D03*
D16*
X80367255Y-85486950D03*
D15*
X136326677Y-93106950D03*
D16*
X136326677Y-85486950D03*
D15*
X304204943Y-32980337D03*
D16*
X304204943Y-25360337D03*
D15*
X74414125Y-35956902D03*
D16*
X74414125Y-28336902D03*
D15*
X241101765Y-112156966D03*
D16*
X241101765Y-104536966D03*
D15*
X303014317Y-112156966D03*
D16*
X303014317Y-104536966D03*
X36314093Y-47386918D03*
D15*
X36314093Y-55006918D03*
X264914285Y-55006918D03*
D16*
X264914285Y-47386918D03*
D13*
X262255000Y-104775000D03*
D14*
X257175000Y-104775000D03*
D13*
X252095000Y-104775000D03*
D15*
X322064333Y-35956902D03*
D16*
X322064333Y-28336902D03*
D15*
X322064333Y-55006918D03*
D16*
X322064333Y-47386918D03*
D15*
X283964301Y-74056934D03*
D16*
X283964301Y-66436934D03*
D15*
X138707929Y-55006918D03*
D16*
X138707929Y-47386918D03*
D15*
X155376693Y-35956902D03*
D16*
X155376693Y-28336902D03*
D15*
X117276661Y-74056934D03*
D16*
X117276661Y-66436934D03*
D15*
X217289245Y-55006918D03*
D16*
X217289245Y-47386918D03*
D15*
X164901701Y-93106950D03*
D16*
X164901701Y-85486950D03*
D13*
X218757500Y-28575000D03*
D14*
X223837500Y-28575000D03*
D13*
X228917500Y-28575000D03*
D15*
X264914285Y-93106950D03*
D16*
X264914285Y-85486950D03*
D13*
X300355000Y-47625000D03*
D14*
X295275000Y-47625000D03*
D13*
X290195000Y-47625000D03*
D15*
X117276661Y-35956902D03*
D16*
X117276661Y-28336902D03*
D15*
X74414125Y-74056934D03*
D16*
X74414125Y-66436934D03*
X38100032Y-28336902D03*
D15*
X38100032Y-35956902D03*
D13*
X281305000Y-66675000D03*
D14*
X276225000Y-66675000D03*
D13*
X271145000Y-66675000D03*
D16*
X36314093Y-66436934D03*
D15*
X36314093Y-74056934D03*
X217289245Y-74056934D03*
D16*
X217289245Y-66436934D03*
D13*
X252095000Y-47625000D03*
D14*
X257175000Y-47625000D03*
D13*
X262255000Y-47625000D03*
D15*
X283964301Y-112156966D03*
D16*
X283964301Y-104536966D03*
D15*
X283964301Y-55006918D03*
D16*
X283964301Y-47386918D03*
D15*
X74414125Y-112156966D03*
D16*
X74414125Y-104536966D03*
D15*
X160139197Y-55006918D03*
D16*
X160139197Y-47386918D03*
D15*
X55364109Y-112156966D03*
D16*
X55364109Y-104536966D03*
D15*
X241101765Y-93106950D03*
D16*
X241101765Y-85486950D03*
D15*
X203001733Y-93106950D03*
D16*
X203001733Y-85486950D03*
D15*
X322064333Y-74056934D03*
D16*
X322064333Y-66436934D03*
D15*
X93464141Y-35956902D03*
D16*
X93464141Y-28336902D03*
D13*
X238442500Y-85725000D03*
D14*
X233362500Y-85725000D03*
D13*
X228282500Y-85725000D03*
D15*
X198239229Y-55006918D03*
D16*
X198239229Y-47386918D03*
D15*
X174426709Y-35956902D03*
D16*
X174426709Y-28336902D03*
D15*
X55364109Y-55006918D03*
D16*
X55364109Y-47386918D03*
D15*
X179189213Y-55006918D03*
D16*
X179189213Y-47386918D03*
D15*
X74414125Y-93106950D03*
D16*
X74414125Y-85486950D03*
D15*
X136326677Y-35956902D03*
D16*
X136326677Y-28336902D03*
D15*
X55364109Y-35956902D03*
D16*
X55364109Y-28336902D03*
D15*
X264914285Y-35956902D03*
D16*
X264914285Y-28336902D03*
D13*
X233680000Y-47625000D03*
X223520000Y-47625000D03*
D14*
X228600000Y-47625000D03*
D15*
X131564173Y-112156966D03*
D16*
X131564173Y-104536966D03*
D13*
X262255000Y-85725000D03*
X252095000Y-85725000D03*
D14*
X257175000Y-85725000D03*
D13*
X271145000Y-28575000D03*
D14*
X276225000Y-28575000D03*
D13*
X281305000Y-28575000D03*
D16*
X36314093Y-85486950D03*
D15*
X36314093Y-93106950D03*
X222051749Y-93106950D03*
D16*
X222051749Y-85486950D03*
D15*
X283964301Y-93106950D03*
D16*
X283964301Y-85486950D03*
D13*
X128905000Y-104775000D03*
D14*
X123825000Y-104775000D03*
D13*
X118745000Y-104775000D03*
D16*
X36314093Y-104536966D03*
D15*
X36314093Y-112156966D03*
X117276661Y-55006918D03*
D16*
X117276661Y-47386918D03*
D15*
X176807961Y-112156966D03*
D16*
X176807961Y-104536966D03*
D15*
X155376693Y-112156966D03*
D16*
X155376693Y-104536966D03*
D14*
X295275000Y-66675000D03*
D13*
X300355000Y-66675000D03*
X290195000Y-66675000D03*
M02*
