M48
; DRILL file {KiCad (6.0.0)} date Sun Jan  2 17:56:43 2022
; FORMAT={-:-/ absolute / inch / decimal}
; #@! TF.CreationDate,2022-01-02T17:56:43+09:00
; #@! TF.GenerationSoftware,Kicad,Pcbnew,(6.0.0)
; #@! TF.FileFunction,Plated,1,2,PTH
FMAT,2
INCH
; #@! TA.AperFunction,Plated,PTH,ViaDrill
T1C0.0157
; #@! TA.AperFunction,Plated,PTH,ComponentDrill
T2C0.0315
; #@! TA.AperFunction,Plated,PTH,ComponentDrill
T3C0.0320
; #@! TA.AperFunction,Plated,PTH,ComponentDrill
T4C0.0394
; #@! TA.AperFunction,Plated,PTH,ComponentDrill
T5C0.0512
; #@! TA.AperFunction,Plated,PTH,ComponentDrill
T6C0.0787
%
G90
G05
T1
X0.9023Y-2.2852
X0.9375Y-1.5
X1.0313Y-1.1484
X1.2891Y-1.1484
X1.5Y-1.5938
X1.5Y-3.9141
X1.5703Y-2.3906
X1.5703Y-3.1406
X1.5938Y-1.2188
X2.25Y-1.125
X2.25Y-1.4531
X2.25Y-1.5703
X2.25Y-3.8906
X2.3203Y-2.2852
X2.3203Y-2.2166
X2.3203Y-2.3906
X2.3203Y-3.1406
X3.0Y-1.2188
X3.0Y-1.4531
X3.0Y-1.5469
X3.0Y-2.3906
X3.0352Y-2.2852
X3.0469Y-2.168
X3.1406Y-2.3203
X3.3047Y-4.0078
X3.3516Y-3.4453
X3.9375Y-1.1953
X3.9375Y-1.4297
X3.9375Y-1.5703
X3.9375Y-2.1797
X3.9375Y-2.3672
X4.7344Y-1.1719
X4.7344Y-1.4531
X4.7344Y-1.5938
X4.7344Y-2.1563
X4.7344Y-2.3906
X4.7344Y-2.9063
X4.7344Y-3.0703
X4.7344Y-3.5156
X4.7344Y-3.6563
X5.4844Y-1.2891
X5.5781Y-1.4297
X5.625Y-1.5938
X5.625Y-2.1797
X5.625Y-2.3672
X5.8125Y-2.9531
X5.8125Y-3.1406
X5.9063Y-3.75
X6.1875Y-1.4297
X6.1875Y-0.8906
X6.3398Y-2.4023
X6.375Y-1.5703
X6.375Y-2.3438
X6.4219Y-2.4023
X6.4453Y-2.1562
X6.5625Y-2.9531
X6.5625Y-3.1406
X6.6094Y-3.6563
X6.6094Y-3.7969
X7.0078Y-0.9141
X7.0078Y-1.1719
X7.125Y-2.3672
X7.1953Y-2.3203
X7.1953Y-1.6406
X7.1953Y-2.0156
X7.1953Y-2.2166
X7.2188Y-2.1328
X7.2539Y-2.9648
X7.3125Y-3.1406
X7.3125Y-3.7031
X7.6172Y-1.0313
X7.6172Y-1.8047
X7.6172Y-2.0859
X7.6172Y-2.5781
X7.6172Y-2.8359
X7.6875Y-1.2422
X7.7109Y-4.0781
X7.7109Y-4.3359
X7.7578Y-1.1484
X7.7578Y-1.2422
X7.8047Y-3.3281
X7.8047Y-3.5859
X7.8047Y-2.3203
X7.875Y-2.5781
X7.9338Y-2.2151
X7.9453Y-1.5938
X7.9453Y-1.875
X7.9453Y-2.1563
X8.1094Y-3.6914
X8.1094Y-2.9297
X8.1094Y-3.3984
X8.1563Y-2.3203
X8.3672Y-1.8047
X8.3672Y-2.0859
X8.3672Y-2.5781
X8.3672Y-2.8359
X8.4141Y-1.0547
X8.4141Y-1.2891
X8.4844Y-1.125
X8.4844Y-1.2891
X8.5547Y-3.5859
X8.5547Y-3.3281
X8.5547Y-4.0781
X8.5547Y-4.3359
X8.5664Y-2.2852
X8.625Y-2.2166
X8.6953Y-2.2852
X8.6953Y-1.875
X8.6953Y-2.3906
X8.7188Y-3.0469
X8.7422Y-3.75
X8.7422Y-3.7969
X8.7791Y-3.0938
X8.7891Y-2.2166
X8.8125Y-3.0
X8.8594Y-3.0938
X8.8828Y-3.1406
X8.8828Y-3.75
X8.8828Y-3.7969
X8.8828Y-3.8906
X9.1172Y-1.8047
X9.1172Y-2.0859
X9.1172Y-2.5781
X9.1172Y-2.8359
X9.2344Y-1.2656
X9.3047Y-3.5859
X9.3047Y-4.3359
X9.3047Y-0.9609
X9.3047Y-3.3281
X9.3047Y-4.0781
X9.5625Y-0.9609
X9.6563Y-3.0
X9.6563Y-3.0469
X9.6797Y-3.75
X9.6797Y-3.7969
X9.7266Y-1.1953
X9.7266Y-1.3694
X9.75Y-3.9141
X9.7734Y-1.6406
X9.7734Y-1.8984
X9.7851Y-2.3203
X9.8203Y-1.9453
X9.8203Y-2.1094
X9.8203Y-2.4141
X9.8203Y-3.1406
X9.8203Y-3.75
X9.8203Y-3.7969
X9.8438Y-1.1484
X9.8438Y-1.5469
X9.8438Y-3.0
X9.8438Y-3.0469
X9.9609Y-1.2656
X9.9609Y-1.4297
X10.0547Y-1.5938
X10.2422Y-1.2891
X10.2422Y-3.5859
X10.2422Y-4.3359
X10.2422Y-1.1484
X10.2422Y-1.8047
X10.2422Y-2.0859
X10.2422Y-2.5781
X10.2422Y-2.8359
X10.2422Y-3.3281
X10.2422Y-4.0781
X10.4297Y-3.0469
X10.4297Y-3.75
X10.4297Y-3.7969
X10.5Y-1.2656
X10.5Y-1.4531
X10.5Y-2.1797
X10.5Y-2.3672
X10.5Y-3.8438
X10.5469Y-2.2166
X10.5703Y-1.6406
X10.5703Y-3.0469
X10.5703Y-3.1406
X10.5703Y-3.75
X10.5703Y-3.7969
X10.5938Y-1.1484
X10.9922Y-3.5859
X10.9922Y-4.3359
X10.9922Y-3.3281
X10.9922Y-4.0781
X11.0156Y-1.3594
X11.0859Y-2.1328
X11.1328Y-1.0547
X11.2266Y-1.043
X11.2266Y-1.2891
X11.2266Y-1.8047
X11.2266Y-2.5664
X11.25Y-2.3203
X11.2617Y-2.7891
X11.2734Y-3.75
X11.2734Y-3.7969
X11.2969Y-1.1484
X11.2969Y-1.2422
X11.3438Y-2.6484
X11.3438Y-3.1406
X11.3438Y-3.375
X11.3438Y-3.8906
X11.3672Y-1.6406
X11.3672Y-1.9123
X11.3672Y-2.3906
X11.4141Y-2.2266
X11.4141Y-2.2734
X11.4141Y-3.75
X11.4141Y-3.7969
X11.4609Y-1.5134
X11.5547Y-1.51
X11.6719Y-1.5469
X11.7422Y-3.5859
X11.7422Y-4.3359
X11.7422Y-1.8047
X11.7422Y-2.0859
X11.7422Y-2.5547
X11.7422Y-2.8359
X11.7422Y-3.3516
X11.7422Y-4.0781
X11.7654Y-1.0428
X11.7656Y-1.1953
X12.0469Y-2.6133
X12.0469Y-1.6641
X12.0469Y-2.0391
X12.0803Y-1.8984
X12.0803Y-2.0669
X12.0938Y-2.3672
X12.0938Y-2.8359
X12.1172Y-1.6172
X12.1172Y-2.0391
X12.1406Y-1.6641
X12.1641Y-3.9609
X12.258Y-4.0549
X12.2813Y-2.0391
X12.293Y-2.0977
X12.4688Y-3.0469
X12.4805Y-1.0195
X12.4822Y-2.8125
X12.5156Y-2.0977
X12.516Y-1.2422
X12.5623Y-1.0154
X12.5742Y-2.8008
X12.6311Y-1.7695
X12.6328Y-2.5547
T3
X1.4297Y-1.8656
X1.4297Y-2.1656
X1.4297Y-2.6156
X1.4297Y-2.9156
X1.4297Y-3.3656
X1.4297Y-3.6656
X1.4297Y-4.1156
X1.4297Y-4.4156
X1.5Y-1.1156
X1.5Y-1.4156
X2.1797Y-1.1156
X2.1797Y-1.4156
X2.1797Y-1.8656
X2.1797Y-2.1656
X2.1797Y-2.6156
X2.1797Y-2.9156
X2.1797Y-3.3656
X2.1797Y-3.6656
X2.1797Y-4.1156
X2.1797Y-4.4156
X2.9297Y-1.1156
X2.9297Y-1.4156
X2.9297Y-1.8656
X2.9297Y-2.1656
X2.9297Y-2.6156
X2.9297Y-2.9156
X2.9297Y-3.3656
X2.9297Y-3.6656
X2.9297Y-4.1156
X2.9297Y-4.4156
X3.1641Y-3.3656
X3.1641Y-3.6656
X3.6797Y-1.1156
X3.6797Y-1.4156
X3.6797Y-1.8656
X3.6797Y-2.1656
X3.6797Y-2.6156
X3.6797Y-2.9156
X4.6172Y-1.1156
X4.6172Y-1.4156
X4.6172Y-1.8656
X4.6172Y-2.1656
X4.6172Y-2.6156
X4.6172Y-2.9156
X5.1797Y-4.1156
X5.1797Y-4.4156
X5.3672Y-1.1156
X5.3672Y-1.4156
X5.3672Y-3.3656
X5.3672Y-3.6656
X5.4609Y-1.8656
X5.4609Y-2.1656
X5.4609Y-2.6156
X5.4609Y-2.9156
X6.1172Y-1.1156
X6.1172Y-1.4156
X6.1172Y-4.1156
X6.1172Y-4.4156
X6.3047Y-1.8656
X6.3047Y-2.1656
X6.3047Y-2.6156
X6.3047Y-2.9156
X6.4922Y-3.3656
X6.4922Y-3.6656
X6.8672Y-1.1156
X6.8672Y-1.4156
X6.9609Y-4.1156
X6.9609Y-4.4156
X7.0547Y-1.8656
X7.0547Y-2.1656
X7.0547Y-2.6156
X7.0547Y-2.9156
X7.2422Y-3.3656
X7.2422Y-3.6656
X7.6172Y-1.1156
X7.6172Y-1.4156
X7.8047Y-1.8656
X7.8047Y-2.1656
X7.8047Y-2.6156
X7.8047Y-2.9156
X7.8984Y-4.1156
X7.8984Y-4.4156
X7.9922Y-3.3656
X7.9922Y-3.6656
X8.3672Y-1.1156
X8.3672Y-1.4156
X8.5547Y-1.8656
X8.5547Y-2.1656
X8.5547Y-2.6156
X8.5547Y-2.9156
X8.7422Y-3.3656
X8.7422Y-3.6656
X8.7422Y-4.1156
X8.7422Y-4.4156
X9.1172Y-1.1156
X9.1172Y-1.4156
X9.3047Y-1.8656
X9.3047Y-2.1656
X9.3047Y-2.6156
X9.3047Y-2.9156
X9.4922Y-3.3656
X9.4922Y-3.6656
X9.4922Y-4.1156
X9.4922Y-4.4156
X10.4297Y-1.1156
X10.4297Y-1.4156
X10.4297Y-1.8656
X10.4297Y-2.1656
X10.4297Y-2.6156
X10.4297Y-2.9156
X10.4297Y-3.3656
X10.4297Y-3.6656
X10.4297Y-4.1156
X10.4297Y-4.4156
X11.1797Y-1.1156
X11.1797Y-1.4156
X11.1797Y-1.8656
X11.1797Y-2.1656
X11.1797Y-2.6156
X11.1797Y-2.9156
X11.1797Y-3.3656
X11.1797Y-3.6656
X11.1797Y-4.1156
X11.1797Y-4.4156
X11.3681Y-0.8038
X11.3681Y-1.403
X11.4681Y-0.8038
X11.4681Y-1.403
X11.5681Y-0.8038
X11.5681Y-1.403
X11.6681Y-0.8038
X11.6681Y-1.403
X11.7681Y-0.8038
X11.7681Y-1.403
X11.8681Y-0.8038
X11.8681Y-1.403
X11.9297Y-1.8656
X11.9297Y-2.1656
X11.9297Y-2.6156
X11.9297Y-2.9156
X11.9297Y-3.3656
X11.9297Y-3.6656
X11.9297Y-4.1156
X11.9297Y-4.4156
X11.9681Y-0.8038
X11.9681Y-1.403
X11.9766Y-0.9984
X11.9766Y-1.2984
X12.0681Y-0.8038
X12.0681Y-1.403
X12.1641Y-3.3656
X12.1641Y-3.6656
X12.1681Y-0.8038
X12.1681Y-1.403
X12.2681Y-0.8038
X12.2681Y-1.403
X12.3681Y-0.8038
X12.3681Y-1.403
X12.4681Y-0.8038
X12.4681Y-1.403
X12.5681Y-0.8038
X12.5681Y-1.403
X12.6797Y-1.1156
X12.6797Y-1.4156
X12.6797Y-1.8656
X12.6797Y-2.1656
X12.6797Y-2.6156
X12.6797Y-2.9156
T4
X0.8297Y-1.0266
X0.8297Y-1.125
X0.8297Y-1.2234
X1.4006Y-1.0266
X1.4006Y-1.2234
T5
X10.6533Y-1.4766
X10.9092Y-1.4766
T2
G00X7.0266Y-0.7988
M15
G01X7.0266Y-0.7988
M16
G05
G00X7.125Y-0.7988
M15
G01X7.125Y-0.7988
M16
G05
G00X7.2234Y-0.7988
M15
G01X7.2234Y-0.7988
M16
G05
T6
G00X1.1093Y-0.9045
M15
G01X1.1407Y-0.9045
M16
G05
G00X1.1093Y-1.3455
M15
G01X1.1407Y-1.3455
M16
G05
T0
M30
